<svg width="400" height="453" viewBox="0 0 400 453" fill="none" xmlns="http://www.w3.org/2000/svg">
<g clip-path="url(#clip0)">
<path d="M282.992 424.831L285.763 427.791L287.87 418.966L285.763 418.527L290.812 407.595L282.382 407.156L269.739 412.644L267.631 422.742L262.583 429.064L257.929 428.23L244.889 432.884L240.235 429.064L236.021 429.503L223.377 409.703L222.983 406.322L222.543 394.512L222.983 389.859L225.485 388.629L224.65 391.132L226.757 385.249L225.09 377.215L222.983 376.82H225.09L226.319 371.332L230.972 369.224L229.304 367.556L233.079 367.951L231.806 368.785L238.128 365.01L238.568 360.795L241.509 361.629L239.84 362.902L245.284 360.356L254.154 360.795L256.699 358.688L262.583 362.902L264.69 360.795L266.797 362.068L265.963 359.127L268.466 359.522L271.012 362.902L273.119 360.795L268.904 359.127L271.451 356.58L268.904 356.141L264.69 355.307L277.333 352.805L277.773 349.819L279.002 352.366L277.773 353.639L283.216 350.258L282.382 351.926L287.87 350.258L286.202 351.092L291.252 350.697L292.085 352.366L293.359 354.473L297.573 351.531L299.241 350.258L301.348 350.697L302.183 351.092L308.944 356.58V362.902L311.051 362.068L310.217 365.449L312.324 368.39L314.431 367.556L316.934 373.878L321.149 375.107V378.093L324.134 376.82V378.093L325.363 366.283L316.1 347.712L312.324 340.556L316.1 332.96L314.827 331.292L316.54 332.565L319.042 328.746L324.134 320.755L334.671 309.78L331.29 310.219L333.397 307.672L330.457 307.277L335.066 306.838L336.779 304.336L335.506 302.228L335.066 304.731L334.671 302.623L331.29 303.897L333.397 300.955L335.506 301.789L333.793 298.014L337.173 303.062L333.397 296.74L327.91 295.906L330.852 296.301L328.35 293.799L330.457 295.467L330.852 292.921L330.457 292.745V290.814L324.53 289.584V287.477L330.017 289.979L326.241 282.823L329.579 279.882L328.35 284.931L333.397 289.584L332.959 295.467L335.066 285.765L330.852 278.169L335.066 281.989L337.173 275.667L335.066 271.452L337.173 266.799L346.042 261.75L345.208 258.369L346.876 260.477L351.925 257.096L350.651 254.989L350.256 257.535L345.602 254.594L346.042 244.891L347.711 244.057L346.876 241.95H349.818L349.422 236.462L350.256 239.008L351.925 236.023L353.638 237.296L356.578 232.247L354.471 230.14H357.852L363.735 221.271L362.901 225.486L364.57 224.652L368.784 222.544L367.115 225.925L364.57 224.652L360.794 232.686L362.461 237.296L365.842 238.13L367.51 228.866L370.495 228.471L369.617 226.759L376.818 219.603L378.047 217.935L375.984 217.408L379.32 212.447L379.76 211.613L378.925 211.174L377.213 210.734V215.388L375.94 216.222L376.818 211.174L374.711 206.959L373.437 214.949L375.808 217.364L372.999 216.661L368.388 220.437L361.188 219.164L358.685 214.949L356.578 216.222V210.734L354.032 213.281L352.758 211.613L348.984 212.842L354.471 209.9L356.578 206.125L353.638 202.305L347.711 204.412L342.222 211.174L335.066 227.198L337.613 219.164L336.339 216.222L343.1 205.686L343.495 200.637L343.935 198.529L365.842 187.159H366.281L366.677 179.124L371.33 174.91L372.604 168.588L369.617 167.753L371.726 166.48L368.388 167.358L370.495 166.085L368.388 165.646L367.95 161.87L364.174 160.597L362.901 164.373L361.628 161.036L357.852 161.431L354.867 168.588L356.974 161.87L354.471 165.251L358.685 158.051L355.745 158.49V157.217L353.198 159.324L351.925 157.656L351.529 159.324L351.091 157.656L351.003 158.578L349.422 159.763V158.051L348.984 158.929L347.711 161.431L346.042 156.383V158.49L345.208 156.822L341.388 157.656L341.827 155.548L339.72 156.822L340.555 155.548H338.446L339.72 154.275L336.339 154.714L339.281 153.836L338.446 150.895L333.793 150.5L335.066 148.787L332.125 147.953L331.686 146.285L330.017 148.787L330.457 145.012L328.35 147.514L328.744 144.178L327.076 142.465L324.53 143.739L325.803 142.07L319.48 139.085V137.417H317.812L318.207 141.631L320.754 143.3L319.042 145.012L320.754 145.407L319.48 147.953L321.587 150.895L318.647 147.953L317.373 154.714L314.827 151.729L314.431 155.944L313.158 150.895L307.275 153.441L307.671 151.334L309.382 152.168L308.944 148.787L307.275 149.622L305.564 145.846L302.183 146.68L305.564 145.012L303.061 139.085L302.622 141.192L296.739 140.797L295.861 138.251L293.754 139.085L287.432 135.309L286.202 138.251L276.895 137.856L275.666 140.358L279.002 144.178L278.607 149.226L280.714 148.392L283.216 153.002L281.987 162.705L288.309 165.251L293.754 174.515V173.68L296.299 175.788L293.754 176.183V174.515L292.085 182.505L285.763 188.827L289.539 190.934L295.466 202.305L293.754 206.125L295.861 209.505L292.919 206.959L292.085 210.734H291.252H288.705L288.309 207.793L279.44 201.471L275.666 187.554L265.128 189.266L242.782 178.729L235.626 182.11L236.855 179.124L233.079 170.695H229.699V172.802L227.197 169.027L226.757 159.763L230.972 151.729L229.699 150.5L234.748 145.846L232.641 144.573H236.021L237.733 142.07L233.914 139.085L232.246 140.358L232.641 138.69L227.592 138.251V136.143L237.295 140.358L238.568 135.748L244.055 134.87L246.162 128.548L234.353 125.211L237.295 124.333L244.451 127.319L247.391 121.831L244.451 119.724L252.88 120.997L247.831 116.782L251.211 116.343L253.318 119.285L256.699 111.689L251.607 106.641L254.154 104.972L252.045 103.699L252.88 101.592L248.269 100.758L249.5 99.4843L242.342 99.9234L246.162 105.806L244.055 106.245V115.07L241.948 116.782L237.733 106.245L234.748 104.533L233.914 111.294L229.699 104.533L232.246 103.699L226.319 102.865L226.757 101.153V99.4843L228.865 99.9234L221.27 89.7818L217.494 96.938L219.163 97.377L218.767 101.592V102.426L225.485 104.972L223.377 105.367L222.983 108.748L224.65 107.08L225.485 109.582L221.27 112.963L222.103 118.45L218.767 116.782L219.996 111.689L218.327 113.402L218.767 111.689L216.66 110.46L213.28 111.294L214.553 114.236L216.66 113.797V116.782L213.28 112.963L212.84 115.509L209.898 115.904H204.411L201.47 112.567H197.694L195.148 107.475L188.387 110.855L191.372 112.128L195.981 109.582L189.659 114.236L191.767 118.45L191.372 120.119L189.659 119.285L190.932 123.104L187.992 118.45L189.659 117.177L185.049 112.128L180.396 113.797L172.406 111.689L172.8 109.187L176.182 108.748L174.513 105.367L169.859 104.138L164.372 99.4843L160.99 96.5428L154.669 97.377L155.943 93.6014L156.381 92.7233L155.547 93.6014L152.167 96.938L151.332 91.8891L150.454 88.1135V91.055H148.785L141.191 92.7233L145.011 89.7818L146.678 88.5086L143.737 89.3867L136.975 90.6159L134.473 90.2208L135.308 87.2793L130.654 88.5086L130.259 92.3281L124.77 83.0646L122.225 77.9719L121.39 76.7426L110.415 66.601L109.58 64.0985L111.293 63.2205L108.746 61.1131L109.185 58.6106L106.2 59.0058L108.746 57.7765L109.185 56.0643L104.531 56.5033L102.424 54.396L99.4834 55.6692L99.8774 54.7911L100.755 54.396L96.9367 53.1228L94.8297 53.5618L87.6722 54.7911L84.7316 51.8496L81.3512 52.6838L80.0779 59.4448L77.5755 61.9912L79.6825 65.7669L77.1358 67.8742L78.4092 70.4206L76.6975 67.8742L78.4092 64.4937L75.4685 69.9815L71.6485 65.7669L73.7555 62.8253L64.9306 59.8838V64.9327L63.2191 63.6595L60.7166 67.4352L63.6573 73.3621L64.9306 72.5279L63.6573 74.1962H67.8727L68.7064 76.3036H65.7657L64.0527 79.6841L61.5503 80.5182L60.277 78.4109L56.063 78.8499L55.6233 75.8646L44.2532 79.245L42.9799 81.7914L44.2532 83.4598H42.5845L42.9799 84.7329L43.8578 87.6744L41.7508 86.4012L38.3705 89.7818L42.9799 92.7233L38.7645 98.6502L35.4284 99.0453L40.4775 101.153V102.426L39.6424 107.08L43.8578 104.533L42.1448 107.475L46.3602 108.353L42.1448 109.582L37.9308 114.236L28.2281 113.402H26.999L24.4523 115.904L22.3453 112.128L18.1299 112.567L18.5696 115.07L21.5116 113.797L20.6766 115.509L25.2874 116.343L25.7256 116.782L24.892 118.45L42.9799 116.343L47.6336 117.616L52.6826 115.904L51.4093 113.402L53.1209 111.689L69.5415 108.748L72.9218 110.46H69.5415L70.3751 114.236L68.2681 110.855L64.9306 110.46L59.4433 114.236L61.5503 115.904L57.3363 117.616L63.6573 118.889L64.9306 117.177L64.4924 118.889L66.1597 116.782L67.8727 119.285L70.8134 118.011V114.675L75.0288 113.797L72.9218 115.904L75.0288 115.07L74.1952 116.782H77.5755L75.4685 117.616L76.6975 118.889H75.0288L76.6975 119.285L75.4685 120.997L77.9709 122.665L77.5755 126.046L85.127 129.821L86.0049 134.036L87.234 133.641L89.3409 133.202L90.2189 135.309L88.1119 136.143L89.3409 133.641L86.8386 135.309L90.6143 147.514H92.7213L92.3259 142.07L93.5564 145.012L94.8297 143.3L93.161 147.514L95.268 149.622L98.6483 142.07L96.5413 149.226L97.7704 150.895L99.8774 149.622L97.375 152.168L99.4834 154.275H97.7704L99.0437 156.822L97.7704 154.714L98.21 157.217L96.1016 157.656L99.8774 166.085L95.6634 169.027L98.21 168.192L100.755 167.358V169.861L97.7704 175.788L101.59 173.241L104.093 169.861L100.755 174.91L101.986 176.183L98.6483 177.017L97.7704 178.729L100.317 180.837L97.7704 181.671L99.0437 186.324L102.864 183.339L101.59 185.885L103.697 187.159L100.755 185.446L102.864 192.207L99.4834 193.876L101.59 193.042L101.151 195.149L105.366 193.481L100.317 197.695V200.198L102.424 199.364L99.4834 200.637L101.986 201.471L99.0437 201.91L103.258 203.183H99.4834L104.531 205.291H102.864L103.697 206.52L107.078 205.686L103.258 206.959L104.971 209.066L106.639 207.398L105.366 209.066L107.429 209.9L107.078 210.339H110.415L107.473 212.842L109.185 214.949L110.853 213.72L111.687 212.842V214.115L112.127 216.222L110.02 217.057L113.4 216.661L112.127 220.876L114.234 223.379L111.687 233.081L112.127 228.471L108.746 231.413L112.127 226.759L104.531 222.983L103.697 233.081H105.366L102.864 237.296L105.366 238.13L103.258 237.735L94.4343 258.369L93.9946 267.633L90.6143 273.56L91.054 284.492L93.161 291.253L96.9367 291.692V295.906L95.268 293.36L94.8297 297.136L100.755 312.765L99.8774 316.541L102.864 318.209L110.02 322.424L114.629 328.746L120.117 351.092L120.952 352.805L128.986 362.902L127.273 365.844L128.986 367.951L122.663 366.283L130.259 374.273L132.761 373L137.81 379.322L137.415 387.356L147.513 396.62L149.225 400.834L152.561 399.561L150.894 394.073L145.844 391.571L142.464 377.215L136.142 368.39L135.702 364.175L127.273 352.366L126.879 340.161L136.142 346.044L138.249 354.473L139.522 359.522L139.478 359.566L138.249 360.795L139.522 362.463V359.653L139.917 361.234L145.405 368.785L148.785 369.663L148.347 373L155.943 380.595L154.274 383.976L161.868 388.629V391.571L173.635 403.381L177.849 412.644L175.742 416.42L177.455 417.693L174.513 418.527L175.742 421.074L187.992 432.006L197.694 434.552L203.137 438.767L209.898 440.874L231.806 447.635L246.162 444.254L260.148 452.306L262.747 443.002L270.827 442.127L270.65 439.824L264.818 436.514L266.847 435.822L266.811 432.407L278.151 430.629L282.992 424.831Z" fill="white"/>
<path d="M98.2107 168.192L96.542 170.3L97.3756 171.134L98.6047 169.948L98.2107 168.192Z" fill="white"/>
<path d="M98.6048 169.948L96.9375 171.968H99.0445L98.6048 169.948Z" fill="white"/>
<path d="M18.131 112.567L14.5322 112.963H16.024L16.4636 114.236L18.131 112.567Z" fill="white"/>
<path d="M14.5322 112.962L14.7506 111.294L10.5366 110.46L12.6436 112.567L14.3552 114.236L14.5322 112.962Z" fill="white"/>
<path d="M42.9806 84.733L40.4782 84.2939L40.0386 86.0062L42.5852 86.4013L42.9806 84.733Z" fill="white"/>
<path d="M50.5748 59.8838L48.4678 61.1131V66.601L51.0145 67.4351L50.5748 59.8838Z" fill="white"/>
<path d="M35.8249 81.3525L34.9897 86.0062H37.0982L38.7655 83.4599L35.8249 81.3525Z" fill="white"/>
<path d="M4.65376 107.914L3.0293 109.934L5.92713 109.582L4.65376 107.914Z" fill="white"/>
<path d="M3.02925 109.934H2.76514L2.94071 110.021L3.02925 109.934Z" fill="white"/>
<path d="M2.76506 109.933L0 108.748L2.107 110.021L2.76506 109.933Z" fill="white"/>
<path d="M51.41 118.89L49.7412 120.997H53.1215L51.41 118.89Z" fill="white"/>
<path d="M44.2544 119.724L42.5856 120.558V123.499H43.859L41.752 124.772H47.195V123.104L48.0729 124.772L50.1813 122.665L48.908 120.119L46.7996 121.392L47.195 119.724L44.6926 123.104L44.2544 119.724Z" fill="white"/>
<path d="M97.3756 125.606L95.6641 129.426V126.441L97.3756 125.606Z" fill="white"/>
<path d="M104.532 137.416L103.259 143.299L100.756 143.738L103.698 139.962L100.756 139.084L103.259 139.523L104.532 137.416Z" fill="white"/>
<path d="M91.4488 147.953L90.2197 153.441L91.4488 151.334L93.1618 153.441L91.8885 149.621L93.5572 152.168L94.8306 150.895L91.4488 147.953Z" fill="white"/>
<path d="M96.1025 148.787L92.7222 157.216L95.6642 155.943L97.3758 151.333L96.1025 148.787Z" fill="white"/>
<path d="M93.5571 158.051L91.0547 163.978L93.1616 160.158L93.5571 158.051Z" fill="white"/>
<path d="M94.4351 158.051L93.5571 161.87L95.2687 162.704L96.9375 160.158L94.4351 158.051Z" fill="white"/>
<path d="M93.5571 162.266L91.8884 166.919L93.5571 167.753L91.4487 169.466L93.1617 171.968L93.5571 174.515L95.2687 171.134L93.1617 169.466L95.6641 169.861L93.5571 162.266Z" fill="white"/>
<path d="M88.5082 176.183L87.2349 183.339L89.7815 190.934L88.5082 185.446L90.6152 184.612L88.5082 182.944L93.5572 178.29L88.9464 180.397L91.0549 178.29L88.5082 176.183Z" fill="white"/>
<path d="M99.8785 186.72L98.6494 190.539L99.4845 190.1V193.042L99.8785 186.72Z" fill="white"/>
<path d="M106.201 186.72L110.854 187.159L115.508 190.539L112.523 190.934L110.021 187.159L106.201 188.827L109.186 187.159L106.201 186.72Z" fill="white"/>
<path d="M95.6641 203.183L96.1023 205.685H99.0444L96.1023 207.792L99.0444 209.066L99.4841 209.9L101.986 217.934L105.805 217.495L103.698 220.436L110.416 224.256L106.64 212.446L105.805 209.9L95.6641 203.183Z" fill="white"/>
<path d="M264.251 0L262.584 2.10734L265.964 3.81956L265.129 5.09274L264.251 5.48787L270.178 10.1416L260.915 5.9269L263.856 10.1416L260.915 8.03424L259.202 13.5221L257.535 11.8099L259.642 7.59522L257.535 4.65371L255.426 7.20009L253.319 5.9269L252.881 12.6441L250.773 10.1416L252.046 5.9269L247.392 11.4148L251.608 13.9172H251.212L246.559 14.3563L247.832 16.4636L251.212 14.7514L253.319 15.6294L248.27 17.2978H252.881L251.608 18.571L249.939 17.7368L247.832 18.571L252.397 18.9661L254.154 19.8441L246.559 20.2393L252.046 23.1808H248.27L249.105 25.2881L245.725 22.7856L243.616 25.7272L244.056 26.1662L248.666 27.3955L244.452 26.5613L243.178 27.3955L246.559 30.776H244.452L246.559 32.4882L244.452 31.6102L244.056 36.2639L245.725 37.5371L248.27 35.8248L249.939 41.3127L246.998 43.0249L245.285 49.347L252.046 51.0153L255.426 48.4689L256.7 50.1811L252.881 51.8494L256.7 51.0153L250.773 53.9568H256.261L254.988 56.0641L257.535 57.3373L260.915 56.8983L258.808 55.669H261.749L263.022 52.6836L267.237 51.8494L269.344 52.6836L279.881 55.669L280.276 58.6105L281.11 56.8983L287.037 61.991L291.646 63.2203L289.979 64.4935L291.646 64.0984L292.701 66.1618L292.92 68.313L296.74 67.435L293.359 63.2203L296.74 65.7667L298.847 63.6593L298.408 66.6008L300.076 64.4935V67.435L300.954 65.7667V67.0399L303.062 66.2057L301.789 67.435L306.838 68.7082L301.349 69.5423L299.242 72.0887H305.564L308.505 69.5423L308.945 69.9813L311.491 74.6351L313.159 73.3619L313.994 75.0302L311.885 74.6351L315.267 77.1375L315.705 79.6839L318.648 79.2449L312.325 81.7913L315.705 81.3522L313.159 82.6254L314.828 85.5669L316.101 80.9571V82.1864L319.043 79.6839L315.267 86.4011L319.481 83.4596L316.101 87.6743L320.315 86.8401L319.043 89.3865L321.588 88.5084L322.028 84.7327L323.697 84.2937L321.588 92.328L324.53 89.7816L323.257 93.1621L326.242 93.9963L326.637 90.2206L328.744 89.7816L326.637 94.4353L327.472 93.6012L329.579 96.5427L330.457 94.4353L330.018 96.9378L332.564 99.0451V94.4353L330.018 92.7231L336.34 94.8304L332.96 95.7085L335.067 95.2695L333.398 99.0451L336.34 96.5427L334.233 99.4841L335.902 98.65V101.152L338.009 99.4841L337.613 101.591L339.72 100.318L338.009 102.031L340.555 100.757L342.223 103.699V101.152L343.496 104.972L346.438 104.138L346.876 106.245L348.15 104.533V106.64L348.545 104.972L349.423 106.64L350.652 106.245L349.819 107.914L351.926 105.806L351.092 107.914L353.639 106.245L356.579 108.353L359.082 102.031L359.521 106.245L359.96 103.26L360.795 106.64L361.189 104.138L362.902 105.806L362.462 103.26L364.175 107.079L363.735 103.699L365.842 106.64L365.404 104.138L368.389 103.26H364.175L366.677 100.757H364.175L364.57 98.211L362.462 99.4841L364.175 97.8159H362.068L362.902 95.7085L361.189 96.5427L362.068 94.4353L360.795 95.2695V92.7231L356.579 92.328L358.686 91.4938H355.306L356.975 88.5084L354.472 87.2791L356.579 86.8401L353.639 86.4011L355.746 85.5669H354.033L354.868 83.4596L352.365 83.8986L354.868 82.6254L352.365 81.3522L350.257 82.1864L351.53 79.6839L346.438 77.9717L348.545 76.7424L346.438 74.6351L346.043 74.196L348.15 70.8155L343.936 67.435L345.603 66.6008L346.876 69.1472L348.545 68.7082L346.438 67.435L348.15 67.874L348.545 64.4935L346.438 64.0984L348.15 62.3861L342.223 55.23L341.827 52.2885L337.613 51.0153H341.389L342.662 48.4689L340.994 47.2396H342.662L342.223 40.9176L336.78 31.215L336.34 30.3809L332.564 34.1565L333.793 38.3712V38.8103L333.398 39.2054L332.126 40.0395L331.291 35.8248L330.502 37.7566L331.291 33.7175L328.35 32.8833L330.457 37.8883V37.9322L329.579 40.0395L326.637 35.8248L328.35 34.9907L327.472 32.0492L323.697 35.8248V33.7175L321.15 34.1565L327.077 30.776L333.398 31.215L331.291 29.1077L333.793 29.9418V28.2735H330.018L327.911 26.5613L327.472 27.3955L326.242 26.1662V27.8345L324.969 26.5613L320.755 27.8345L322.028 29.9418L320.755 29.1077L319.921 30.3809L320.315 27.8345H318.208L319.043 30.3809L316.541 30.776V27.0003L314.828 30.3809V28.2735L312.721 28.6687L315.267 27.8345L313.994 25.2881L310.614 25.7272L313.994 24.893L312.325 24.0588L314.432 21.9515L313.159 24.0588L316.541 23.1808L316.101 19.8441L313.598 18.9661L311.885 20.2393L314.432 21.5125H311.491L308.505 19.8441L311.052 17.7368L311.491 17.2978L310.218 16.0246L309.383 17.2978L308.505 18.1319L306.003 16.8587L304.729 18.9661L305.169 16.4636L302.184 18.1319L305.564 16.0246L306.003 15.6294L302.184 14.3563L301.789 14.7514L300.076 16.4636L299.242 13.9172L298.408 16.0246H295.028L295.466 13.0831V10.9757L292.086 10.1416L290.813 11.8099L290.417 12.6441L289.979 11.4148L289.539 10.5367L288.31 10.9757L287.037 11.4148L289.144 13.0831L286.203 12.2489L281.55 8.86842L275.227 5.48787L276.061 7.59522V8.03424L273.954 7.59522L273.558 7.20009L271.847 3.38053L271.013 6.32203V7.20009L270.573 6.32203L269.74 2.10734L264.251 0Z" fill="white"/>
<path d="M321.588 88.5088L319.481 90.221H321.15V92.3283L321.588 88.5088Z" fill="white"/>
<path d="M315.267 77.1377L312.325 78.4109L311.492 81.3524L315.267 77.1377Z" fill="white"/>
<path d="M304.291 13.083L306.838 14.7513L307.276 13.083H304.291Z" fill="white"/>
<path d="M311.491 18.1318L309.778 18.966L310.613 20.2392L311.491 18.1318Z" fill="white"/>
<path d="M238.129 23.6201L235.187 26.1665L235.627 24.4542L227.593 26.1665L225.924 27.8348L224.651 29.5031L227.593 32.0495L222.544 30.7763L221.71 32.4885L224.212 33.7178L220.875 32.8836L217.495 35.8251H219.997L219.602 37.5373L222.104 36.2642L220.437 39.2057L225.09 36.7032L220.875 39.6447L223.377 40.9179L227.593 37.0983L225.09 39.6447V40.9179L227.197 38.8105H228.866L228.031 40.4788L230.139 39.2057L230.533 37.9325L232.246 34.1568L231.411 37.5373L233.915 37.0983L230.973 39.2057L228.426 41.313L232.642 44.6935L228.031 42.1472H224.651L230.533 48.0741L232.642 47.635L230.973 49.3472L232.642 50.5765L228.866 49.3472L226.758 50.5765V53.9571L228.426 52.2887L229.7 53.5619V51.0156L231.411 56.5034L233.915 53.1229L232.246 57.7766L226.319 55.6693L229.304 59.0059L225.486 62.8255L227.593 63.6596L227.197 61.5523L229.304 63.6596L228.866 61.9913L230.533 63.6596L230.139 61.9913L232.642 63.2206L233.52 61.1132L235.627 61.9913L234.749 60.2791L236.856 61.9913L235.627 59.884L239.403 62.8255L240.676 61.9913L242.783 60.2791L241.949 57.3376H238.963L236.022 57.7766L234.749 54.7912L238.129 55.6693H240.236L239.403 52.2887L242.343 51.4546L240.236 50.5765L242.343 49.3472L239.841 48.9082L241.949 47.635L236.022 46.8009L241.071 45.5277L236.022 45.1326L241.071 42.5862L238.963 41.313L242.343 40.9179L241.949 38.8105H239.841L241.949 37.9325L240.236 36.7032L241.949 37.0983L242.783 30.3812L239.403 33.7178L240.676 30.7763H237.734L241.071 29.9421L241.949 27.0006L241.51 24.8933L238.129 23.6201Z" fill="white"/>
<path d="M318.208 23.6201V26.1665L318.823 25.4201L318.208 27.0006H320.755L323.697 25.2884L319.261 24.8933L320.315 23.6201H318.208Z" fill="white"/>
<path d="M317.374 24.0586L314.432 25.2879L315.267 27.3952L317.374 24.0586Z" fill="white"/>
<path d="M216.221 37.5371L214.554 40.4786L216.661 42.1469L213.675 43.025L216.221 45.1323L213.675 44.2543V45.5274L216.661 45.9665L215.783 48.908L221.71 48.469L217.057 50.1812L220.875 52.2885L219.164 53.1227L220.437 54.3959H224.213L222.984 51.8495L225.091 53.9568L224.651 49.347L225.924 51.4543L228.427 47.2397L226.758 45.5274L225.091 46.3616L223.378 41.7518L222.984 43.8591L216.221 37.5371Z" fill="white"/>
<path d="M203.138 48.4688L203.578 51.4541L205.685 51.8493L204.016 54.3956L206.125 53.5615L209.899 55.6688L211.172 56.503L209.899 52.6834L209.461 51.4541L203.138 48.4688Z" fill="white"/>
<path d="M195.982 51.0156L192.602 53.123L197.695 52.6839L195.982 51.0156Z" fill="white"/>
<path d="M212.445 51.4541L212.841 55.6688L215.387 56.503L216.661 53.5615L212.445 51.4541Z" fill="white"/>
<path d="M191.768 54.791L191.373 56.8984L194.313 58.1716L195.982 55.6691L191.768 54.791Z" fill="white"/>
<path d="M182.503 56.5029L180.836 57.7761L174.514 62.3859L177.85 61.5518L178.289 63.6591L178.728 64.0981L183.339 59.4444V62.3859L187.992 57.7761L185.884 56.5029H182.503Z" fill="white"/>
<path d="M218.328 56.8984L214.948 58.1716L219.163 58.6106L218.328 56.8984Z" fill="white"/>
<path d="M222.104 57.7764L223.817 59.4447L224.212 57.7764H222.104Z" fill="white"/>
<path d="M196.422 61.5518L193.875 64.0981L195.148 69.147L191.373 68.7079L187.157 61.9908L185.446 63.2201L187.157 64.0981L183.339 64.9323L186.279 65.3274L182.065 66.6006H185.446L180.396 68.3128L183.339 70.4202L186.719 67.8738L186.279 70.4202L191.373 69.9811L185.05 72.0885L187.992 74.1958L195.148 71.6494L199.802 72.0885L201.031 67.4348L199.362 66.2055L198.529 68.7079L196.816 67.4348L196.422 61.5518Z" fill="white"/>
<path d="M214.554 61.5518L217.056 65.7665L220.875 64.4933L223.377 72.0885L227.593 74.1958L229.7 71.6494L231.411 74.1958L238.569 72.5275L238.129 70.4202L241.509 72.0885L244.056 69.9811L244.89 68.7079H243.616H242.783L243.178 67.4348V65.7665H242.343L239.402 64.9323L232.246 68.7079L228.031 67.4348V69.147L225.924 66.2055L224.212 67.4348L225.486 65.7665L222.983 64.9323L226.757 64.4933L222.983 63.6591L223.817 62.825L219.997 64.4933L219.163 61.5518H214.554Z" fill="white"/>
<path d="M182.504 63.2207L178.728 65.328H180.836L182.504 63.2207Z" fill="white"/>
<path d="M212.007 63.2207L211.172 64.9329L209.899 64.4939L208.231 64.0987L209.899 67.4354L206.958 64.4939L208.231 68.3135L205.245 69.1476L209.899 68.7086H210.338L209.899 69.5427L208.627 70.8159L209.899 72.9232L213.281 72.5281L214.554 70.4208L212.007 63.2207Z" fill="white"/>
<path d="M218.768 68.708L215.783 72.5275L221.271 74.1959L218.768 68.708Z" fill="white"/>
<path d="M166.918 69.9814L167.314 73.7571L158.489 81.7913L160.597 82.6255L161.431 88.5085L167.314 87.6744L169.027 84.7328L169.86 84.2938L181.67 78.4108L178.728 73.7571L175.743 74.6352L174.514 72.9229L172.801 70.4205L166.918 69.9814Z" fill="white"/>
<path d="M303.457 72.5273L300.954 74.1957L301.789 75.0298L303.896 77.1372L306.003 75.4689L306.838 77.5762L308.505 74.1957L305.169 72.9225L303.457 72.5273Z" fill="white"/>
<path d="M246.163 75.4688L244.89 75.8639L247.393 79.6834H247.832L249.501 80.5176L255.427 78.4102L251.213 75.4688H246.163Z" fill="white"/>
<path d="M234.353 77.1377L230.533 81.7914L230.973 91.8891L237.295 92.3281L241.509 91.494L238.129 87.6744L236.46 83.4597L237.734 77.1377H234.353Z" fill="white"/>
<path d="M227.593 77.9717L218.328 78.4107L219.997 89.7816L222.983 86.8401L221.27 85.1718L225.486 84.7327L227.593 77.9717Z" fill="white"/>
<path d="M208.232 79.2451L209.065 81.7915L206.958 81.3525L209.899 82.6257L210.339 83.0647L209.899 84.294L209.461 85.5672L205.685 83.4598L204.412 86.0062L209.899 91.8892L211.568 93.6014L213.675 93.1624V91.8892L216.221 91.4941L216.661 85.5672L212.841 83.8988L215.388 79.6842L209.899 79.2451H208.232Z" fill="white"/>
<path d="M182.944 79.6836L173.636 83.0641L171.134 86.8398L173.636 88.113L171.967 89.3861L178.728 89.7813L171.134 91.0545L171.529 93.996L179.959 94.8301L184.612 97.8155L171.134 97.3765V97.8155L171.967 101.591L177.85 104.972L178.29 108.352H188.388L194.709 104.138L197.695 107.913L205.685 107.474L204.412 104.533L202.305 107.079L201.909 103.259L204.016 104.533L206.519 102.03L207.792 103.699V101.591V100.757L200.198 95.2691L199.802 84.7324L197.256 81.7909L194.314 82.1861L193.875 91.4935L190.933 83.0641H189.266L190.495 86.4007L188.826 85.1715L187.993 86.8398L185.884 86.4007L187.993 84.2934L185.446 82.1861L181.231 84.2934L182.944 79.6836Z" fill="white"/>
<path d="M197.695 79.6836L196.816 80.9568L200.198 83.8983L201.471 80.5177L197.695 79.6836Z" fill="white"/>
<path d="M255.822 96.9375L254.593 97.8156L253.319 98.6497H254.988L255.822 96.9375Z" fill="white"/>
<path d="M214.554 102.426L212.445 108.353L218.328 110.855L221.27 108.353L214.554 102.426Z" fill="white"/>
<path d="M272.681 103.699L270.574 104.533H273.954L272.681 103.699Z" fill="white"/>
<path d="M265.524 104.138L267.237 110.46L270.574 108.352L269.74 104.533L265.524 104.138Z" fill="white"/>
<path d="M243.617 76.3037L238.129 79.6843L241.071 80.9574L237.734 81.3526L241.071 82.6257L237.296 82.1867L241.949 86.8404L239.403 85.5672L238.129 87.2795L241.949 88.9478L242.343 93.1625L241.51 91.8893L232.247 93.9966L234.354 96.9381L236.856 98.2113L239.841 96.104L241.51 99.0455H242.343L250.773 97.8162L249.501 97.3771L246.998 96.104L250.379 97.3771L252.881 98.6503L251.212 96.9381L250.379 96.543H254.155L257.095 96.104L256.262 95.7088L254.155 93.9966L254.988 91.8893L258.369 95.2698L260.037 96.543L260.476 94.8308L260.915 96.9381L263.022 96.104L265.525 97.8162L264.691 101.592L266.358 99.0455L270.178 101.153L271.013 99.9235L278.169 106.246L277.774 110.021L280.276 109.582L277.774 110.46L276.061 114.675L280.276 118.012L275.227 120.997H270.574L271.013 127.319L280.715 124.773L279.003 121.831L283.217 124.334L282.823 122.226L286.599 126.441H291.252L289.144 128.153L291.252 129.426L309.779 129.821L296.3 123.104L300.954 123.938L298.847 121.831L310.218 124.773L305.169 118.89L308.945 120.997L306.398 117.177L302.623 116.343L303.896 115.07L300.954 113.402L300.076 115.509L297.969 113.402L298.847 115.509L294.193 110.855L292.92 112.963L290.417 109.582L293.755 108.748L289.539 106.246L292.524 104.972L295.862 107.08V104.972L296.74 107.914L298.409 104.138L297.969 108.353L305.565 110.855L301.789 105.367L305.169 106.246L302.184 103.699L305.169 103.26L301.789 102.426L304.73 101.153L302.184 100.319L303.896 99.0455L300.954 97.8162V100.758L299.682 99.0455L297.969 101.153L297.573 97.3771V100.319L297.135 98.2113L295.466 100.758L296.3 98.6503L294.193 99.0455L295.862 98.2113L292.92 96.543L292.086 98.2113V98.6503L289.979 96.9381L290.813 99.0455L289.539 96.543V98.6503L288.31 96.543L287.871 97.8162L286.203 96.104L284.49 97.3771L286.599 95.2698L279.881 95.7088L283.217 94.4357L281.11 92.7234L279.881 94.4357L281.11 92.3283H278.608L284.096 91.4942L281.988 90.221L276.061 92.3283L281.11 88.9478L280.276 87.6746H279.881L277.334 86.4014L276.501 88.9478V87.6746L274.394 89.7819L276.501 85.5672L273.12 85.1721L272.285 87.6746V84.7331L271.452 90.6161L271.013 87.6746L269.74 88.9478L270.178 84.2941L268.071 88.1136L268.467 83.8989L265.129 82.6257L264.251 86.8404L262.584 82.6257L261.311 86.8404L260.915 83.8989L259.642 84.2941L260.915 81.3526L257.095 83.8989L257.93 79.6843H252.881L251.608 81.7916L255.426 82.6257L251.608 83.0648L254.988 85.1721L249.105 82.1867V83.0648L248.27 86.0063L247.832 80.9574L243.617 76.3037Z" fill="white"/>
<path d="M251.212 121.393L252.881 123.105H254.988L251.212 121.393Z" fill="white"/>
<path d="M248.27 123.104L249.501 134.475L247.393 138.251L251.608 136.583L253.715 139.963L258.369 132.368L260.476 134.87L265.129 135.31L266.798 132.763L263.856 131.095L261.311 132.763L260.915 129.427L252.046 125.212L251.213 126.88L248.27 123.104Z" fill="white"/>
<path d="M313.994 129.821L311.886 131.094L313.994 131.929V129.821Z" fill="white"/>
<path d="M274.394 133.202L271.847 133.641L273.954 135.309L274.394 133.202Z" fill="white"/>
<path d="M263.856 139.085L260.476 140.358L258.369 143.3L259.642 145.012L263.856 139.085Z" fill="white"/>
<path d="M271.013 140.358L271.451 145.012L272.68 142.905L271.013 140.358Z" fill="white"/>
<path d="M292.525 145.407L293.755 147.119L288.311 147.515L292.525 145.407Z" fill="white"/>
<path d="M292.92 153.002H293.359L296.74 153.836L292.086 154.275L292.92 153.002Z" fill="white"/>
<path d="M298.409 165.251L297.135 167.358L298.847 167.753L295.028 169.466L298.409 165.251Z" fill="white"/>
<path d="M300.515 172.802H300.954L303.062 174.514H300.076L300.515 172.802Z" fill="white"/>
<path d="M283.657 175.787L282.823 180.836L284.93 179.124L285.326 180.397V179.124L283.657 175.787Z" fill="white"/>
<path d="M283.217 198.969L280.276 201.076L285.764 201.91L283.217 198.969Z" fill="white"/>
<path d="M373.834 171.573L372.604 180.003L374.272 184.217L375.941 187.554L374.272 188.827L376.818 190.539H374.711L373.834 196.422L377.214 193.876L375.545 199.803L377.214 201.076L379.321 198.091L385.248 196.422L386.917 191.769L387.75 195.588L391.57 191.373L389.857 198.091L392.404 195.983L392.799 188.827L394.906 190.539L396.18 194.754L396.619 190.934L398.287 194.315L400 193.481L398.287 187.159L397.015 186.325L396.18 188.827L395.346 184.612V189.266L393.239 188.432L393.677 186.72L391.966 186.325L393.677 182.505L390.692 185.886L389.463 179.564L386.477 181.671L385.248 180.003L384.37 185.051L383.536 181.671L381.034 184.217V180.003L378.925 181.671L378.487 181.232L378.048 180.398V181.671V185.051L377.654 182.11L376.38 174.076L374.272 173.242L375.941 172.407L373.834 171.573Z" fill="white"/>
<path d="M342.223 180.003L345.209 181.671L343.496 182.11L342.223 180.003Z" fill="white"/>
<path d="M358.686 195.588L351.925 197.695L362.901 198.09V196.422L358.686 195.588Z" fill="white"/>
<path d="M370.891 213.281L363.735 217.057L361.628 213.72V217.057L368.784 217.935L370.891 213.281Z" fill="white"/>
<path d="M333.794 160.597L334.671 162.265L332.564 161.87L333.794 160.597Z" fill="#2D3E50"/>
<path d="M330.018 163.143L331.292 164.811H329.185L330.018 163.143Z" fill="#2D3E50"/>
<path d="M337.174 168.587L341.39 171.967L343.936 171.133L340.994 173.68L338.448 173.241L337.614 176.182L339.721 177.455L338.009 177.894L337.174 175.348L331.292 172.802L332.565 174.909L329.185 170.299L336.78 174.909L338.009 173.68L337.614 173.241L339.721 171.967L337.174 168.587Z" fill="#2D3E50"/>
<path d="M319.921 177.017L320.755 178.29L318.648 180.002L319.921 177.017Z" fill="#2D3E50"/>
<path d="M328.35 180.836L329.184 184.217L327.077 184.612L328.35 180.836Z" fill="#2D3E50"/>
<path d="M333.794 192.207L334.672 199.802L331.422 196.027L331.291 195.983L331.335 195.895L329.58 193.875L333.794 192.207Z" fill="#2D3E50"/>
<path d="M332.96 200.197L335.507 204.017L336.78 205.685L334.672 204.412L333.398 203.578L332.96 200.197Z" fill="#2D3E50"/>
<path d="M318.208 201.471L315.706 211.173L314.828 205.29L318.208 201.471Z" fill="#2D3E50"/>
<path d="M330.853 206.958L334.672 209.504L331.687 208.231L329.58 211.173L330.853 206.958Z" fill="#2D3E50"/>
<path d="M304.73 208.231L303.062 210.734L301.789 208.627L304.73 208.231Z" fill="#2D3E50"/>
<path d="M310.614 209.065L312.721 209.504L311.886 212.007L310.614 209.065Z" fill="#2D3E50"/>
<path d="M302.623 213.28H303.062L304.292 215.388V215.827L302.185 217.934L302.623 215.827V213.28Z" fill="#2D3E50"/>
<path d="M132.367 93.1621L129.382 99.9232L136.143 104.138L136.976 110.855L134.869 114.675L141.63 122.226L141.192 125.211V122.226L134.869 114.675L136.582 111.294L134.869 103.699L130.26 102.426L128.547 98.65L132.367 93.1621Z" fill="#2D3E50"/>
<path d="M159.324 113.401H159.762L161.431 115.07L158.051 116.343V117.177L161.431 118.45L164.373 116.782L162.265 122.665L157.655 120.997L157.215 123.938L155.548 124.333L151.728 125.606L155.108 121.831L149.621 124.333L146.241 121.831L151.333 119.284L150.059 117.616L154.275 118.45L150.059 115.904L145.012 116.782L145.406 114.236L159.324 113.401Z" fill="#2D3E50"/>
<path d="M174.514 120.118H176.182L175.347 123.104L174.514 120.118Z" fill="#2D3E50"/>
<path d="M217.057 121.831V122.226L217.89 123.938L215.783 124.773L217.057 121.831Z" fill="#2D3E50"/>
<path d="M179.563 124.333L183.777 129.821L182.943 131.533L179.563 124.333Z" fill="#2D3E50"/>
<path d="M171.134 124.772L176.183 128.153L175.743 129.821L171.134 124.772Z" fill="#2D3E50"/>
<path d="M213.675 125.606L210.338 127.714H209.899L205.245 126.441L209.899 126.045L213.675 125.606Z" fill="#2D3E50"/>
<path d="M178.29 132.763H182.943L179.123 134.036L178.29 132.763Z" fill="#2D3E50"/>
<path d="M176.621 133.641L178.728 135.748L174.909 134.87L176.621 133.641Z" fill="#2D3E50"/>
<path d="M217.89 133.641H218.328L214.114 136.143L209.899 135.309L207.792 134.475H209.899L217.89 133.641Z" fill="#2D3E50"/>
<path d="M185.884 134.475L189.266 137.855L182.065 136.582L185.884 134.475Z" fill="#2D3E50"/>
<path d="M157.655 135.309L158.884 138.25L155.943 135.748L157.655 135.309Z" fill="#2D3E50"/>
<path d="M215.388 138.25H218.328L217.495 139.523L215.388 138.25Z" fill="#2D3E50"/>
<path d="M162.265 141.192L169.027 147.514L177.85 142.905L182.943 144.573H178.29L180.397 145.012L177.016 145.407H179.959L176.183 146.285L166.085 153.441H162.265L154.67 149.227L154.362 148.744L147.514 147.514L153.441 147.119L154.362 148.744L154.67 148.788V149.227L159.762 151.334L161.869 147.953L164.811 147.514L162.265 141.192Z" fill="#2D3E50"/>
<path d="M178.289 144.572H175.347L174.514 146.284L178.289 144.572Z" fill="#2D3E50"/>
<path d="M207.792 141.192L206.519 146.285L203.578 144.178L207.792 141.192Z" fill="#2D3E50"/>
<path d="M217.057 144.572L218.329 147.953L214.948 146.68L217.057 144.572Z" fill="#2D3E50"/>
<path d="M209.065 146.68L209.899 148.787L210.338 150.499L209.899 150.06L208.231 149.226L209.065 146.68Z" fill="#2D3E50"/>
<path d="M182.944 147.514L179.959 152.606L179.124 150.894L182.944 147.514Z" fill="#2D3E50"/>
<path d="M204.016 147.953H205.685L203.578 150.06L204.016 147.953Z" fill="#2D3E50"/>
<path d="M194.313 150.895L195.148 152.607L191.768 155.109L194.313 150.895Z" fill="#2D3E50"/>
<path d="M198.089 157.655L195.982 161.036V158.489L198.089 157.655Z" fill="#2D3E50"/>
<path d="M214.114 158.051L211.567 161.431L212.841 162.704L210.734 162.265L211.567 166.085L209.899 164.812L209.46 164.373L209.899 162.704L210.338 159.763L214.114 158.051Z" fill="#2D3E50"/>
<path d="M202.305 159.324L203.138 163.978L201.031 162.266L202.305 159.324Z" fill="#2D3E50"/>
<path d="M195.149 161.036L195.982 163.978H193.48L195.149 161.036Z" fill="#2D3E50"/>
<path d="M178.29 164.373L189.66 167.358H178.29L172.407 170.695L171.529 169.027H171.134L178.29 164.373Z" fill="#2D3E50"/>
<path d="M122.664 171.134L123.937 176.183L129.82 177.895L124.333 176.622L124.771 182.505L122.664 171.134Z" fill="#2D3E50"/>
<path d="M199.802 172.802L198.529 177.455H196.422L197.256 173.68L199.802 172.802Z" fill="#2D3E50"/>
<path d="M203.578 175.349L202.743 182.944L197.695 187.159L198.529 183.339V185.885L200.636 184.217L199.363 179.563L203.578 175.349Z" fill="#2D3E50"/>
<path d="M187.553 177.456L188.388 179.563L184.612 180.398L187.553 177.456Z" fill="#2D3E50"/>
<path d="M216.661 178.29L216.221 182.11L210.734 184.217L214.114 182.505L216.661 178.29Z" fill="#2D3E50"/>
<path d="M178.29 182.109L178.465 182.724L180.397 185.051L179.563 186.631V186.719L179.43 186.851L177.456 190.539L176.183 186.719L177.85 188.431L179.43 186.851L179.563 186.631L178.465 182.724L178.29 182.504V182.109Z" fill="#2D3E50"/>
<path d="M208.231 188.432L209.899 191.373L207.354 190.934L208.231 188.432Z" fill="#2D3E50"/>
<path d="M217.494 199.363L218.768 201.471L225.486 220.042L223.817 225.486L223.377 217.495L221.27 218.768L219.997 214.115L217.89 215.388L214.114 209.505L215.783 208.627L216.221 208.232L212.841 206.519L214.114 203.183L218.328 204.017L217.494 199.363Z" fill="#2D3E50"/>
<path d="M209.461 200.637V203.578L209.899 203.183L211.568 202.305L209.899 203.578V205.686L212.445 208.232L209.899 207.398L206.125 205.686L208.627 204.851L209.461 200.637Z" fill="#2D3E50"/>
<path d="M205.685 207.793H208.232L209.899 208.627L211.172 209.505L210.734 217.935L209.899 211.613V209.9L205.685 209.505V207.793Z" fill="#2D3E50"/>
<path d="M213.281 216.661L217.495 226.759L214.554 220.042L212.007 218.329L213.281 216.661Z" fill="#2D3E50"/>
<path d="M181.67 219.164L183.338 220.876L176.621 222.545L180.836 221.271L181.67 219.164Z" fill="#2D3E50"/>
<path d="M317.374 219.604L320.315 221.711L316.101 221.272L317.374 219.604Z" fill="#2D3E50"/>
<path d="M245.285 222.149L244.89 225.091L241.949 225.925L238.569 223.379L242.343 224.652L245.285 222.149Z" fill="#2D3E50"/>
<path d="M258.808 222.983L260.475 224.652V225.091L259.642 229.305L256.261 226.759L257.535 225.091L258.808 222.983Z" fill="#2D3E50"/>
<path d="M334.671 227.594L326.375 239.93L326.637 239.843L320.755 248.272L319.043 251.214L320.755 254.594L318.208 257.536L305.564 260.916L307.671 256.701L316.101 254.155L316.935 252.048L313.994 252.882L320.755 248.272L326.375 239.93L316.541 242.784L326.242 239.843L334.671 227.594Z" fill="#2D3E50"/>
<path d="M233.08 228.032L235.627 232.247H232.246L235.627 233.081L230.533 235.188L233.08 230.14L230.533 230.579L233.08 228.032Z" fill="#2D3E50"/>
<path d="M311.885 228.866L313.598 233.081L311.052 231.413L311.885 228.866Z" fill="#2D3E50"/>
<path d="M260.475 231.413L268.466 231.808L271.847 236.462L276.5 235.628L279.441 244.891H296.739L301.349 249.106L303.062 250.774L302.184 252.882V253.76H297.968L293.754 250.379L296.739 254.155L296.3 262.584L293.754 265.526L290.417 259.643L285.763 262.584L287.87 257.974L286.203 252.047L278.607 249.94L277.334 257.096L276.5 254.155L273.954 257.974L276.061 268.906V269.345L275.227 276.501L271.847 279.048L267.631 268.906L268.904 258.37L265.964 259.204L269.344 250.774L271.451 252.487L275.667 248.272L282.823 247.833L280.714 245.33H277.334V243.618L267.237 246.999L264.69 244.891L261.748 246.165L260.475 243.223L253.319 248.667H250.772L251.212 246.165L245.725 247.833L257.095 235.189L259.202 235.628L259.641 232.686V235.189L261.31 233.916L260.475 231.413Z" fill="#2D3E50"/>
<path d="M238.963 234.354L243.178 238.13L238.963 236.462V234.354Z" fill="#2D3E50"/>
<path d="M196.816 240.237L198.529 242.784L199.802 241.51V244.057L204.851 244.452H198.924L197.256 241.115L193.042 240.676L196.816 240.237Z" fill="#2D3E50"/>
<path d="M300.954 241.115L302.622 241.949L299.682 242.345H297.573L299.682 241.51L300.954 241.115Z" fill="#2D3E50"/>
<path d="M182.503 241.511L181.67 243.618L181.23 241.95L174.514 244.057L173.636 242.345L182.503 241.511Z" fill="#2D3E50"/>
<path d="M206.958 250.379L208.232 265.13L204.016 263.418L206.958 261.311V250.379Z" fill="#2D3E50"/>
<path d="M309.778 261.311L309.383 264.691L306.003 268.072L298.846 274.833H290.417L292.919 268.072L294.632 269.74L292.086 271.013L292.919 272.725L297.969 268.072L305.169 265.964H303.457L305.169 264.691L309.778 261.311Z" fill="#2D3E50"/>
<path d="M212.841 268.511L217.056 274.394L213.28 271.452L212.841 268.511Z" fill="#2D3E50"/>
<path d="M147.119 278.608L150.455 284.096L149.226 282.823L148.348 285.369L147.119 278.608Z" fill="#2D3E50"/>
<path d="M155.944 305.17L154.275 309.385L149.621 310.658L155.944 305.17Z" fill="#2D3E50"/>
<path d="M134.474 310.658V313.161L135.703 312.766L137.416 316.102L135.703 313.161L131.489 313.6L134.474 310.658Z" fill="#2D3E50"/>
<path d="M305.169 324.136L306.398 325.804L304.291 326.243L305.169 324.136Z" fill="#2D3E50"/>
<path d="M228.866 332.961V334.673L226.319 334.234L228.866 332.961Z" fill="#2D3E50"/>
<path d="M153.835 360.795L156.382 362.068L154.275 363.736L153.835 360.795Z" fill="#2D3E50"/>
<path d="M321.15 364.57L321.588 367.951L319.481 366.678L321.15 364.57Z" fill="#2D3E50"/>
<path d="M188.826 420.24H191.768L193.042 421.074L188.826 420.24Z" fill="#2D3E50"/>
<path d="M196.422 429.064L201.471 431.172L198.089 430.777L198.529 432.884L196.422 429.064Z" fill="#2D3E50"/>
</g>
<defs>
<clipPath id="clip0">
<rect width="400" height="452.306" fill="white"/>
</clipPath>
</defs>
</svg>
