<svg width="496" height="496" viewBox="0 0 496 496" fill="none" xmlns="http://www.w3.org/2000/svg">
<path d="M288 416H16V64H288V208H304V40C304 17.944 286.056 0 264 0H40C17.944 0 0 17.944 0 40V456C0 478.056 17.944 496 40 496H264C286.056 496 304 478.056 304 456V400H288V416ZM16 40C16 26.768 26.768 16 40 16H264C277.232 16 288 26.768 288 40V48H16V40ZM288 456C288 469.232 277.232 480 264 480H40C26.768 480 16 469.232 16 456V432H288V456Z" fill="#AFDF9D"/>
<path d="M192 448H112V464H192V448Z" fill="#AFDF9D"/>
<path d="M464 368V174.864C477.768 171.288 488 158.872 488 144C488 126.352 473.648 112 456 112C438.352 112 424 126.352 424 144C424 152.256 427.224 159.72 432.376 165.4L375.752 228.312C371.08 225.648 365.752 224 360 224C348.712 224 338.832 229.896 333.128 238.744L247.552 212.416C247.76 210.96 248 209.512 248 208C248 190.352 233.648 176 216 176C198.352 176 184 190.352 184 208C184 213.472 185.504 218.544 187.936 223.056L137.2 261.104C132.224 257.912 126.344 256 120 256C102.352 256 88 270.352 88 288C88 302.872 98.24 315.288 112 318.864V368H80V384H496V368H464ZM104 288C104 279.176 111.184 272 120 272C128.816 272 136 279.176 136 288C136 296.824 128.824 304 120 304C111.176 304 104 296.824 104 288ZM160 368H128V318.864C141.768 315.288 152 302.872 152 288C152 282.528 150.496 277.456 148.064 272.944L160 264V368ZM208 368H176V252L198.8 234.904C201.592 236.696 204.704 238.008 208 238.864V368ZM200 208C200 199.176 207.176 192 216 192C224.824 192 232 199.176 232 208C232 216.824 224.824 224 216 224C207.176 224 200 216.824 200 208ZM256 368H224V238.864C231.04 237.032 237.104 232.896 241.392 227.264L256 231.76V368ZM304 368H272V236.68L304 246.528V368ZM352 368H320V251.448L328.208 253.976C328.16 254.656 328 255.304 328 256C328 270.872 338.232 283.288 352 286.864V368ZM344 256C344 247.176 351.176 240 360 240C368.824 240 376 247.176 376 256C376 264.824 368.824 272 360 272C351.176 272 344 264.824 344 256ZM400 368H368V286.864C381.768 283.288 392 270.872 392 256C392 249.92 390.208 244.296 387.256 239.456L400 225.288V368ZM448 368H416V207.512L445.952 174.232C446.624 174.456 447.304 174.688 448 174.864V368ZM440 144C440 135.176 447.176 128 456 128C464.824 128 472 135.176 472 144C472 152.824 464.824 160 456 160C447.176 160 440 152.824 440 144Z" fill="#AFDF9D"/>
<path d="M176 160V144H159.36C158 134.536 154.272 125.848 148.784 118.528L160.568 106.744L149.256 95.432L137.472 107.216C130.152 101.728 121.464 98 112 96.64V80H96V96.64C86.536 98 77.848 101.728 70.528 107.216L58.744 95.432L47.432 106.744L59.216 118.528C53.728 125.848 50 134.536 48.64 144H32V160H48.64C50.008 169.464 53.728 178.152 59.216 185.472L47.432 197.256L58.744 208.568L70.528 196.784C77.848 202.272 86.536 205.992 96 207.36V224H112V207.36C121.464 206 130.152 202.272 137.472 196.784L149.256 208.568L160.568 197.256L148.784 185.472C154.272 178.144 157.992 169.464 159.36 160H176ZM104 192C81.944 192 64 174.056 64 152C64 129.944 81.944 112 104 112C126.056 112 144 129.944 144 152C144 174.056 126.056 192 104 192Z" fill="#AFDF9D"/>
<path d="M104 160C108.418 160 112 156.418 112 152C112 147.582 108.418 144 104 144C99.5817 144 96 147.582 96 152C96 156.418 99.5817 160 104 160Z" fill="#AFDF9D"/>
</svg>
