<svg width="350" height="372" viewBox="0 0 350 372" fill="none" xmlns="http://www.w3.org/2000/svg">
<g clip-path="url(#clip0)">
<path d="M78.5931 106.34L81.7842 109.23V110.946L78.0211 114.408L78.5931 115.853L74.8601 113.264L72.542 114.709L73.114 116.727L70.7959 114.408L69.9228 115.583L70.7959 117.028L69.0799 121.634L71.3679 125.397L69.3508 127.414L68.2068 132.05L70.2239 128.588L72.2409 129.16L72.542 134.94L69.0799 135.241L68.2068 132.351L65.8888 134.94L65.5877 137.83L65.8888 136.385L67.3338 137.529L66.7618 139.576L65.8888 138.402L64.7448 140.148H66.1898V142.466L62.1256 150.835L56.3455 148.517L52.0104 140.419L54.0274 134.639L56.3455 133.796L58.3625 130.906L60.9011 131.217L59.2659 129.289L58.1127 127.233L57.2719 125.362L56.9764 124.251L56.8285 123.295L57.2409 122.882L57.15 121.889L56.7046 120.596L56.1988 119.21L55.5858 118.006L54.7671 116.378L53.8234 114.658L54.0357 114.251L53.6314 112.689L53.1123 110.979L52.0157 109.056L51.3075 108.759L51.0675 107.856L50.2994 105.893L49.5375 104.165L49.0516 102.468L48.0753 95.7485L48.2583 103.17L48.8604 108.077L47.1143 112.141L45.3682 113.285L41.9061 112.713L41.6352 112.412L39.0161 109.823L36.698 105.187L36.999 99.708L34.41 96.8179L29.2018 96.2459L27.1848 92.1817L26.0107 93.6267L26.5827 95.0718L25.1377 93.6267L24.2947 94.8008L22.2798 90.1963L20.2306 90.7367L18.7855 92.1817L19.9596 93.3558L17.3405 96.2459V97.6909L16.4674 97.0888L17.0695 95.3728L15.8954 96.5168V99.4069L15.0224 99.9789L14.4504 102.598L13.3064 102.869L14.7514 104.615L12.7344 104.314L14.4504 105.488L14.1794 110.696L15.0224 111.84L17.0695 109.823L17.6415 110.967L17.9125 117.048L20.2306 118.764L22.5486 117.921L22.8497 120.209L24.8667 120.51L21.4046 124.274L19.3575 128.609L9.24526 137.28L6.54475 145.784L3.19112 149.983L4.06417 151.428L2.61913 166.752L1.44504 170.214L2.61913 174.85L1.74609 181.503L0 186.982L0.571991 191.317L1.44504 195.653L2.31808 211.548L0.301053 217.328L0 229.189L4.06417 232.08L6.0812 231.207L15.0224 234.368L17.3405 233.224L26.3118 234.97L27.7568 232.08L36.126 234.368L38.143 231.778L41.0331 232.922L43.3512 230.032L46.8132 230.905L47.9873 225.697L49.4324 224.854L50.3054 225.998L56.3565 220.519L54.6405 213.565L50.3054 209.23L49.1313 206.069L49.7033 200.56L51.4494 197.971L41.3341 203.45L37.3001 200.56L35.554 200.861L33.8079 197.67L36.698 191.618L35.2529 190.173L32.9649 195.081L32.6639 188.427L34.1089 186.109L32.3629 179.757L33.5369 171.388L32.3629 170.515L34.1089 170.786L34.41 168.769V168.197L36.427 170.214L37.3001 168.769L38.143 171.388L39.8891 171.659V172.532L39.588 182.948L41.9061 185.838L43.9232 192.19L46.5423 194.779H53.1955V201.734L60.6916 207.785L65.8998 211.849L82.3672 215.582L82.0963 219.345L84.1133 220.218V224.252L84.7455 224.433L85.2573 223.68L85.7691 224.764L87.0034 225.125L86.4314 226.871L88.7194 225.998L87.0034 227.142L89.0204 231.207L93.6566 232.08L92.4825 233.525L87.5754 232.922L93.3555 242.195L98.5637 241.593L100.009 236.987L102.327 237.86L100.581 238.703L100.28 240.148L101.725 240.449L100.28 241.593L101.153 244.483L99.4368 247.975L100.009 265.014L107.505 288.135L108.378 293.042L109.552 297.949L113.586 302.284L115.603 301.441L116.777 299.123L120.51 298.822L119.366 297.949L120.811 295.932L121.383 295.059L123.701 295.36V289.58L124.845 286.991L126.591 283.499L126.019 275.702L127.163 273.384L130.054 273.685L131.8 271.367L136.135 271.096V269.048L144.233 265.014L148.568 260.98L154.348 259.234L157.509 256.344L156.937 253.454L160.7 252.31L161.844 250.263L162.416 253.153L164.463 251.136L165.909 253.454V251.437L166.751 252.882L167.926 251.437L169.07 252.882L169.642 250.263L170.816 252.882L172.261 249.691L172.532 252.31L173.405 251.708L173.134 248.818L176.295 249.119L181.202 260.98L182.376 259.535L182.075 261.251L185.266 262.425L186.41 265.014L183.821 264.713L185.838 267.332L186.711 265.014L188.427 273.113L186.711 279.766L188.427 278.592L187.283 280.338L188.427 279.164L189.872 280.91L190.745 279.164L191.919 280.91L193.063 278.893L195.953 278.321L195.08 276.575L196.525 278.02L198.271 276.575V273.685L200.288 278.02L202.035 277.719V284.944L203.48 290.724L204.052 289.008L206.069 293.915L205.497 297.678L206.942 298.551L204.925 302.585L205.497 305.475L206.37 304.331L206.069 305.475L204.052 313.002L205.768 312.129L211.849 319.053L212.421 319.625L214.438 328.295L217.629 334.075L227.744 339.855L229.761 338.139L231.206 339.283L227.443 333.804V327.151L225.998 324.261L218.773 318.481L213.866 317.036L211.849 310.684L211.277 308.366L208.387 308.667L208.086 305.475V304.03L211.849 296.805V295.059L211.548 291.898H211.849L216.184 291.025L215.612 294.487L219.646 294.216L223.71 296.504L225.727 301.712L227.744 300.568L228.045 303.157L229.189 302.284L234.668 304.903L233.223 310.112H235.541L239.606 307.222L237.859 304.903L241.051 306.349L239.876 304.602L239.304 304.03L240.448 304.602L241.322 305.475L240.75 304.602L240.178 303.729L242.195 304.331L240.448 303.458H242.195L241.894 302.284L244.212 302.886L251.738 298.25L252.31 292.771L253.454 292.47L250.865 281.783L247.975 278.321L242.767 275.431L236.113 267.031L236.986 262.696L239.876 260.679L239.606 258.662L240.75 258.933L239.876 257.488H242.767L244.513 254.899L247.403 254.598L247.674 252.882L250.293 254.899L252.31 253.153L253.755 254.327L252.611 256.916L254.056 259.806L255.501 259.535V254.598L255.772 255.471L260.679 253.454V252.31H263.569V250.865L265.887 251.437L265.616 248.246L266.459 250.263L267.061 248.818L268.205 249.42L267.061 245.657L271.396 248.818L270.794 247.674L273.112 245.928L273.413 247.102L275.129 245.356L276.303 246.229L279.766 244.212L280.639 242.767L279.465 242.195L282.355 241.021L282.656 239.305L283.8 240.148L285.546 237.258L284.101 236.415L287.563 235.813L286.991 234.097H288.737L287.864 232.35H289.58V230.635L291.025 231.477L289.881 228.316L291.326 226.57H289.881L290.754 226.299L289.58 225.125L291.326 225.426H291.898L293.644 219.345L292.47 218.472L296.233 217.027L294.788 215.311L296.233 213.866L294.788 212.993L296.805 212.421L296.534 210.675L294.517 211.849L296.805 209.23L295.962 208.959L293.343 208.086L289.309 209.531L295.089 204.895L290.182 201.734H287.563L294.517 201.433L289.881 198.242L286.419 191.016H285.245L282.084 190.173L281.783 188.728L284.101 185.236L284.974 183.791L284.101 182.948L286.118 182.647L285.847 180.329L289.58 177.74L291.627 178.011V175.422L284.673 175.121L282.355 177.168L280.067 179.456L277.749 174.85H273.684L273.413 171.659L277.447 170.214L280.067 165.879L282.355 161.845L284.974 160.099L286.991 162.417L284.673 167.896L286.991 167.324L284.974 170.786L291.898 163.561L298.25 163.29L297.979 167.053L299.695 167.625L297.678 168.498L297.106 170.786L299.123 170.515L298.551 171.388L300.297 171.087L300.568 170.214L303.759 170.786L306.077 174.549L304.331 173.676L303.458 175.422L304.903 176.867V175.422L305.475 177.74L306.92 177.439L306.077 182.647L307.793 184.393L306.649 184.664L307.793 185.838L309.539 182.948L310.412 184.393V182.346L311.857 183.219L310.984 181.503L313.573 182.075V179.757L315.32 180.058L315.59 175.422L313.875 170.786L308.365 165.006L304.632 163.561L304.331 161.273L309.539 154.318L308.094 150.284L310.111 147.093L309.539 145.648H311.255L311.556 141.614L316.193 143.059L320.528 137.55L322.816 123.1L322.545 111.84V109.522L320.227 105.488L318.782 102.598L317.638 95.9448L313.573 93.0548H315.018L314.748 91.6097L309.81 89.8636L308.967 89.5927L306.649 90.7367L307.221 91.9108L305.475 94.8008L304.632 91.3087L304.03 94.4998L302.013 91.0377L299.996 92.1817L297.979 91.3087L300.869 82.9395L301.441 77.1593L301.742 69.0611L306.649 65.298L307.793 65.9001V64.455L312.128 62.7089L311.255 60.3908L317.036 59.2469L315.892 60.9628L317.036 61.5649L321.371 56.3568L319.926 55.4837L319.083 56.6277L317.909 55.1827L315.59 47.3855L317.909 42.7794L318.21 42.1773L319.354 43.9234L319.926 45.0674L321.1 45.9405V45.6695L321.371 44.7965L322.816 46.5125L321.371 41.0333L322.244 39.8894L319.083 37.5713L319.655 35.8252L321.1 35.5542L320.799 37.2702L325.706 41.6053L325.134 45.0674L327.452 51.1486L329.198 56.6277L328.024 58.9458L330.342 63.582L334.376 69.0611L349.127 82.0664L347.682 74.8412L345.093 72.5232L347.11 70.2352V69.9341L346.809 69.6331L345.364 68.188L345.334 68.1579L344.491 67.3451L343.648 66.743L344.491 61.8359L340.156 57.8018L341.33 55.7848L336.694 53.1657L335.821 51.1486L333.533 52.2926L328.325 44.2245L328.897 43.0504L330.342 43.3514L329.198 39.8894L331.486 41.6053L330.041 39.0163L331.215 35.8252L334.677 36.3972L332.931 34.9521L330.041 28.028L328.596 21.9468L330.643 20.2308L329.198 18.4847L321.672 16.4677L322.816 17.0397L320.227 16.7687L320.799 18.7858L319.926 18.2138L319.083 19.3578L320.799 14.4507L319.655 13.2766L318.21 11.5606L315.018 10.3865V9.24249L318.782 10.9886V8.6705L322.244 8.94145L324.261 7.79745L323.117 6.92442L324.863 7.22546L324.261 6.05137L322.545 6.35241L321.371 4.90737L319.655 4.03434L318.782 4.60633L319.926 2.89034H318.21L319.354 2.31835L317.036 0.572266L313.573 1.4453L312.7 2.89034L313.001 4.03434L316.765 4.90737L310.412 3.76339L303.759 6.05137L298.551 7.79745L297.979 10.6875L296.233 11.5606L295.36 12.1326L295.661 12.4336L297.106 13.5776L299.996 13.8787L300.568 15.0226L297.678 15.8957L295.089 15.3237L295.661 16.7687L291.898 19.9298L292.771 22.2478L289.008 20.8028V21.1039L288.737 20.8028L284.673 19.6588L281.783 21.1039L279.766 24.2649H273.413L273.684 22.8198H270.794L269.65 23.3918L270.523 26.583L268.506 24.5659L269.951 25.439L269.65 23.6929L267.061 25.439L269.349 23.3918L262.124 25.1379L263.298 26.011L262.425 27.155L261.853 28.028L262.726 27.456H262.997V27.7269L263.298 28.3291L263.87 28.901L264.442 29.172L265.315 30.045H265.014L262.726 30.617L263.569 32.3631L260.107 31.4901L258.09 33.2362L255.501 32.0621L256.073 36.6982L249.721 33.2362L251.166 32.3631L249.119 31.7911L249.992 30.9181L247.975 29.473L245.085 30.045L241.894 28.901L241.623 32.6642L237.859 32.9351L235.541 32.6642L235.842 31.2191L231.507 31.4901L229.49 33.5071L227.744 30.9181L227.443 32.0621L226.299 30.9181L224.282 31.2191V32.6642L225.727 32.3631L220.218 34.6812L219.375 36.1262L220.82 32.9351L227.443 26.583L225.426 24.8369L227.172 25.7099V24.5659L223.409 21.6759L218.773 23.1209L219.646 21.6759L216.184 21.3748L218.201 20.2308L215.883 19.0567L213.294 21.3748L212.993 23.3918H211.849H210.705L211.548 24.8369L210.705 23.9939L206.942 25.439L207.514 24.5659L204.624 24.2649L204.052 25.1379H205.497L196.826 26.884L196.254 28.901L195.381 27.7269L195.953 31.4901L187.283 31.2191L186.139 34.9521L188.728 38.4443L186.711 44.4954L186.41 45.3685L185.537 44.2245L185.266 43.3514L186.711 40.7323L184.965 41.9064L188.427 38.1433L185.838 37.5713L184.393 36.1262L182.948 34.6812L181.503 34.9521V36.3972L178.914 35.5542L180.63 39.5883L177.74 38.1433L179.185 32.0621L178.312 34.1092L174.278 36.1262V39.2873L173.134 41.3344L170.816 44.2245L174.278 44.7965L176.295 46.5125L176.024 49.1316L173.977 50.5766L175.723 52.0217L173.405 50.5766L174.85 45.9405H171.689L169.642 49.7036L162.717 54.0387L158.954 50.8476L163.59 51.1486L169.371 46.8135L168.799 44.2245L171.087 40.7323L172.833 37.8422V35.5542L176.596 31.7911L175.422 30.617L173.736 29.7741H175.151L176.295 28.6L174.85 28.3291L173.706 29.7741L173.134 29.473L168.799 33.5071L165.607 34.3802L163.018 38.1433L162.145 39.5883L163.861 40.4613L164.162 42.7794L160.971 45.0674L159.526 40.4613L160.128 41.0333L158.679 39.458L159.321 40.7698L158.161 45.2127L158.113 45.8194L153.544 48.137L146.349 49.8013L139.55 50.9623L133.089 59.7173L132.46 59.7201L131.213 60.192L130.754 61.3371L128.734 63.6147L124.681 67.9342L119.229 73.4368L117.213 73.6599L114.427 75.1636L114.091 76.6548L115.169 78.4579L115.271 79.6543L114.073 80.9903L111.357 81.3899L107.212 80.1078L105.808 80.3278L105.286 81.7667L105.415 86.5373L106.033 86.8001L106.54 87.6487L108.441 87.7453L111.011 87.679L112.184 88.0985L112.76 89.3191L112.228 90.2261L108.049 92.4817L107.586 93.7607L107.07 93.9895L106.838 94.629L107.494 95.9821L109.757 98.076L109.071 98.4364L110.16 100.578L111.046 101.695L110.968 102.463L110.179 103.34L109.231 104.305L106.426 102.454L104.361 103.413L103.532 99.6006L101.866 99.1225L101.521 99.3548L99.6062 96.9593L99.0208 95.8235L98.3284 94.3384L96.8849 93.0441L94.5248 92.8814L90.1061 91.1509L86.7312 90.8179L86.0745 91.3611L83.9287 93.9343L83.1514 99.3976L81.1261 101.59L79.5795 103.176L79.2554 104.752L78.6366 106.348" fill="white"/>
<path d="M294.788 0L292.771 1.44504L293.644 2.01704L295.661 3.76313L295.36 2.58904L294.788 0Z" fill="white"/>
<path d="M208.958 7.49609L205.195 10.6872L206.941 11.5603L209.831 10.9883L210.403 9.54323L208.958 7.49609Z" fill="white"/>
<path d="M204.925 11.2588L204.624 12.4329H206.069L206.942 11.8308L204.925 11.2588Z" fill="white"/>
<path d="M210.102 11.2588L206.068 13.0049L208.386 15.0219L211.849 15.323V12.4329L210.975 11.5598L210.102 12.1318V11.2588Z" fill="white"/>
<path d="M213.866 13.5771L212.15 18.2133L216.756 16.4672L215.04 14.4502L214.167 15.5942L213.866 13.5771Z" fill="white"/>
<path d="M295.661 13.5771L294.517 14.4502L296.534 14.7211L295.661 13.5771Z" fill="white"/>
<path d="M263.569 13.8779L258.662 14.7209L261.281 16.1659L263.569 15.895V13.8779Z" fill="white"/>
<path d="M252.882 15.5947L254.056 17.3408L252.882 17.0398L250.563 16.4678L250.865 19.0568L253.755 20.8029L255.501 19.9298L258.662 18.2139L258.09 17.8827L258.391 15.5947H252.882Z" fill="white"/>
<path d="M260.107 21.6758L259.535 23.9939V24.2648L262.997 23.1208L262.726 22.2478L260.107 21.6758Z" fill="white"/>
<path d="M332.931 45.6689L332.088 47.114L333.533 48.83L332.931 45.6689Z" fill="white"/>
<path d="M348.254 83.2402L349.127 86.9733L349.428 84.6853L348.254 83.2402Z" fill="white"/>
<path d="M316.463 88.7188L315.319 91.0368L317.336 95.0709L321.671 99.1351L324.261 103.47L332.931 119.637L332.359 115.873L334.677 115.603L336.122 117.62L335.55 115.873L330.041 111.839L328.024 106.059L329.77 104.313L332.931 105.758L328.024 101.423L322.545 96.5159L316.463 88.7188Z" fill="white"/>
<path d="M349.127 112.412L347.381 114.158L347.682 119.065L349.127 112.412Z" fill="white"/>
<path d="M346.809 119.637L345.665 119.938V122.527L346.237 124.273L346.809 119.637Z" fill="white"/>
<path d="M333.533 121.383L336.995 130.926L334.376 132.07L335.55 133.214L334.677 135.261L334.376 135.833L336.423 138.994L336.453 139.024L336.995 139.867L339.584 137.278L336.423 136.706L336.122 134.96L338.139 135.532L339.012 133.214L344.22 133.816V129.18L347.381 124.845L346.237 125.718L344.22 121.654L343.919 123.972L341.029 124.845L333.533 121.383Z" fill="white"/>
<path d="M341.029 138.423L339.313 139.296L341.33 141.313L338.44 140.741V143.059V143.932L339.313 146.822L339.885 146.22H340.156L340.758 147.394L341.029 148.538L341.601 154.619L338.139 163.29L336.423 162.417L336.995 160.098L335.55 161.273L336.423 169.341L327.452 173.104L321.973 181.503L322.816 182.948L326.88 182.075V179.185L327.753 180.329L332.088 175.723L335.55 174.278L335.821 178.312L338.711 179.185L339.012 177.74L341.029 174.278L339.012 173.104V171.087L340.156 172.231V171.087L341.601 171.388L340.758 172.833L344.22 171.087L345.093 168.197L346.237 170.214L345.936 167.053H347.682L347.11 164.434H347.682H348.254L348.555 166.18V166.752V167.625L348.826 167.053L350 162.989L348.254 160.971L347.983 157.509L345.665 152.602L347.11 151.428L346.237 145.377L341.029 138.423Z" fill="white"/>
<path d="M333.804 177.168L331.486 177.439L329.77 180.329L328.896 179.757L327.15 184.092L328.324 183.219L329.77 186.109L330.643 184.664L331.787 181.503L334.105 182.075L334.978 178.884L333.804 177.168Z" fill="white"/>
<path d="M323.117 183.219L319.083 186.982L321.1 188.728L319.655 187.855L320.528 190.173L322.545 188.999L321.1 187.283L321.973 186.109L323.689 188.728L323.117 194.779L325.134 195.351V192.762L325.706 195.953L327.452 193.635L327.753 185.838L323.117 183.219Z" fill="white"/>
<path d="M325.133 207.784L323.417 209.53L324.26 209.801L325.133 207.784Z" fill="white"/>
<path d="M298.25 230.032L293.915 238.702V241.021L297.678 245.085L300.297 230.905L298.25 230.032Z" fill="white"/>
<path d="M305.475 259.535L298.852 260.378L299.123 270.493L297.106 270.222H296.805L296.233 271.938L297.678 275.702L298.25 276.876L299.996 278.02V276.274L301.742 276.575L300.869 280.338L303.759 280.609L305.475 278.592L309.238 281.211L308.666 278.02L312.128 281.211L315.018 280.609L315.319 282.355L315.59 280.037L313.874 280.609L312.7 278.592L314.446 277.448L313.302 276.876H311.556L310.984 278.592L309.539 276.274L307.221 277.147L307.522 278.592L304.903 276.876L303.187 273.383L306.92 265.586L305.204 262.124L305.475 259.535Z" fill="white"/>
<path d="M258.09 260.378L251.166 261.552L248.546 264.713L250.563 268.476L252.881 269.048L256.344 266.459L258.662 261.823L258.09 260.378Z" fill="white"/>
<path d="M319.654 280.909L316.192 282.053L319.654 284.672V286.117H316.764L317.336 288.435L320.226 291.898L319.925 290.452L321.099 290.151L319.745 286.388L322.815 286.689L321.37 282.354L319.654 280.909Z" fill="white"/>
<path d="M299.695 281.782L301.742 283.498V283.799L303.458 286.388L304.632 286.117L304.903 282.354L299.695 281.782Z" fill="white"/>
<path d="M311.857 282.927V285.817L313.302 284.372L315.319 285.546L311.857 282.927Z" fill="white"/>
<path d="M306.649 287.262L307.793 293.042L312.128 289.008V287.262L310.984 288.135L306.649 287.262Z" fill="white"/>
<path d="M315.891 287.562L314.145 293.343L313.302 295.932L314.446 293.343L315.891 291.326V287.562Z" fill="white"/>
<path d="M312.429 289.58L311.255 293.614L310.683 294.216L309.539 295.059L312.128 297.678L313.302 296.504L312.7 293.614L313.874 290.152L312.429 289.58Z" fill="white"/>
<path d="M296.805 291.326L297.106 294.216L295.962 293.343L296.233 295.36L294.216 297.678L287.864 305.777L291.326 302.886L294.216 297.949L294.788 297.678L298.25 294.788L296.805 291.326Z" fill="white"/>
<path d="M321.973 291.898L322.545 295.361L319.655 296.234V298.251H317.908L315.319 301.442L315.891 299.395L313.874 298.552L309.238 302.887L308.094 306.62L309.238 307.222L310.984 303.158L314.446 304.031L315.319 302.014L317.908 303.158L317.336 307.493L321.1 308.366L322.244 307.222L322.816 309.239L323.99 307.222L322.545 304.603L323.689 302.014L326.007 305.476L325.706 302.887L327.452 300.84L326.308 296.234H324.863L325.134 293.343L321.973 291.898Z" fill="white"/>
<path d="M316.463 292.169L315.891 292.771L315.319 293.915L316.192 294.487L318.48 293.343L318.209 292.169H316.463Z" fill="white"/>
<path d="M180.63 292.47L179.486 293.614L180.359 294.788L180.63 292.47Z" fill="white"/>
<path d="M123.701 297.678L124.273 297.949L125.718 299.123L124.273 298.551L124.002 299.996L123.129 304.903L122.557 303.729L123.4 308.937L124.574 313.001L129.18 313.272L131.498 310.382L129.481 304.03L125.146 297.678H124.273H123.701Z" fill="white"/>
<path d="M308.666 308.064L308.365 309.239L310.111 308.064H308.666Z" fill="white"/>
<path d="M286.118 311.256L282.656 317.909L280.338 318.782L281.512 319.354L280.639 320.799L274.557 322.816L270.523 328.897L263.298 331.787L262.124 336.966L256.645 336.123L255.501 334.948L252.009 338.712V341.903L253.755 342.746L253.183 344.793L255.2 345.365H253.755L255.501 346.509L254.327 347.683L256.946 346.81L258.09 353.162L264.442 352.018L265.315 354.607L270.523 351.717L273.112 352.018V353.162L276.875 352.289L277.177 355.179L278.893 354.306L284.673 350.272L283.8 349.399L284.673 349.7L286.118 346.81L284.101 345.636L286.69 342.475L287.563 343.047L290.453 340.729L289.881 337.568L292.47 334.678L291.627 333.503L293.915 334.376L296.534 332.931L291.627 330.613L291.025 329.469L292.47 328.897L287.864 324.562L291.025 323.96L289.309 322.244L294.517 320.498L292.47 318.782L297.407 315.892L293.343 315.019L291.627 315.892L291.898 314.146L289.881 315.29L290.453 313.002L287.864 311.256L286.69 313.273L286.118 311.256Z" fill="white"/>
<path d="M183.52 316.162L184.092 317.908L184.694 317.035L183.52 316.162Z" fill="white"/>
<path d="M336.122 316.734L334.978 319.624L336.122 318.782V316.734Z" fill="white"/>
<path d="M333.804 319.053L331.486 324.261L332.66 328.596L335.821 330.342L334.105 328.596L333.533 325.706L337.567 325.405L334.677 324.261L336.694 322.515V320.498L332.359 324.261L334.105 322.515L333.804 319.053Z" fill="white"/>
<path d="M190.173 322.815L191.618 326.579L197.699 330.613L201.733 336.122L206.369 338.41L207.814 343.919L211.848 346.809L213.293 347.953L219.074 356.352L229.761 363.578L232.651 365.595L232.38 364.15L235.27 365.023L235.842 363.849L237.558 365.294L239.304 355.75L237.287 352.86L233.825 352.589L233.223 353.733L233.825 352.017L232.079 351.716L231.778 348.254L226.6 347.08L228.888 343.618L226.871 342.474L225.938 342.956L225.305 342.083L225.727 342.173L224.282 341.029L223.108 340.457L222.837 341.601L216.485 336.122L216.184 338.139L211.848 333.804L210.704 332.931L203.479 329.168L204.051 327.723L200.589 324.562L190.173 322.815Z" fill="white"/>
<path d="M322.545 324.261L317.336 328.897L304.632 330.041L303.458 332.359L302.013 331.787L300.869 333.232V333.804L299.996 336.393L299.123 336.122L300.297 339.012L299.695 338.41L297.979 340.728V343.347L295.36 347.08L295.962 349.699L298.551 349.127L298.25 354.306L297.979 356.353L300.297 356.052L302.314 355.751L301.441 346.508L304.03 344.792H305.475L304.331 347.953L307.522 349.127L306.92 351.717H308.967L309.539 350.271L312.7 349.127L309.81 346.809L311.255 345.063L306.348 341.3L307.793 341.601L315.319 335.249L307.793 337.266L305.475 340.156L303.759 340.457L301.14 338.139L302.013 334.075L319.083 330.041L322.545 324.261Z" fill="white"/>
<path d="M248.847 327.15L247.673 328.023L248.546 329.468L249.72 328.023H249.419L248.847 327.15Z" fill="white"/>
<path d="M332.088 329.168L331.215 330.041L331.787 331.185L333.533 330.342L332.088 329.168Z" fill="white"/>
<path d="M343.347 330.613L340.758 332.058L343.046 331.787L343.347 330.613Z" fill="white"/>
<path d="M332.359 332.63L331.486 334.075L334.376 333.503L333.804 332.931L332.359 332.63Z" fill="white"/>
<path d="M192.19 333.804L195.953 335.52L193.635 334.075V333.804H192.19Z" fill="white"/>
<path d="M205.195 333.804L208.085 335.821L206.64 336.122L205.195 333.804Z" fill="white"/>
<path d="M343.046 335.249L337.868 336.393L333.804 338.711L333.232 340.457L334.376 338.41L335.55 339.283L341.33 337.266L344.792 337.838L343.046 335.249Z" fill="white"/>
<path d="M323.117 336.965L319.925 337.266L319.083 339.012L323.117 336.965Z" fill="white"/>
<path d="M315.892 337.267L313.001 337.568L313.303 338.712H313.573L315.892 337.267Z" fill="white"/>
<path d="M199.716 339.012L198.542 339.283L199.987 341.029L202.034 342.474L202.305 340.728L199.716 339.012Z" fill="white"/>
<path d="M221.964 339.283L222.265 341.029L223.108 340.156L221.964 339.283Z" fill="white"/>
<path d="M232.651 339.855L230.935 340.458L232.079 340.729L232.651 341.301V339.855Z" fill="white"/>
<path d="M328.897 340.156L325.706 341.902L328.325 343.046L330.643 341.3L328.897 340.156Z" fill="white"/>
<path d="M232.38 344.491L232.079 345.364H234.397L232.38 344.491Z" fill="white"/>
<path d="M206.942 348.525L205.497 349.398L208.387 351.415L206.942 348.525Z" fill="white"/>
<path d="M313.573 348.826L312.128 351.144L311.556 353.733L313.874 351.716H312.7L313.573 348.826Z" fill="white"/>
<path d="M239.304 349.971L236.113 350.272L234.969 352.018H237.859L238.732 354.306L242.194 354.908L242.766 353.162L240.448 352.861L239.304 349.971Z" fill="white"/>
<path d="M312.128 349.971L310.412 350.844L310.111 353.162L311.255 352.861L311.857 351.416L312.128 349.971Z" fill="white"/>
<path d="M246.53 352.86L246.229 355.178H247.975L249.119 353.462L246.53 352.86Z" fill="white"/>
<path d="M212.722 355.179L213.866 356.925V355.751L212.722 355.179Z" fill="white"/>
<path d="M328.325 356.353L324.863 356.925L323.99 358.37L328.325 356.353Z" fill="white"/>
<path d="M329.77 358.068L321.099 361.259L314.747 365.866L314.145 367.311L313.573 368.485L315.891 367.913L317.908 366.468L329.77 358.068Z" fill="white"/>
<path d="M321.099 359.514L318.781 360.086L317.908 361.26L320.527 360.387L321.099 359.514Z" fill="white"/>
<path d="M317.908 360.688L316.463 361.259L317.035 361.831L317.908 360.688Z" fill="white"/>
<path d="M311.857 361.53L310.111 363.577L306.077 364.721L301.742 364.42L299.695 366.166L298.852 366.738H299.695L306.649 365.594L312.429 362.403L311.857 361.53Z" fill="white"/>
<path d="M239.003 365.022L237.859 367.31L235.27 368.184L241.05 368.755L240.749 370.201L247.101 370.803L251.436 369.93L259.836 371.074L273.985 370.502L276.574 370.803L276.002 367.611L270.523 368.184L267.904 365.594L261.281 365.022L258.391 367.039L252.008 367.31L249.118 365.594L239.003 365.022Z" fill="white"/>
<path d="M274.858 365.022L268.777 366.166L272.239 366.467L274.858 365.022Z" fill="white"/>
<path d="M291.025 366.167L290.182 366.739L292.47 367.913L287.563 367.612L285.847 369.057L286.991 370.201L296.534 366.739L291.025 366.167Z" fill="white"/>
<path d="M283.799 367.913L282.655 369.93H285.244L285.846 367.913H283.799Z" fill="white"/>
<path d="M278.621 368.485L276.303 368.756L278.892 370.803L281.511 368.756L278.621 368.485Z" fill="white"/>
<path d="M299.424 368.485L295.089 369.93L299.123 370.803H299.424L301.14 371.375L302.886 370.201V369.93L299.695 368.485H299.424Z" fill="white"/>
<path d="M18.2132 92.4824L17.9121 94.1984L18.2132 94.8005L19.0862 93.0544L18.2132 92.4824Z" fill="white"/>
<path d="M11.8611 106.632L11.5601 107.505L13.0051 106.632H11.8611Z" fill="white"/>
<path d="M15.0219 119.366L14.751 122.828L17.34 123.4L17.641 121.955L19.6581 121.654L15.0219 119.366Z" fill="white"/>
<path d="M27.1846 249.42L28.9006 251.437H30.9176L27.1846 249.42Z" fill="white"/>
<path fill-rule="evenodd" clip-rule="evenodd" d="M5.51247 133.774L3.41515 138.831L2.03613 145.697L2.06485 150.783L6.66164 145.669L9.24737 137.279L5.51247 133.774Z" fill="white"/>
<path d="M228.316 29.4736L226.299 29.7747L227.744 30.6176L228.316 29.4736Z" fill="#2D3E50"/>
<path d="M294.788 23.9941L293.915 24.5661L292.199 25.4392L293.072 27.4562L294.216 30.0452L292.199 32.3633L293.915 30.0452L292.771 29.4732L293.072 27.4562L291.898 25.1381L293.915 24.2651L294.788 23.9941Z" fill="#2D3E50"/>
<path d="M276.002 24.8369L276.574 29.172L276.303 28.9011L276.002 24.8369Z" fill="#2D3E50"/>
<path d="M249.992 41.6055L250.865 50.2757L256.645 58.675L266.459 62.408L275.731 60.963L276.574 62.1371L275.731 61.264L269.078 63.0101L272.54 67.0442L271.968 71.6803L264.171 76.8584L271.968 69.3623L269.65 63.853L261.853 61.264L260.679 63.853L257.518 63.5821H260.679L261.552 61.836L256.946 59.5179L250.564 51.1487L249.992 41.6055Z" fill="#2D3E50"/>
<path d="M211.849 28.0283L213.595 29.7744L216.756 29.1723V28.0283L218.773 28.9014L215.311 30.3464L214.167 31.2194L212.421 30.3464L212.571 30.9184H212.722L212.993 32.6645L212.571 30.9184H211.849L210.705 30.6173L211.849 30.0454L212.421 29.7744L211.849 28.0283Z" fill="#2D3E50"/>
<path d="M218.502 36.127H218.773L214.739 39.288L216.184 40.733L214.739 39.589L211.849 40.733L218.502 36.127Z" fill="#2D3E50"/>
<path d="M193.364 45.0674V45.3684L193.063 47.3855L192.19 45.6695L193.063 45.3684L193.364 45.0674Z" fill="#2D3E50"/>
<path d="M186.982 45.3691H189.3L190.173 47.1152L187.283 57.8025L189.872 47.1152L186.982 45.3691Z" fill="#2D3E50"/>
<path d="M195.652 47.3857L198.271 48.2588L193.936 47.9577L195.652 47.3857Z" fill="#2D3E50"/>
<path d="M154.92 49.4033L158.954 50.2764L156.937 50.8484L154.92 49.4033Z" fill="#2D3E50"/>
<path d="M193.936 51.7207L199.144 52.0218L195.08 52.2927L193.936 51.7207Z" fill="#2D3E50"/>
<path d="M149.411 54.0391L147.695 58.3742L147.605 58.4645L147.394 58.9462L144.233 61.2643L146.822 69.9345L157.81 73.6976L164.162 78.0327L165.306 82.9398L166.48 83.8129L168.799 85.2579L173.405 91.9111L173.977 94.8012L171.689 90.165L166.48 84.0838L165.306 82.9398L164.162 78.9058L158.954 74.8416L147.394 71.0785L147.966 73.1256L146.25 76.2866L147.695 73.1256L144.233 61.2643L147.605 58.4645L149.411 54.0391Z" fill="#2D3E50"/>
<path d="M106.933 96.2461L106.662 98.2631L105.217 97.9621L106.933 96.2461Z" fill="#2D3E50"/>
<path d="M26.5827 106.934L25.1377 109.824V108.078L26.5827 106.934Z" fill="#2D3E50"/>
<path d="M97.6907 119.065L99.4368 121.082L101.454 120.812L97.9917 122.257L97.1187 124.274L98.5637 128.037L96.8176 128.609L93.3556 130.626V132.643L90.4655 132.071H89.5924L89.8935 130.054L87.0034 128.88L89.0204 124.274L92.2116 120.812L94.2286 121.956L95.1016 119.938L95.6736 121.384L96.2457 120.51L97.6907 119.065Z" fill="#2D3E50"/>
<path d="M39.8892 125.418L43.3512 125.99L41.0331 127.435L39.8892 125.418Z" fill="#2D3E50"/>
<path d="M44.2243 131.198L45.3683 131.499V131.77L44.5254 135.834L42.7793 136.105L44.2243 131.198Z" fill="#2D3E50"/>
<path d="M32.3628 150.284L33.5369 154.047L35.855 156.335L33.8078 155.191L32.3628 150.284Z" fill="#2D3E50"/>
<path d="M47.9873 195.081L50.5763 195.653L51.7504 195.081H47.9873Z" fill="#2D3E50"/>
<path d="M90.7664 209.531L88.7192 211.819V211.548L90.7664 209.531Z" fill="#2D3E50"/>
<path d="M173.706 233.525L170.244 235.542L169.371 243.039L169.943 235.542L173.706 233.525Z" fill="#2D3E50"/>
<path d="M162.146 237.559L167.354 243.339L163.019 239.877L162.146 237.559Z" fill="#2D3E50"/>
<path d="M189.3 58.9463L189.601 60.9633L191.106 60.7526L191.317 60.6924L191.347 60.7225L191.618 60.6924L193.364 62.1374V65.5995L193.063 62.1374L191.347 60.7225L191.106 60.7526L189.601 61.2644L189.571 61.3246L189.601 61.5654L188.788 63.6126L187.283 67.9176L186.199 70.3561L188.728 74.8417L186.139 70.5066L186.199 70.3561L186.139 70.2357L188.788 63.6126L189.571 61.3246L189.3 58.9463Z" fill="#2D3E50"/>
<path d="M281.21 62.1377L285.847 70.8079H284.673L285.546 70.5069L284.101 67.6168L281.21 62.1377Z" fill="#2D3E50"/>
<path d="M258.09 78.0332L257.217 79.1772L258.662 80.3513L256.374 79.7492L258.09 78.0332Z" fill="#2D3E50"/>
<path d="M256.314 79.8086L256.073 80.3505L253.183 82.9395L252.882 83.2406L248.848 80.9225L244.784 80.3505L249.119 80.9225L253.183 82.9395L256.073 80.0494L256.314 79.8086Z" fill="#2D3E50"/>
<path d="M314.447 86.1309L313.875 86.9738L316.464 88.7199L314.447 86.1309Z" fill="#2D3E50"/>
<path d="M302.585 88.1484V90.1655L304.03 89.0215L302.585 88.1484Z" fill="#2D3E50"/>
<path d="M312.429 94.1992L312.7 94.8013L313.001 95.0723L315.018 96.2464L315.59 99.4074V97.6914L315.892 99.1364L317.337 98.8354L315.892 99.9794L314.145 101.725L311.857 106.362L313.001 107.807H312.128V109.252V113.858V115.303L307.522 121.083L305.475 125.147L301.742 128.308L305.776 122.829L302.585 123.702L306.077 122.528L312.128 113.858L311.857 110.968L310.984 110.396L311.857 109.523V109.252L311.255 106.934L315.018 98.8354L315.32 98.2634L314.748 96.2464L313.001 95.3733L311.857 94.8013L312.429 94.1992Z" fill="#2D3E50"/>
<path d="M154.047 100.28L156.064 100.581L154.348 102.026L152.602 100.852L154.047 100.28Z" fill="#2D3E50"/>
<path d="M217.629 101.425H219.646L220.218 103.472L221.091 110.095L220.519 109.252V110.095L221.964 112.413L221.091 114.731L220.82 112.142L219.375 111.841H220.519L219.375 102.027L216.756 102.298L217.027 104.285L217.057 104.315L217.027 104.345L217.328 106.633L216.485 104.917L217.027 104.345V104.285L214.739 102.298L217.629 101.425Z" fill="#2D3E50"/>
<path d="M236.113 102.599H237.288V109.252L234.668 112.142L236.113 112.714L229.49 117.621L228.316 120.21L225.426 121.655L222.265 120.812L226.6 119.638L229.761 115.875L233.825 110.396L236.113 102.599Z" fill="#2D3E50"/>
<path d="M192.491 103.742L192.762 104.916L189.3 106.06L190.173 108.649L189.029 111.268L188.156 106.632L192.491 103.742Z" fill="#2D3E50"/>
<path d="M212.993 121.655L213.866 123.702L212.421 126.291L212.993 121.655Z" fill="#2D3E50"/>
<path d="M191.618 124.545L192.762 126.592L190.474 127.435H190.173L189.3 125.719L191.618 124.545Z" fill="#2D3E50"/>
<path d="M165.608 125.719L164.464 126.592L166.481 128.308L163.711 129.813L163.32 130.114L164.163 131.499L162.717 131.77L165.307 133.817L164.163 134.66L161.272 131.77L163.32 130.114L163.289 130.054L163.711 129.813L165.608 128.308L163.591 125.99L165.608 125.719Z" fill="#2D3E50"/>
<path d="M263.298 126.863L264.743 127.736L262.425 130.325L263.298 126.863Z" fill="#2D3E50"/>
<path d="M191.046 130.626L193.364 131.77L192.19 132.372L191.046 130.626Z" fill="#2D3E50"/>
<path d="M137.008 132.644L145.678 136.708L148.568 136.407L145.678 137.551L137.851 133.818L133.245 135.835L131.499 140.17L130.625 135.835L133.817 133.818L137.008 132.644Z" fill="#2D3E50"/>
<path d="M311.255 132.944L310.984 136.105L308.967 133.516L311.255 132.944Z" fill="#2D3E50"/>
<path d="M189.029 134.66L190.173 135.533L187.855 137.279L189.029 134.66Z" fill="#2D3E50"/>
<path d="M156.064 138.995V142.186L154.348 140.169L156.064 138.995Z" fill="#2D3E50"/>
<path d="M134.389 152.874H140.169L141.042 153.747L138.152 154.891L134.389 152.874Z" fill="#2D3E50"/>
<path d="M169.07 160.972L169.641 162.116L167.354 161.544L169.07 160.972Z" fill="#2D3E50"/>
<path d="M212.993 185.839L214.438 188.729L211.849 187.555L210.404 186.983L211.849 186.411L212.993 185.839Z" fill="#2D3E50"/>
<path d="M281.211 196.526L281.783 197.67L279.194 199.115L280.067 198.543L278.893 197.67L280.639 198.242L279.766 196.797L281.211 196.526Z" fill="#2D3E50"/>
<path d="M283.529 196.797L283.739 197.128L283.799 197.098V197.188L284.673 198.543L283.529 198.844L283.799 197.188L283.739 197.128L282.083 197.67L283.529 196.797Z" fill="#2D3E50"/>
<path d="M285.847 201.132L282.655 202.005L281.782 206.069L276.002 212.993L275.129 214.137H275.099L274.858 214.438V216.756H277.176L276.574 218.472L273.985 217.027L274.858 214.438L272.54 213.565L267.061 211.849L269.349 211.247L271.968 213.294L272.841 213.565L273.413 213.294H274.858L275.43 212.993H276.002L281.782 205.768L282.655 201.734L285.847 201.132Z" fill="#2D3E50"/>
<path d="M288.436 203.45L290.182 205.196L288.737 206.34L287.864 205.467L287.562 204.895L287.864 204.624L288.436 203.45Z" fill="#2D3E50"/>
<path d="M277.749 204.896L280.338 205.197L278.321 205.769L277.749 204.896Z" fill="#2D3E50"/>
<path d="M285.847 212.12L286.419 213.294L284.402 214.137L285.847 212.12Z" fill="#2D3E50"/>
<path d="M174.278 212.422L177.168 212.693L174.278 214.138V212.422Z" fill="#2D3E50"/>
<path d="M262.726 219.346L260.408 221.092L258.963 220.219L262.726 219.346Z" fill="#2D3E50"/>
<path d="M174.579 220.219L176.295 221.363L174.579 222.236V220.219Z" fill="#2D3E50"/>
<path fill-rule="evenodd" clip-rule="evenodd" d="M200.2 227.531L196.815 226.448Z" fill="#2D3E50"/>
<path d="M200.663 226.928L195.963 225.438L195.528 225.326L200.228 226.816L200.663 226.928Z" fill="#2D3E50"/>
</g>
<defs>
<clipPath id="clip0">
<rect width="350" height="371.375" fill="white"/>
</clipPath>
</defs>
</svg>
