<svg width="1000" height="905" viewBox="0 0 1000 905" fill="none" xmlns="http://www.w3.org/2000/svg">
<path d="M331.224 136.111L334.61 134.507L337.817 133.082L340.846 132.191L343.875 131.657H348.151L351.714 132.726L355.99 135.22L360.445 139.318L364.008 143.594L366.503 148.405L368.641 152.859L372.56 158.026L376.658 160.164L383.607 161.768L392.338 161.233L400.355 160.699H404.632L407.126 159.808L408.017 159.095L408.373 154.997L407.839 151.968L406.77 149.83C406.77 149.83 406.235 148.761 405.523 148.761C404.81 148.761 402.672 148.227 402.672 148.227L400.89 147.514L400.177 145.376L400.89 139.318L402.315 135.398L404.81 130.766L408.551 126.133L411.046 122.926L411.759 120.966L413.362 120.075L417.104 119.719L419.598 119.897H421.202L422.093 118.65L421.202 116.156L419.598 112.592L419.42 108.494L420.133 104.752L421.736 101.189L425.3 97.6256L430.645 94.4185L438.128 92.6367L444.364 91.7459L451.669 91.0331L456.836 90.4986L463.963 89.7859L470.199 88.7169L474.654 86.0443L477.505 82.3027L478.574 78.7392L478.217 74.2849L476.97 71.7904L474.832 69.1178L472.337 66.9798L470.378 66.2671L467.349 66.4452L465.211 66.2671L463.963 65.198L464.142 62.8818L465.923 60.7437L467.883 59.1401L470.378 58.6056L473.05 59.1401L478.039 61.8127L483.741 66.2671L487.304 68.227L489.62 70.7214L490.689 71.7904H492.115L493.006 69.4742L492.827 66.4452L492.471 63.9508L493.718 63.4163L495.144 64.4853L496.569 67.3361L497.816 69.6524L498.173 71.0777L499.776 72.1468H503.161L505.834 73.2158L511.001 75.5321L515.099 77.6702L519.197 78.2047L536.48 78.3828L537.727 78.561L538.618 80.5209L539.687 83.3717L542.003 85.5098L545.032 86.757L549.487 86.9352L555.01 87.1133L558.039 87.4697L560.533 87.826L561.781 86.757L562.137 85.5098L564.453 84.7971L566.948 84.9753L568.907 85.1534L569.442 86.2225L569.976 89.0732L570.689 91.3895L572.827 92.2804L574.787 92.6367L576.747 92.4585L578.172 91.924L579.241 89.7859L579.954 87.6479L581.38 86.5788L584.052 85.5098L586.725 85.3316L589.219 86.0443L591.357 87.1133L592.604 88.7169L592.783 91.7459L592.07 97.091L591.535 102.971L590.466 108.672V110.276L589.754 111.345L588.863 112.236L585.121 112.592L577.282 112.236H572.649L570.511 112.592L569.442 114.018L567.66 122.926L565.878 131.657L562.671 137.893L557.326 145.02L552.872 149.652L550.021 151.968L548.596 153.216L548.952 154.463L553.05 153.75L558.217 154.463L564.631 156.245L572.471 159.63L588.506 169.429L596.881 175.131L602.939 178.873L610.778 182.258L618.083 184.93L624.141 188.138L628.239 191.523L633.584 196.512L639.286 200.788L643.028 203.639L646.769 205.42L648.729 206.489L649.442 209.518L652.293 215.22L654.609 218.071L659.241 221.1L664.23 222.347H674.742L683.117 222.169L687.571 221.991L688.64 221.456L689.709 217.893L690.956 211.3L692.916 203.46L696.658 195.086L700.221 186.534L702.716 178.873L703.785 171.033L704.497 160.521L704.675 148.583L708.061 124.886L708.952 117.581L709.308 112.058V108.494L710.377 106.712L711.268 106L713.584 105.643L715.188 104.931L715.544 102.971L716.435 93.5276L717.86 84.9753L720.711 77.492L723.027 71.6123L725.878 65.7325L727.125 62.3473L728.194 59.8528L728.907 58.4274L730.867 57.3584L734.787 57.5366L737.816 59.4965L740.488 63.2381L742.626 68.9397L743.517 74.6412L743.874 78.7392V83.1935L744.23 84.7971L745.121 85.3316L748.328 84.9753L751.179 84.7971L752.248 84.9753L753.673 85.1534L754.029 86.757L753.139 89.0732L752.426 91.2113V96.3784L752.782 100.12L754.742 105.465L757.415 111.879L760.622 119.363L762.582 125.242L763.829 131.478L764.185 138.427V144.307L764.364 147.336L764.898 149.296L766.858 149.83H771.134L774.698 148.939C774.698 148.939 777.192 148.583 777.905 148.583C778.617 148.583 782.181 148.405 782.181 148.405L785.566 149.296L788.239 151.434L791.09 155.354L794.297 161.055L797.682 166.579L799.107 169.786L799.998 174.775L800.176 182.08L801.067 191.701L801.78 196.868L802.314 200.61L804.453 205.599L806.769 207.915L808.729 210.231L812.47 211.478L813.896 213.26L815.143 219.318L815.856 226.979L816.034 241.411L816.568 249.964L818.35 258.16L822.092 264.396L826.902 270.632L832.96 275.977L837.058 278.471L840.444 279.54H843.116L844.185 279.719L845.076 281.322L845.967 286.311L847.57 288.271L851.134 290.409L857.014 293.794L861.468 296.645L865.388 300.921L869.129 306.266L872.158 314.106L876.969 324.44L881.78 333.527L885.165 341.367L888.728 350.275L890.688 358.828L890.332 361.5L890.867 362.926L891.936 362.391L892.292 359.362L893.005 356.868L894.43 356.333L896.924 357.046L898.172 358.471L899.775 362.926L901.379 367.024L902.626 370.231L903.339 372.012L905.12 372.369L906.189 369.162L905.655 363.46L906.011 359.184L906.546 357.58L908.862 357.046H910.822L911.891 358.115L912.426 361.857L912.604 373.972L913.316 381.456L914.564 389.117L916.702 395.888L919.374 400.164L923.294 404.44L926.501 408.538L930.956 414.418L937.192 424.574L942.537 432.77L946.635 437.758L950.911 441.678L953.049 442.747L955.365 442.925C955.365 442.925 956.969 442.747 956.969 441.856C956.969 440.965 957.147 439.184 957.147 439.184C957.147 439.184 957.325 436.333 958.038 435.977C958.751 435.62 959.82 434.195 959.82 434.195L962.849 433.126H966.234L968.016 434.195L968.55 435.442L967.481 438.293L966.234 441.856L965.699 445.42L963.918 450.23L960.532 452.547L958.216 452.725L956.612 452.903C956.612 452.903 955.365 452.725 955.187 453.616C955.009 454.507 953.94 457.892 953.94 457.892L954.653 464.841L955.365 479.985L955.009 494.774L955.9 506.533L956.612 512.413L955.9 522.925L954.653 532.547L951.624 542.168L947.882 553.393L943.962 561.589L941.29 567.469L939.686 573.705L938.082 585.82L937.013 595.442L935.588 602.569L932.381 609.517L925.076 615.753L917.058 621.277L911.713 625.197L906.546 630.007L903.517 634.105L901.022 638.738L898.528 644.974L896.212 652.101L892.292 660.119L886.056 668.493L882.671 673.125L879.107 678.114L876.256 685.063L870.733 692.012L864.675 697.357L860.399 701.989L858.261 705.553L858.083 711.789L858.261 718.381L856.835 726.577L854.876 733.348L852.737 737.624L848.283 742.435L841.156 744.751L830.822 744.929L817.281 745.464L807.838 747.067L800.533 749.205L792.693 753.66L788.773 755.976L785.922 756.332L783.428 757.045L782.181 759.183L781.646 764.172L781.468 765.954L780.043 766.844H776.657L770.6 764.706L765.076 763.637C765.076 763.637 763.473 762.925 763.473 762.212C763.473 761.499 763.473 758.292 763.473 758.292L761.869 753.838L759.553 751.522L757.771 750.631L756.702 752.234L756.88 756.867L757.058 760.787L756.346 761.856L754.386 761.321L751.179 758.827L747.793 756.154L745.655 753.838L746.19 753.125H748.862L749.753 751.165L750.11 747.245L749.041 744.395L746.012 739.762L744.943 739.228L742.983 741.009L742.805 747.067L742.983 751.878L741.023 755.62L737.459 758.114L735.499 759.717H723.027L713.584 759.183L710.912 757.579C710.912 757.579 707.883 753.66 707.17 753.125C706.457 752.591 703.606 752.056 702.894 751.522C702.181 750.987 699.508 751.165 698.618 750.809C697.727 750.452 691.669 750.453 691.669 750.453L688.284 750.274L681.335 747.424L675.811 744.216L670.466 742.078L664.943 741.544C664.943 741.544 659.954 741.9 659.063 741.366C658.172 740.831 653.718 739.049 653.718 739.049L648.016 732.457L646.413 727.468L646.769 719.807L646.947 710.185L647.304 700.742L645.166 694.15C645.166 694.15 642.315 691.121 641.602 690.586C640.889 690.052 637.504 688.448 637.504 688.448L632.872 687.201L630.199 685.063L630.021 683.459V680.787L630.377 678.649L629.664 677.936L628.061 678.649L622.538 682.034L619.509 683.816C619.509 683.816 617.371 684.885 616.302 684.885C615.232 684.885 612.382 685.063 611.669 685.063C610.956 685.063 608.106 684.707 608.106 684.707L607.393 683.459L607.215 679.896L607.393 675.798L607.749 673.838L610.422 672.056L612.738 669.384L613.807 665.642L613.451 659.94L612.916 654.595L612.738 649.606L612.204 646.577L610.956 645.152L608.462 644.439L606.146 645.33L604.898 645.865L604.008 648.003L604.364 653.17L603.651 657.624L602.939 661.544L601.335 664.217L599.375 666.711L595.99 668.493L592.783 669.027L586.19 669.384L582.805 669.205L581.914 667.78L582.449 665.286L585.478 662.435L589.397 658.515L593.852 654.952L598.662 649.785L601.513 645.865L604.186 640.163L606.146 632.68L606.68 626.266L606.324 619.317L606.858 613.437L606.502 609.161L606.146 606.132L604.72 605.598L603.473 607.914L600.266 613.972L595.633 620.386L586.725 631.076L582.983 635.709L576.569 641.589L572.293 644.974L569.798 646.756L568.017 649.072L566.235 651.566L565.7 654.595L566.057 658.693V661.9L564.631 663.148L560.711 663.326L556.435 660.297L551.981 655.308L548.417 647.29L546.101 638.025L544.141 630.185L541.291 624.484L535.767 618.782L531.669 617.179L527.393 617.001L525.611 615.932L524.542 613.437L525.789 610.586C525.789 610.586 526.859 609.874 527.928 608.983C528.997 608.092 530.6 607.736 530.6 607.736L532.026 607.023L532.738 605.241L532.916 602.569L531.669 601.5L528.284 600.787L525.789 600.965L523.473 600.431C523.473 600.431 522.404 599.183 522.226 598.471C522.048 597.758 522.226 594.373 522.226 594.373L521.87 592.413L518.306 591.7L512.07 591.522L506.012 589.384L499.242 588.493L489.62 588.849H483.741L480.355 587.78L478.217 585.82L477.505 583.504L477.683 580.119C477.683 580.119 478.395 578.693 477.683 577.981C476.97 577.268 475.723 575.843 475.723 575.843L470.556 573.526L464.498 572.101L459.153 572.279L452.56 572.636L448.284 573.705L439.019 576.199L424.231 582.079L415.857 586.177L407.304 590.096L398.574 592.769L391.803 593.838H382.36L377.371 594.195L374.342 595.798L371.313 599.183C371.313 599.183 370.066 601.5 369.175 601.5C368.284 601.5 360.445 603.46 360.445 603.46L348.329 605.419L338.529 608.983L327.839 613.259L318.93 618.426L312.694 622.168L309.309 626.444L306.815 631.433L304.32 636.065L303.073 638.738L302.004 640.341L297.371 641.945L288.463 644.261C288.463 644.261 278.841 644.974 277.238 645.152C275.634 645.33 264.944 645.33 264.944 645.33L257.104 644.618L247.839 645.152L240.89 646.043L231.625 649.606L218.975 655.308L212.205 661.01L207.572 664.395L204.721 667.246L201.514 672.056L197.594 677.223L193.853 679.896L190.467 681.321L183.697 681.499L165.345 681.678L159.109 681.499L151.091 679.718L145.568 675.798L139.51 671.165L136.481 669.205L129.532 668.671L123.652 665.642L120.98 662.791L120.267 660.653L120.445 654.595L120.623 651.566C120.623 651.566 120.089 650.141 120.802 649.428C121.514 648.716 124.9 646.934 124.9 646.934C124.9 646.934 126.86 646.577 127.572 646.043C128.285 645.508 130.779 644.083 130.779 644.083L132.739 641.589V634.64L132.561 630.007L131.314 627.335L130.067 624.306L130.245 618.961L130.423 609.696L130.067 601.856V600.252L128.819 597.58L123.474 591.522L118.664 586.889L114.744 583.326L111.715 580.119L110.646 577.624L109.399 573.883C109.399 573.883 109.042 569.607 108.508 568.716C107.973 567.825 106.37 563.549 106.37 563.549C106.37 563.549 104.232 560.52 103.519 559.807C102.806 559.094 98.8863 554.64 98.8863 554.64L95.8573 551.433L94.6101 549.473C94.6101 549.473 93.5411 547.157 93.7192 546.444C93.8974 545.731 94.2538 541.455 94.2538 541.455L93.7192 537.714L92.1157 536.11L88.1959 534.328L83.9197 531.478L81.2471 529.161L78.7527 526.31L77.1491 522.747L76.6146 517.936L76.4364 513.838L77.1491 511.166L76.6146 509.919L73.4075 509.74C73.4075 509.74 71.2694 509.206 70.3785 508.85C69.4877 508.493 68.0623 507.602 68.0623 507.602L66.1024 504.573V500.654V497.803L65.2115 495.487L63.4298 493.348L57.7282 489.25L51.1358 482.302L47.3942 477.847L45.2561 475.531L44.5434 473.571L44.3652 471.433L45.9688 469.83L48.9978 469.651L52.383 471.077L55.5902 475.353L60.4008 479.807L64.4988 482.836L67.5278 483.727L70.0222 483.371L70.9131 481.767L71.0912 477.847L70.9131 472.146C70.9131 472.146 70.7349 469.651 70.3785 468.939C70.0222 468.226 70.3785 468.226 68.5968 467.157C66.8151 466.088 65.0333 465.732 65.0333 465.732L62.3607 465.91L60.7572 464.663L61.1135 452.369L60.9354 451.3L58.9755 449.874L56.481 449.518L52.2049 446.667L48.6414 441.144L46.147 435.264L45.2561 432.057L46.6815 428.672L48.9978 424.039L49.5323 419.407L50.0668 410.142L49.8886 391.79V383.594L50.4231 377.714L50.7795 375.041L51.314 373.26L52.2049 373.081L53.8084 373.794L55.2338 377.536L56.481 382.168L58.0846 384.663L59.3318 384.841L60.9354 382.525L61.8262 378.248L64.1425 372.012L67.8841 364.529L77.5055 355.442L84.9888 346.534L89.6213 342.079L95.8573 337.269L103.162 333.349L110.111 331.567H118.307L124.543 330.142C124.543 330.142 129.176 327.647 129.888 327.291C130.601 326.935 133.986 323.549 133.986 323.549L138.797 320.342L144.32 318.739L149.309 315.888L153.764 311.612L155.902 308.405L159.822 304.307L164.989 301.456L169.265 300.387L174.966 300.209L182.271 299.674L191.358 297.714L198.663 295.754L205.79 291.478L213.452 285.598L221.47 275.977L225.924 270.275L229.487 262.436L231.269 255.487L231.804 246.578L231.982 236.957L232.873 229.652L235.902 222.347L239.465 217.358L242.494 213.973L244.632 211.835L246.414 211.656L248.196 213.26L252.294 218.783L255.144 221.456L258.173 224.129L260.133 225.554C260.133 225.554 260.846 226.445 261.38 225.554C261.915 224.663 262.449 223.772 262.449 223.772L262.806 217.002L261.915 205.777L262.093 202.035L263.697 200.253L268.329 199.897L275.278 200.253H279.198L280.801 199.363L281.514 195.265L281.692 189.385L281.336 186.712L279.376 186H277.238L275.456 185.287C275.456 185.287 275.1 183.861 275.634 182.971C276.169 182.08 279.019 179.407 279.019 179.407L282.048 176.022L284.008 172.458L284.899 170.32C284.899 170.32 285.256 169.608 285.968 168.895C286.681 168.182 288.997 168.004 288.997 168.004L295.946 168.539H299.153L300.935 167.469L301.113 161.946L300.935 158.383C300.935 158.383 300.757 156.779 301.469 156.245C302.182 155.71 303.251 154.641 303.964 154.641C304.676 154.641 307.527 154.997 307.527 154.997L311.447 155.532L312.872 154.463V151.434L313.051 147.692L316.258 144.841L321.247 141.456L331.224 136.111V136.111Z" fill="white" stroke="#2D3E50"/>
<path d="M421.555 63.5297L423.822 61.3879L426.216 60.506H429.24L431.886 61.3879L436.169 62.2698L441.461 62.3958L445.492 62.1438L448.516 60.7579C448.516 60.7579 449.65 59.6241 450.154 59.4981C450.658 59.3721 451.792 59.2461 451.792 59.2461L453.681 59.75L454.815 61.2619L454.941 64.7895L455.067 67.3093L454.185 69.0731L452.17 71.2149L450.28 71.9708C450.28 71.9708 449.02 72.3488 448.39 72.3488C447.76 72.3488 446.374 72.7268 446.374 72.7268L444.736 74.1126L441.335 76.0024L439.067 76.7584L436.799 76.8843L434.909 76.7584C434.909 76.7584 433.02 76.0024 432.516 75.3725C432.012 74.7426 430.122 72.2228 430.122 72.2228L427.98 70.585L424.956 69.0731L422.563 67.0573L421.555 64.6636V63.5297V63.5297Z" fill="white" stroke="#2D3E50"/>
<path d="M576.141 123.373H574.125L573.117 122.618V120.854L573.621 119.594L574.377 118.964L575.763 119.216L576.519 120.602L576.771 122.366L576.141 123.373V123.373Z" fill="white" stroke="#2D3E50"/>
<path d="M580.425 128.791V125.641L581.307 123.625L582.693 121.735L584.078 120.854L586.22 120.728L587.732 120.98L589.748 121.609L591.008 122.365L591.638 123.499L591.26 124.507L590.126 125.641L589.37 127.027L589.118 128.791L589.874 130.177L591.008 131.436L592.142 132.318L592.772 133.452L592.646 135.468C592.646 135.468 592.52 136.854 592.016 136.98C591.512 137.106 591.008 137.61 590.504 137.61C590 137.61 587.48 137.484 587.48 137.484L584.582 136.098L582.189 134.334L580.551 132.066L580.299 129.799L580.425 128.791V128.791Z" fill="white" stroke="#2D3E50"/>
<path d="M646.947 195.158L648.373 193.019L651.134 191.772L652.916 190.703L654.965 189.901L656.48 189.367L658.083 189.1L659.33 189.367L660.221 190.08L659.687 191.416L658.44 192.129L656.302 193.376L654.342 193.999L652.827 194.979L650.867 196.137L649.709 196.672L648.284 196.85L647.036 196.583L646.502 195.87L646.947 195.158V195.158Z" fill="white" stroke="#2D3E50"/>
<path d="M803.472 790.079L803.294 788.386L803.383 786.872L804.185 785.892H805.165L806.679 786.248L808.639 788.921L810.154 791.326L811.223 793.375L812.203 794.8L813.272 795.335L813.628 796.404L812.648 797.384L811.312 798.364L810.688 799.076L809.619 799.522C809.619 799.522 808.461 799.611 808.105 799.433C807.748 799.255 807.125 798.898 807.125 798.453C807.125 798.007 807.392 796.493 807.392 796.493C807.392 796.493 807.303 795.78 807.125 795.424C806.947 795.067 806.323 793.731 806.323 793.731L805.343 792.306L804.363 791.237L803.828 790.791L803.472 790.079V790.079Z" fill="white" stroke="#2D3E50"/>
<path d="M807.659 803.53L808.372 802.016L808.906 801.036L809.886 800.412H811.846L813.361 800.323L814.519 800.412L815.143 800.501L815.766 801.927L815.41 802.996L813.984 803.619L813.094 804.065L811.757 804.421H809.708L807.748 804.243L807.659 803.53H807.659Z" fill="white" stroke="#2D3E50"/>
<path d="M723.918 787.139L723.65 785.357L724.007 783.13L724.185 780.457C724.185 780.457 724.808 779.745 724.898 779.299C724.987 778.854 724.808 778.408 725.076 777.963C725.343 777.517 726.501 776.805 726.501 776.805C726.501 776.805 727.214 776.894 727.57 776.894C727.927 776.894 728.996 777.785 728.996 777.785L729.352 779.834C729.352 779.834 729.53 780.546 729.53 781.259C729.53 781.972 729.619 783.664 729.53 784.11C729.441 784.555 728.639 785.892 728.639 785.892L727.481 787.139C727.481 787.139 726.947 787.584 726.412 787.673C725.878 787.762 724.809 787.673 724.809 787.673L723.918 787.139V787.139Z" fill="white" stroke="#2D3E50"/>
<path d="M738.413 808.368L739.925 805.722C739.925 805.722 741.059 804.462 741.563 804.462C742.067 804.462 743.327 804.462 743.327 804.462L745.342 806.1L745.846 807.36L748.114 808.116L751.768 808.494L754.288 809.501L757.437 812.147L760.965 814.793L764.115 817.439L767.264 819.202L770.918 819.58C770.918 819.58 773.942 819.706 774.446 819.328C774.95 818.951 775.831 818.195 776.461 817.943C777.091 817.691 779.611 816.935 779.611 816.935L782.887 816.557L785.91 815.927L790.698 815.549L794.982 814.919L797.753 814.289L800.021 812.903L802.289 811.643H804.683L807.328 812.651L808.966 813.659L810.226 816.053L810.478 819.328L810.352 822.73L809.722 826.132L808.462 830.163L807.454 832.809L807.202 836.463L807.328 840.62L807.58 843.14L806.95 844.274L804.557 844.904L803.045 845.03L801.029 846.668L799.643 848.558L798.383 850.447L798.005 852.967L798.635 854.857L800.399 855.613L801.281 856.621V857.629L801.155 859.141L799.517 860.022L799.013 861.66V863.802C799.013 863.802 799.013 865.062 799.013 865.818C799.013 866.574 798.509 867.456 798.509 867.456L798.257 868.086L796.619 868.212L794.856 868.086C794.856 868.086 794.226 866.322 794.352 865.818C794.478 865.314 794.1 863.928 793.848 863.424C793.596 862.92 793.218 862.416 792.588 862.416C791.958 862.416 790.698 862.416 790.698 862.416L789.312 862.794L787.044 864.432L785.532 865.566L783.265 868.464L781.249 870.227L779.611 874.133L778.603 876.149L776.587 877.157L774.194 877.031L771.422 875.897L769.406 874.259L768.272 873.377H767.264C767.264 873.377 766.382 873.377 765.878 873.377C765.374 873.377 764.492 873.503 764.492 873.503L763.611 873.251C763.611 873.251 762.603 873.251 762.225 872.621C761.847 871.991 761.469 871.613 761.469 871.613L759.957 870.731C759.957 870.731 760.083 870.857 758.823 869.975C757.563 869.094 756.051 868.212 756.051 868.212C756.051 868.212 754.917 867.456 754.792 866.952C754.666 866.448 752.65 863.802 752.65 863.802L750.634 859.896L749.626 856.747L749.374 853.597L749.5 850.699L748.744 848.558L747.232 847.046C747.232 847.046 745.594 846.416 745.342 845.786C745.09 845.156 744.838 843.896 744.838 843.896L745.72 842.636C745.72 842.636 746.476 842.006 747.232 841.754C747.988 841.502 748.24 841.25 748.24 841.25C748.24 841.25 748.492 840.872 748.492 840.116C748.492 839.36 748.492 838.353 748.492 838.353L747.484 836.085C747.484 836.085 747.232 834.825 747.106 834.321C746.98 833.817 744.712 829.659 744.712 829.659L742.067 827.644L740.051 825.376L738.917 823.99L738.287 820.336L738.413 815.927L738.539 810.887L738.413 808.368V808.368Z" fill="white" stroke="#2D3E50"/>
<path d="M785.658 875.393L784.398 874.259L784.146 872.495L784.524 870.606L785.028 869.85L786.54 870.228L787.296 871.613V873.251L787.044 874.511L786.414 875.519L785.658 875.393V875.393Z" stroke="#2D3E50"/>
<path d="M578.283 679.356L580.551 676.836L582.189 674.947L584.457 673.561L586.724 673.309L588.11 672.679H591.386L594.662 672.553L596.803 673.183C596.803 673.183 598.315 673.561 599.575 673.939C600.835 674.317 601.213 674.443 601.717 674.443C602.221 674.443 603.229 674.443 603.229 674.443L604.615 674.82L605.245 675.576L604.867 677.34C604.867 677.34 604.237 678.852 603.733 679.104C603.229 679.356 601.969 679.986 601.969 679.986L600.583 681.12C600.583 681.12 601.213 681.75 600.205 682.002C599.197 682.254 598.567 682.38 598.567 682.38L597.181 681.624V680.994L595.544 680.868H594.032L592.898 682.002L587.102 681.75L581.811 681.876L579.669 681.12L578.031 680.49L577.779 679.986L578.283 679.356V679.356Z" fill="white" stroke="#2D3E50"/>
</svg>
