<svg width="36" height="36" viewBox="0 0 36 36" fill="none" xmlns="http://www.w3.org/2000/svg">
<path d="M26.1937 9.5432C25.1433 9.5432 24.1848 9.94412 23.4632 10.6007C22.7415 9.94412 21.783 9.5432 20.7328 9.5432C19.6816 9.5432 18.7222 9.9443 18 10.601C17.2783 9.9443 16.3198 9.5432 15.2695 9.5432C14.7777 9.5432 14.3062 9.63101 13.8696 9.79173V4.0628C13.8698 1.8226 12.0479 0 9.80859 0C7.56803 0 5.74508 1.8226 5.74508 4.0628V23.7465C5.74508 30.5031 11.2423 35.9998 17.9995 35.9998C24.7571 35.9998 30.2549 30.5031 30.2549 23.7465V13.6044C30.2549 11.3649 28.433 9.5432 26.1937 9.5432ZM27.5939 23.7465C27.5939 29.0357 23.2899 33.3388 17.9995 33.3388C12.7096 33.3388 8.40607 29.0357 8.40607 23.7465V4.0628C8.40607 3.28987 9.0353 2.66099 9.80859 2.66099C10.5806 2.66099 11.2088 3.28987 11.2088 4.0628V13.6042V16.5226C11.2088 17.2574 11.8045 17.8531 12.5393 17.8531C13.2741 17.8531 13.8698 17.2574 13.8698 16.5226V13.6044C13.8698 12.8324 14.4976 12.2042 15.2696 12.2042C16.0413 12.2042 16.6691 12.8324 16.6691 13.6044V16.5228C16.6691 17.2576 17.2649 17.8533 17.9996 17.8533C18.7344 17.8533 19.3301 17.2576 19.3301 16.5228V13.6044C19.3301 12.8324 19.9596 12.2042 20.733 12.2042C21.5049 12.2042 22.1329 12.8324 22.1329 13.6044V16.5228C22.1329 17.2576 22.7286 17.8533 23.4634 17.8533C24.1982 17.8533 24.7939 17.2576 24.7939 16.5228V13.6044C24.7939 12.8324 25.4219 12.2042 26.1941 12.2042C26.9661 12.2042 27.5943 12.8324 27.5943 13.6044V23.7465H27.5939Z" fill="white"/>
</svg>
