<svg width="200" height="200" viewBox="0 0 200 200" fill="none" xmlns="http://www.w3.org/2000/svg">
<path d="M69.1619 34.1958L65.4639 26.8594L61.417 28.9088L65.1372 36.2676C66.4515 35.525 67.8104 34.8493 69.1619 34.1958Z" fill="black"/>
<path d="M26.9384 101.504C26.9384 99.9745 27.0795 98.482 27.1612 96.9746H16.7803V106.041H27.1612C27.0721 104.534 26.9384 103.041 26.9384 101.504Z" fill="black"/>
<path d="M106.357 26.8487V16.4678H97.29V26.8487C98.7974 26.7596 100.29 26.6259 101.827 26.6259C103.357 26.6185 104.857 26.7596 106.357 26.8487Z" fill="black"/>
<path d="M178.674 67.2583L176.625 63.2188L168.435 67.3845C169.133 68.7211 169.808 70.0725 170.41 71.4685L178.674 67.2583Z" fill="black"/>
<path d="M141.48 38.0609C142.773 38.8629 144.035 39.6945 145.253 40.5707L149.797 33.5165L145.988 31.0586L141.48 38.0609Z" fill="black"/>
<path d="M30.54 57.3382L37.9953 62.4767C38.7898 61.1846 39.5844 59.9 40.4532 58.6599L33.1241 53.5957L30.54 57.3382Z" fill="black"/>
<path d="M132.642 169.717L138.181 180.692L142.228 178.643L136.726 167.757C135.396 168.462 134.023 169.093 132.642 169.717Z" fill="black"/>
<path d="M160.987 147.349L170.544 153.943L173.113 150.215L163.69 143.718C162.844 144.958 161.901 146.153 160.987 147.349Z" fill="black"/>
<path d="M176.506 96.9746C176.602 98.4894 176.736 99.982 176.736 101.504C176.736 103.041 176.588 104.534 176.506 106.041H186.879V96.9746H176.506Z" fill="black"/>
<path d="M97.2974 176.176V186.564H106.364V176.176C104.864 176.28 103.364 176.413 101.842 176.413C100.297 176.406 98.8048 176.257 97.2974 176.176Z" fill="black"/>
<path d="M53.8569 174.041L57.6737 176.507L64.2824 166.252C62.9681 165.487 61.6612 164.73 60.4137 163.891L53.8569 174.041Z" fill="black"/>
<path d="M24.9883 140.313L27.0452 144.345L37.1736 139.199C36.4088 137.892 35.6737 136.57 34.9979 135.219L24.9883 140.313Z" fill="black"/>
</svg>
