<svg width="400" height="400" viewBox="0 0 400 400" fill="none" xmlns="http://www.w3.org/2000/svg">
<path fill-rule="evenodd" clip-rule="evenodd" d="M284.898 67.3016L235.197 117.004L243.901 125.701L252.604 134.397L302.4 84.5996L352.196 34.8026L343.601 26.2006C338.874 21.4706 334.915 17.5996 334.803 17.5996C334.691 17.5996 312.233 39.9656 284.898 67.3016ZM35.2002 186.837C22.0882 189.378 16.0582 205.339 24.1042 216.2C30.2932 224.553 45.5052 226.121 52.2982 219.106L53.5962 217.766L51.6212 215.821L49.6472 213.876L48.1522 215.188C39.8542 222.474 26.6142 216.208 26.6262 205C26.6392 193.646 39.5702 187.618 48.3882 194.856L49.7772 195.996L51.6882 194.114L53.5982 192.232L52.1502 190.748C48.7562 187.273 41.5402 185.607 35.2002 186.837ZM67.6002 186.837C58.0952 188.679 51.6602 197.992 53.0802 207.85C55.6792 225.893 81.5912 229.505 89.5062 212.929C96.2742 198.754 83.6552 183.724 67.6002 186.837ZM200 186.837C190.495 188.679 184.06 197.992 185.48 207.85C188.079 225.893 213.991 229.505 221.906 212.929C228.674 198.754 216.055 183.724 200 186.837ZM358 186.812C352.171 188.034 348.612 191.39 348.123 196.124C347.495 202.212 350.673 205.14 360.536 207.558C367.735 209.322 369.6 210.525 369.6 213.4C369.6 218.92 358.292 220.102 350.758 215.369L349.317 214.464L348.167 216.87C346.833 219.66 346.855 219.7 350.653 221.419C360.5 225.877 373.019 223.122 375.143 216.031C377.32 208.768 374.114 205.215 362.839 202.397C355.959 200.678 354.581 199.845 354.15 197.15C353.313 191.904 363.981 189.646 370.75 193.637C371.493 194.074 372.151 194.38 372.213 194.316C372.275 194.252 372.782 193.167 373.339 191.906L374.351 189.611L373.476 188.994C370.821 187.122 362.27 185.916 358 186.812ZM95.6002 204.982V223.2H98.3942H101.188L101.294 210.9L101.4 198.6L107.532 208.7L113.665 218.8L115.132 218.79L116.6 218.779L122.6 208.5L128.6 198.221L128.706 210.71L128.811 223.2H131.87H134.929L134.664 212.335C134.519 206.359 134.4 198.169 134.4 194.135V186.8H131.861H129.323L122.383 198.807C118.565 205.411 115.291 210.764 115.105 210.702C114.92 210.64 111.647 205.282 107.832 198.795L100.897 187L98.2482 186.882L95.6002 186.763V204.982ZM142 204.982V223.2H144.794H147.588L147.694 210.9L147.8 198.6L153.932 208.7L160.065 218.8L161.532 218.79L163 218.779L169 208.5L175 198.221L175.106 210.71L175.211 223.2H178.27H181.329L181.064 212.335C180.919 206.359 180.8 198.169 180.8 194.135V186.8H178.261H175.723L168.783 198.807C164.965 205.411 161.691 210.764 161.505 210.702C161.32 210.64 158.047 205.282 154.232 198.795L147.297 187L144.648 186.882L142 186.763V204.982ZM228 205.035V223.27L238.3 223.123C250.072 222.955 252.299 222.482 256.598 219.236C264.667 213.145 265.49 199.317 258.208 192.2C253.715 187.809 249.832 186.817 237.1 186.807L228 186.8V205.035ZM266.8 205V223.2H269.8H272.8V205V186.8H269.8H266.8V205ZM274.481 189.3L274.6 191.8L280.7 191.91L286.8 192.021V207.61V223.2H289.8H292.8V207.6V192H298.8H304.8V189.4V186.8H289.581H274.362L274.481 189.3ZM306.4 205V223.2H309.4H312.4V205V186.8H309.4H306.4V205ZM320 205V223.2H333.4H346.8V220.6V218H336.4H326V212.6V207.2H334.8H343.6V204.6V202H334.8H326V197V192H336H346V189.4V186.8H333H320V205ZM76.9052 192.669C85.5092 195.372 87.9922 208.208 81.1492 214.609C72.6032 222.602 59.0232 216.704 59.0232 205C59.0232 195.419 67.3592 189.671 76.9052 192.669ZM209.305 192.669C217.909 195.372 220.392 208.208 213.549 214.609C205.003 222.602 191.423 216.704 191.423 205C191.423 195.419 199.759 189.671 209.305 192.669ZM250.002 193.233C260.218 198.026 259.296 213.867 248.609 217.168C246.392 217.853 244.862 218 239.958 218H234V204.967V191.934L240.9 192.067C247.336 192.191 247.948 192.269 250.002 193.233Z" fill="#FAFAFA"/>
<path fill-rule="evenodd" clip-rule="evenodd" d="M192.767 55.3621C192.675 55.4511 190.251 55.7321 187.379 55.9861C180.825 56.5671 171.715 58.2071 164.4 60.1231C161.026 61.0071 154.803 63.0291 151.2 64.4131C149.99 64.8781 148.46 65.4511 147.8 65.6871C147.14 65.9231 146.42 66.2481 146.2 66.4091C145.98 66.5701 145.35 66.8381 144.8 67.0051C141.237 68.0841 127.189 75.8251 120.6 80.3401C108.136 88.8801 93.5198 102.945 86.0368 113.6C76.5838 127.06 70.9108 137.577 66.6188 149.6C65.7948 151.91 64.9768 154.16 64.8008 154.6C64.1868 156.141 62.8698 160.614 62.5908 162.106L62.3088 163.612L74.5668 163.506L86.8248 163.4L88.3698 158.8C111.332 90.4411 188.906 57.8981 254.086 89.2811L260.043 92.1491L268.022 84.1781C276.419 75.7881 276.517 75.6611 275.097 74.9521C274.604 74.7051 271.41 73.0761 268 71.3311C260.5 67.4941 257.493 66.1561 252 64.2131C249.69 63.3961 247.44 62.5821 247 62.4041C245.506 61.8011 241.013 60.4981 237.4 59.6201C235.42 59.1391 233.17 58.5771 232.4 58.3721C231.63 58.1661 229.29 57.7191 227.2 57.3771C223.599 56.7891 221.557 56.5351 212.923 55.5991C209.403 55.2171 193.113 55.0261 192.767 55.3621ZM288.669 98.3311C284.341 102.663 280.8 106.36 280.8 106.546C280.8 106.733 282.482 108.477 284.537 110.422C298.389 123.532 309.214 140.55 315.452 159.025L316.996 163.6H329.298C339.275 163.6 341.6 163.499 341.6 163.067C341.6 162.474 340.512 158.833 338.712 153.4C331.473 131.549 317.362 109.672 300.434 94.0511L296.537 90.4551L288.669 98.3311ZM243.6 125.8C248.326 130.53 252.283 134.4 252.393 134.4C252.503 134.4 248.726 130.53 244 125.8C239.274 121.07 235.317 117.2 235.207 117.2C235.097 117.2 238.874 121.07 243.6 125.8ZM134.576 197.8C134.576 203.96 134.632 206.424 134.699 203.276C134.767 200.127 134.767 195.087 134.699 192.076C134.631 189.064 134.576 191.64 134.576 197.8ZM180.976 197.8C180.976 203.96 181.032 206.424 181.099 203.276C181.167 200.127 181.167 195.087 181.099 192.076C181.031 189.064 180.976 191.64 180.976 197.8ZM272.984 205C272.984 215.12 273.036 219.203 273.1 214.073C273.163 208.942 273.163 200.662 273.1 195.673C273.036 190.683 272.984 194.88 272.984 205ZM304.931 189.4C304.933 190.94 305.005 191.521 305.092 190.691C305.179 189.861 305.177 188.601 305.089 187.891C305 187.181 304.929 187.86 304.931 189.4ZM312.584 205C312.584 215.12 312.636 219.203 312.7 214.073C312.763 208.942 312.763 200.662 312.7 195.673C312.636 190.683 312.584 194.88 312.584 205ZM234.179 205C234.179 212.26 234.233 215.286 234.299 211.725C234.365 208.164 234.366 202.224 234.299 198.525C234.233 194.826 234.179 197.74 234.179 205ZM286.582 207.6C286.582 216.29 286.635 219.845 286.7 215.5C286.764 211.155 286.764 204.045 286.7 199.7C286.635 195.355 286.582 198.91 286.582 207.6ZM326.155 197C326.156 199.86 326.22 200.978 326.297 199.483C326.374 197.989 326.374 195.649 326.296 194.283C326.218 192.918 326.155 194.14 326.155 197ZM101.2 211C101.2 217.783 101.285 223.248 101.389 223.145C101.658 222.875 101.692 199.158 101.423 198.89C101.3 198.767 101.2 204.217 101.2 211ZM147.6 211C147.6 217.783 147.685 223.248 147.789 223.145C148.058 222.875 148.092 199.158 147.823 198.89C147.7 198.767 147.6 204.217 147.6 211ZM343.731 204.6C343.733 206.14 343.805 206.721 343.892 205.891C343.979 205.061 343.977 203.801 343.889 203.091C343.8 202.381 343.729 203.06 343.731 204.6ZM26.5138 205C26.5168 206.1 26.5948 206.503 26.6868 205.895C26.7788 205.286 26.7768 204.386 26.6818 203.895C26.5868 203.403 26.5108 203.9 26.5138 205ZM58.9138 205C58.9168 206.1 58.9948 206.503 59.0868 205.895C59.1788 205.286 59.1768 204.386 59.0818 203.895C58.9868 203.403 58.9108 203.9 58.9138 205ZM191.314 205C191.317 206.1 191.395 206.503 191.487 205.895C191.579 205.286 191.577 204.386 191.482 203.895C191.387 203.403 191.311 203.9 191.314 205ZM256.914 205C256.917 206.1 256.995 206.503 257.087 205.895C257.179 205.286 257.177 204.386 257.082 203.895C256.987 203.403 256.911 203.9 256.914 205ZM326.158 212.6C326.158 215.68 326.221 216.887 326.297 215.282C326.373 213.678 326.373 211.158 326.296 209.682C326.219 208.207 326.157 209.52 326.158 212.6Z" fill="#6A62D8"/>
<path fill-rule="evenodd" clip-rule="evenodd" d="M62.002 234.7C62.011 235.887 65.092 246.015 66.249 248.66C66.552 249.354 66.8 250.198 66.8 250.537C66.8 250.876 66.96 251.252 67.156 251.373C67.351 251.494 67.634 252.083 67.785 252.682C68.034 253.676 68.374 254.508 70.279 258.8C84.398 290.595 114.009 319.852 144.639 332.271C145.277 332.53 146.895 333.195 148.234 333.748C173.91 344.364 209.559 346.895 236.2 339.992C237.96 339.536 240.12 338.983 241 338.763C283.018 328.267 321.199 292.918 337.436 249.482C339.046 245.173 342 235.645 342 234.758C342 234.538 336.739 234.432 328.979 234.495L315.957 234.6L313.844 240.2C287.586 309.784 204.023 338.445 139.8 299.893C116.308 285.792 96.739 261.554 88.617 236.5L87.936 234.4H74.968C67.836 234.4 62.001 234.535 62.002 234.7Z" fill="#160E7D"/>
</svg>
