<svg width="400" height="400" viewBox="0 0 400 400" fill="none" xmlns="http://www.w3.org/2000/svg">
<path fill-rule="evenodd" clip-rule="evenodd" d="M284.898 67.3016L235.197 117.004L243.901 125.701L252.604 134.397L302.4 84.5996L352.196 34.8026L343.601 26.2006C338.874 21.4706 334.915 17.5996 334.803 17.5996C334.691 17.5996 312.233 39.9656 284.898 67.3016ZM170.488 172.033C140.505 175.613 139.61 217.98 169.4 223.473C177.066 224.886 187.434 222.605 192.5 218.39L194 217.142V207.371V197.6H189.8H185.6V205.592V213.584L184.013 214.394C167.056 223.044 149.507 205.145 158.465 188.338C163.63 178.647 178.802 176.261 187.172 183.822L188.845 185.334L191.647 182.567L194.448 179.8L192.376 177.882C187.445 173.316 178.888 171.03 170.488 172.033ZM271.4 172.015C260.172 173.189 253.978 179.818 255.271 189.275C256.177 195.904 259.765 198.45 272.631 201.596C282.437 203.993 284.795 205.553 284.799 209.641C284.805 217.572 268.598 219.006 258.119 212.002L256.839 211.146L255.597 213.606C253.345 218.067 253.34 217.821 255.709 219.383C268.379 227.741 289.727 224.11 292.86 213.065C295.625 203.32 291.125 198.155 276.711 194.531C265.861 191.803 263.6 190.408 263.6 186.445C263.6 179.166 276.998 176.541 286.563 181.945L288.582 183.085L290.091 179.696C290.921 177.832 291.6 176.24 291.6 176.159C291.6 174.091 278.08 171.317 271.4 172.015ZM65.6001 197.761V223.2H78.1651C96.5151 223.2 101.29 221.971 107.611 215.622C119.12 204.061 115.861 182.569 101.549 175.652C95.8041 172.875 94.7051 172.72 79.3001 172.509L65.6001 172.321V197.761ZM126.8 197.8V223.2H131H135.2V197.8V172.4H131H126.8V197.8ZM208.8 197.796V223.2H227.4H246V219.6V216H231.6H217.2V208.6V201.2H229.6H242V197.6V194H229.6H217.2V186.8V179.6H231.216H245.231L245.116 176.1L245 172.6L226.9 172.496L208.8 172.392V197.796ZM296 175.996V179.6H304.4H312.8V201.4V223.2H317H321.2V201.4V179.6H329.816H338.431L338.316 176.1L338.2 172.6L317.1 172.496L296 172.393V175.996ZM94.3311 180.744C110.19 186.294 109.961 209.979 94.0001 215.018C92.2851 215.56 89.8391 215.754 82.9001 215.9L74.0001 216.087V197.8V179.513L82.9001 179.686C90.7871 179.838 92.0881 179.959 94.3311 180.744Z" fill="#FAFAFA"/>
<path fill-rule="evenodd" clip-rule="evenodd" d="M189 55.8292C185.7 56.1182 182.1 56.5352 181 56.7542C179.9 56.9742 178.19 57.2622 177.2 57.3942C173.994 57.8222 163.712 60.1732 162.2 60.8232C161.76 61.0122 160.59 61.3622 159.6 61.6002C158.61 61.8382 157.44 62.1892 157 62.3802C156.56 62.5712 154.31 63.3942 152 64.2092C147.028 65.9642 146.683 66.1122 139.221 69.6942C110.482 83.4862 87.39 106.268 73.01 135.016C68.968 143.096 69.071 142.86 66.783 149.2C65.87 151.73 64.979 154.16 64.803 154.6C64.192 156.126 62.871 160.608 62.592 162.1L62.311 163.6H74.522H86.734L88.224 159.1C104.437 110.148 151.18 76.6582 202.845 76.9792L206.291 77.0002L206.645 66.0992L207 55.1982L201 55.2502C197.7 55.2792 192.3 55.5392 189 55.8292ZM147.301 197.8C147.305 198.68 147.387 198.993 147.483 198.495C147.579 197.998 147.575 197.278 147.475 196.895C147.375 196.513 147.296 196.92 147.301 197.8ZM62.221 236.1C62.502 237.035 63.127 239.15 63.61 240.8C64.724 244.602 65.549 247.06 66.249 248.66C66.552 249.354 66.8 250.096 66.8 250.31C66.8 250.646 67.556 252.567 68.804 255.4C68.998 255.84 69.541 257.1 70.011 258.2C83.65 290.119 111.531 317.711 145 332.413C171.787 344.179 208.321 347.216 236.2 339.992C237.96 339.536 240.107 338.983 240.97 338.764C262.319 333.335 286.34 319.242 303.621 302.006C308.612 297.029 317.246 287.102 317.178 286.42C317.139 286.039 297.486 271.4 297.013 271.4C296.764 271.4 294.921 273.3 292.916 275.622C233.2 344.792 119.754 323.896 89.208 238.1L87.891 234.4H74.8H61.71L62.221 236.1Z" fill="#33FBC9"/>
<path fill-rule="evenodd" clip-rule="evenodd" d="M192.9 55.4762C193.285 55.5762 193.915 55.5762 194.3 55.4762C194.685 55.3752 194.37 55.2932 193.6 55.2932C192.83 55.2932 192.515 55.3752 192.9 55.4762ZM207.068 55.5002C206.969 55.6652 206.756 60.6012 206.596 66.4682L206.304 77.1372L208.052 77.3502C209.013 77.4682 211.33 77.6682 213.2 77.7952C225.941 78.6592 240.549 82.8002 254.519 89.5062L260.038 92.1552L268.019 84.1812C276.425 75.7822 276.514 75.6672 275.097 74.9392C268.806 71.7102 259.138 66.8972 258.2 66.5292C257.54 66.2702 256.28 65.7622 255.4 65.4002C254.52 65.0392 252.45 64.2912 250.8 63.7392C249.15 63.1882 247.44 62.5872 247 62.4042C242.064 60.3532 228.147 57.2502 220 56.3832C217.91 56.1612 214.76 55.8032 213 55.5892C209.168 55.1222 207.311 55.0942 207.068 55.5002ZM198.1 77.0762C198.485 77.1762 199.115 77.1762 199.5 77.0762C199.885 76.9752 199.57 76.8932 198.8 76.8932C198.03 76.8932 197.715 76.9752 198.1 77.0762ZM203.905 77.0832C204.402 77.1792 205.122 77.1752 205.505 77.0752C205.887 76.9752 205.48 76.8962 204.6 76.9012C203.72 76.9052 203.407 76.9872 203.905 77.0832ZM193.3 77.4762C193.685 77.5762 194.315 77.5762 194.7 77.4762C195.085 77.3752 194.77 77.2932 194 77.2932C193.23 77.2932 192.915 77.3752 193.3 77.4762ZM288.473 98.5272L280.404 106.603L283.628 109.552C297.611 122.342 309.131 140.274 315.461 159.1L316.973 163.6H329.331H341.689L341.41 162.1C337.679 142.011 319.449 111.664 300.659 94.2642L296.542 90.4512L288.473 98.5272ZM314.877 237.309C311.803 246.934 303.808 261.931 297.715 269.5C296.962 270.435 296.545 271.2 296.787 271.2C297.029 271.2 301.607 274.522 306.961 278.582C312.315 282.643 316.876 286.018 317.098 286.082C318.539 286.502 329.691 268.08 333.976 258.2C334.453 257.1 335.006 255.84 335.204 255.4C337.445 250.423 341.882 236.88 341.986 234.7C341.994 234.535 336.105 234.404 328.9 234.409L315.8 234.418L314.877 237.309Z" fill="#17FB73"/>
</svg>
