<svg width="400" height="400" viewBox="0 0 400 400" fill="none" xmlns="http://www.w3.org/2000/svg">
<path fill-rule="evenodd" clip-rule="evenodd" d="M193.167 55.3637C193.075 55.4547 190.57 55.7327 187.6 55.9817C178.346 56.7597 162.899 59.9997 157 62.4007C156.56 62.5797 154.31 63.3937 152 64.2087C147.028 65.9637 146.683 66.1117 139.221 69.6937C132.059 73.1307 124.042 77.7967 119.337 81.2687C118.643 81.7807 117.681 82.4697 117.199 82.7997C97.231 96.4777 77.246 122.173 67.888 146.2C65.619 152.024 62.4 161.919 62.4 163.067C62.4 163.499 64.691 163.6 74.501 163.6H86.602L88.371 158.349C111.713 89.0747 191.403 57.1327 257.094 90.7197L259.989 92.1997L267.994 84.2037C276.42 75.7877 276.517 75.6617 275.097 74.9517C274.604 74.7047 271.41 73.0767 268 71.3337C257.134 65.7797 247.164 61.9687 237.4 59.6397C235.42 59.1677 233.17 58.6047 232.4 58.3897C231.63 58.1737 229.29 57.7187 227.2 57.3767C223.599 56.7887 221.557 56.5347 212.923 55.5987C209.386 55.2147 193.509 55.0267 193.167 55.3637ZM288.496 98.5037C284.263 102.741 280.8 106.36 280.8 106.547C280.8 106.733 282.482 108.477 284.537 110.422C298.41 123.552 309.241 140.602 315.461 159.1L316.973 163.6H329.331H341.689L341.428 162.211C339.388 151.334 329.145 129.433 320.198 116.82C313.283 107.07 298.486 90.7997 296.534 90.7997C296.346 90.7997 292.729 94.2667 288.496 98.5037ZM62.143 235.1C62.252 235.485 62.465 236.43 62.617 237.2C62.948 238.871 65.452 246.899 66.174 248.6C66.454 249.26 67.377 251.6 68.226 253.8C81.07 287.114 112.258 319.142 144.639 332.271C145.277 332.53 146.942 333.214 148.337 333.792C152.25 335.411 162.196 338.625 166.2 339.565C168.18 340.03 170.34 340.576 171 340.779C171.66 340.982 173.1 341.265 174.2 341.407C175.3 341.549 176.74 341.82 177.4 342.01C184.558 344.069 217.979 344.161 226 342.144C226.55 342.005 228.26 341.662 229.8 341.38C232.289 340.925 234.707 340.36 240.77 338.815C280.271 328.754 317.497 296.347 334.292 257.4C337.2 250.656 342 236.557 342 234.758C342 234.538 336.739 234.432 328.979 234.495L315.957 234.6L313.845 240.2C290.35 302.489 220.167 333.289 157.593 308.772C126.205 296.474 100.047 269.536 89.156 238.295L87.8 234.404L74.873 234.402C62.753 234.4 61.958 234.444 62.143 235.1Z" fill="#EBBC2F"/>
<path fill-rule="evenodd" clip-rule="evenodd" d="M284.898 67.3016L235.197 117.004L243.901 125.701L252.604 134.397L302.4 84.5996L352.196 34.8026L343.601 26.2006C338.874 21.4706 334.915 17.5996 334.803 17.5996C334.691 17.5996 312.233 39.9656 284.898 67.3016ZM150.4 179.214C142.461 180.624 137.81 186.303 139.181 192.91C140.288 198.243 143.068 200.095 153.683 202.575C162.062 204.532 164.79 207.391 162.139 211.437C159.606 215.302 148.276 215.266 142.309 211.373C140.389 210.12 140.603 210.02 139.184 212.832C137.737 215.699 137.819 215.894 141.208 217.604C153.533 223.826 168.702 219.433 169.498 209.412C170.031 202.692 166.992 199.777 156.8 197.234C147.679 194.957 145.6 193.734 145.6 190.645C145.6 184.952 155.333 182.864 163.312 186.846C164.584 187.481 165.689 188 165.769 188C165.954 188 168 182.909 168 182.45C168 180.432 155.984 178.222 150.4 179.214ZM193.2 179.037C167.968 183.615 169.659 218.453 195.2 220.241C201.089 220.654 206.8 218.943 210.4 215.689L212.2 214.062L210.032 211.849L207.864 209.637L206.45 210.878C198.577 217.791 185.443 214.037 182.538 204.044C178.379 189.738 194.799 178.837 206.306 188.265L208.075 189.715L210.095 187.696C212.511 185.279 212.468 185.037 209.179 182.616C205.378 179.818 198.002 178.166 193.2 179.037ZM277.6 179.214C269.661 180.624 265.01 186.303 266.381 192.91C267.488 198.243 270.268 200.095 280.883 202.575C289.262 204.532 291.99 207.391 289.339 211.437C286.806 215.302 275.476 215.266 269.509 211.373C267.589 210.12 267.803 210.02 266.384 212.832C264.937 215.699 265.019 215.894 268.408 217.604C280.733 223.826 295.902 219.433 296.698 209.412C297.231 202.692 294.192 199.777 284 197.234C274.879 194.957 272.8 193.734 272.8 190.645C272.8 184.952 282.533 182.864 290.512 186.846C291.784 187.481 292.889 188 292.969 188C293.154 188 295.2 182.909 295.2 182.45C295.2 180.432 283.184 178.222 277.6 179.214ZM314.4 179.214C306.461 180.624 301.81 186.303 303.181 192.91C304.288 198.243 307.068 200.095 317.683 202.575C326.062 204.532 328.79 207.391 326.139 211.437C323.606 215.302 312.276 215.266 306.309 211.373C304.389 210.12 304.603 210.02 303.184 212.832C301.737 215.699 301.819 215.894 305.208 217.604C317.533 223.826 332.702 219.433 333.498 209.412C334.031 202.692 330.992 199.777 320.8 197.234C311.679 194.957 309.6 193.734 309.6 190.645C309.6 184.952 319.333 182.864 327.312 186.846C328.584 187.481 329.689 188 329.769 188C329.954 188 332 182.909 332 182.45C332 180.432 319.984 178.222 314.4 179.214ZM72.7998 199.6V220.074L84.0998 219.902C98.4848 219.684 101.601 218.807 106.601 213.565C115.315 204.43 112.933 187.828 102.084 182.086C97.4748 179.646 96.4358 179.485 84.0998 179.298L72.7998 179.126V199.6ZM121.6 199.6V220H125H128.4V199.6V179.2H125H121.6V199.6ZM221.207 192.1C221.215 206.252 221.501 208.839 223.454 212.428C229.401 223.355 248.355 223.012 253.78 211.878C255.737 207.864 255.994 205.504 255.997 191.5L256 179.2H252.6H249.2V192.327C249.2 211.454 247.872 214.194 238.6 214.194C229.328 214.194 228 211.454 228 192.327V179.2H224.6H221.2L221.207 192.1ZM97.1168 186.168C107.891 191.118 107.891 207.682 97.1168 212.632C94.6748 213.754 94.3768 213.793 87.0998 213.932L79.5998 214.075V199.4V184.725L87.0998 184.868C94.3768 185.007 94.6748 185.046 97.1168 186.168Z" fill="#FAFAFA"/>
<path fill-rule="evenodd" clip-rule="evenodd" d="M305.314 46.4812C289.206 62.5852 276.074 75.8072 276.131 75.8642C276.188 75.9212 289.456 62.7452 305.616 46.5842C321.776 30.4232 334.908 17.2002 334.799 17.2012C334.69 17.2012 321.421 30.3772 305.314 46.4812ZM195.305 77.4872C195.914 77.5792 196.814 77.5772 197.305 77.4822C197.797 77.3872 197.3 77.3112 196.2 77.3142C195.1 77.3172 194.697 77.3952 195.305 77.4872ZM206.7 77.4822C207.195 77.5782 208.005 77.5782 208.5 77.4822C208.995 77.3872 208.59 77.3092 207.6 77.3092C206.61 77.3092 206.205 77.3872 206.7 77.4822ZM189.7 77.8762C190.085 77.9762 190.715 77.9762 191.1 77.8762C191.485 77.7752 191.17 77.6932 190.4 77.6932C189.63 77.6932 189.315 77.7752 189.7 77.8762ZM153.2 87.4002C152.65 87.7142 152.38 87.9722 152.6 87.9722C152.82 87.9722 153.45 87.7142 154 87.4002C154.55 87.0862 154.82 86.8282 154.6 86.8282C154.38 86.8282 153.75 87.0862 153.2 87.4002ZM147.9 89.8262C146.855 90.3702 146 90.9052 146 91.0142C146 91.1932 149.96 89.3232 150.367 88.9522C150.862 88.5012 149.561 88.9622 147.9 89.8262ZM142.7 92.6292C141.205 93.4402 141.296 93.7782 142.8 93.0002C143.46 92.6592 144 92.2942 144 92.1902C144 91.9322 143.957 91.9472 142.7 92.6292ZM247.398 104.5L235 117L247.5 104.602C254.375 97.7842 260 92.1592 260 92.1022C260 91.8202 258.919 92.8832 247.398 104.5ZM298.4 92.1252C298.4 92.1942 298.985 92.7792 299.7 93.4252L301 94.6002L299.825 93.3002C298.73 92.0882 298.4 91.8162 298.4 92.1252ZM132.2 99.4352L131 100.466L132.3 99.6062C133.015 99.1332 133.6 98.6682 133.6 98.5732C133.6 98.2732 133.431 98.3782 132.2 99.4352ZM308.4 102.2C309.146 102.97 309.847 103.6 309.957 103.6C310.067 103.6 309.546 102.97 308.8 102.2C308.054 101.43 307.353 100.8 307.243 100.8C307.133 100.8 307.654 101.43 308.4 102.2ZM120.585 108.9L118.6 111L120.7 109.015C122.651 107.171 122.983 106.8 122.685 106.8C122.622 106.8 121.677 107.745 120.585 108.9ZM113.385 116.1L111.4 118.2L113.5 116.215C114.655 115.123 115.6 114.178 115.6 114.115C115.6 113.817 115.229 114.149 113.385 116.1ZM110.175 119.7L109 121L110.3 119.825C111.512 118.73 111.784 118.4 111.475 118.4C111.406 118.4 110.821 118.985 110.175 119.7ZM104 127.6C103.53 128.26 103.236 128.8 103.346 128.8C103.456 128.8 103.93 128.26 104.4 127.6C104.87 126.94 105.164 126.4 105.054 126.4C104.944 126.4 104.47 126.94 104 127.6ZM97.4002 138C97.0592 138.66 96.8692 139.2 96.9792 139.2C97.0892 139.2 97.4592 138.66 97.8002 138C98.1412 137.34 98.3312 136.8 98.2212 136.8C98.1112 136.8 97.7412 137.34 97.4002 138ZM94.5792 143.241C93.7922 144.804 93.2142 146.147 93.2942 146.227C93.3732 146.307 94.1032 145.028 94.9162 143.386C95.7292 141.744 96.3072 140.4 96.2022 140.4C96.0962 140.4 95.3662 141.678 94.5792 143.241ZM220.977 191C220.977 197.6 221.032 200.356 221.099 197.125C221.166 193.893 221.166 188.493 221.099 185.125C221.032 181.756 220.977 184.4 220.977 191ZM93.2002 248.143C93.2002 248.578 95.9872 254 96.2102 254C96.3202 254 95.7572 252.695 94.9582 251.1C93.4602 248.107 93.2002 247.67 93.2002 248.143ZM97.4002 256.4C97.7412 257.06 98.1112 257.6 98.2212 257.6C98.3312 257.6 98.1412 257.06 97.8002 256.4C97.4592 255.74 97.0892 255.2 96.9792 255.2C96.8692 255.2 97.0592 255.74 97.4002 256.4ZM104 266.8C104.47 267.46 104.944 268 105.054 268C105.164 268 104.87 267.46 104.4 266.8C103.93 266.14 103.456 265.6 103.346 265.6C103.236 265.6 103.53 266.14 104 266.8ZM109.2 273.725C109.2 273.794 109.785 274.379 110.5 275.025L111.8 276.2L110.625 274.9C109.53 273.688 109.2 273.416 109.2 273.725ZM113.4 278.4C114.483 279.5 115.46 280.4 115.57 280.4C115.68 280.4 114.883 279.5 113.8 278.4C112.717 277.3 111.74 276.4 111.63 276.4C111.52 276.4 112.317 277.3 113.4 278.4ZM288.778 279.9L287.4 281.4L288.9 280.022C290.296 278.738 290.584 278.4 290.278 278.4C290.212 278.4 289.537 279.075 288.778 279.9ZM284 284.6C283.028 285.59 282.323 286.4 282.433 286.4C282.543 286.4 283.428 285.59 284.4 284.6C285.372 283.61 286.077 282.8 285.967 282.8C285.857 282.8 284.972 283.61 284 284.6ZM120.6 285.6C121.683 286.7 122.66 287.6 122.77 287.6C122.88 287.6 122.083 286.7 121 285.6C119.917 284.5 118.94 283.6 118.83 283.6C118.72 283.6 119.517 284.5 120.6 285.6ZM123.2 287.725C123.2 287.794 123.785 288.379 124.5 289.025L125.8 290.2L124.625 288.9C123.53 287.688 123.2 287.416 123.2 287.725ZM131.2 294.146C131.2 294.256 131.74 294.73 132.4 295.2C133.06 295.67 133.6 295.964 133.6 295.854C133.6 295.744 133.06 295.27 132.4 294.8C131.74 294.33 131.2 294.036 131.2 294.146ZM141.6 300.979C141.6 301.089 142.14 301.459 142.8 301.8C143.46 302.141 144 302.331 144 302.221C144 302.111 143.46 301.741 142.8 301.4C142.14 301.059 141.6 300.869 141.6 300.979ZM261.1 301.429C259.605 302.24 259.696 302.578 261.2 301.8C261.86 301.459 262.4 301.094 262.4 300.99C262.4 300.732 262.357 300.747 261.1 301.429ZM146 303.398C146 303.667 150.049 305.684 150.229 305.505C150.311 305.423 149.393 304.873 148.189 304.282C146.985 303.692 146 303.294 146 303.398ZM255.6 304.4C254.83 304.822 254.344 305.174 254.52 305.183C254.944 305.205 257.2 304.032 257.2 303.79C257.2 303.528 257.177 303.537 255.6 304.4ZM250 307C249.45 307.314 249.18 307.572 249.4 307.572C249.62 307.572 250.25 307.314 250.8 307C251.35 306.686 251.62 306.428 251.4 306.428C251.18 306.428 250.55 306.686 250 307ZM189.7 316.676C190.085 316.776 190.715 316.776 191.1 316.676C191.485 316.575 191.17 316.493 190.4 316.493C189.63 316.493 189.315 316.575 189.7 316.676ZM212.9 316.676C213.285 316.776 213.915 316.776 214.3 316.676C214.685 316.575 214.37 316.493 213.6 316.493C212.83 316.493 212.515 316.575 212.9 316.676ZM194.707 317.09C195.426 317.179 196.506 317.177 197.107 317.086C197.708 316.995 197.12 316.922 195.8 316.924C194.48 316.926 193.988 317.001 194.707 317.09ZM207.107 317.09C207.826 317.179 208.906 317.177 209.507 317.086C210.108 316.995 209.52 316.922 208.2 316.924C206.88 316.926 206.388 317.001 207.107 317.09Z" fill="#73714D"/>
<path fill-rule="evenodd" clip-rule="evenodd" d="M105.2 184.125C105.2 184.194 105.785 184.779 106.5 185.425L107.8 186.6L106.625 185.3C105.53 184.088 105.2 183.816 105.2 184.125ZM209.2 211C209.946 211.77 210.647 212.4 210.757 212.4C210.867 212.4 210.346 211.77 209.6 211C208.854 210.23 208.153 209.6 208.043 209.6C207.933 209.6 208.454 210.23 209.2 211ZM106.175 214.1L105 215.4L106.3 214.225C107.512 213.13 107.784 212.8 107.475 212.8C107.406 212.8 106.821 213.385 106.175 214.1Z" fill="#949CA1"/>
<path fill-rule="evenodd" clip-rule="evenodd" d="M243.6 125.8C248.326 130.53 252.283 134.4 252.393 134.4C252.503 134.4 248.726 130.53 244 125.8C239.274 121.07 235.317 117.2 235.207 117.2C235.097 117.2 238.874 121.07 243.6 125.8ZM174.909 199.6C174.909 200.59 174.987 200.995 175.082 200.5C175.178 200.005 175.178 199.195 175.082 198.7C174.987 198.205 174.909 198.61 174.909 199.6Z" fill="#808891"/>
</svg>
