<svg width="24" height="24" viewBox="0 0 24 24" fill="none" xmlns="http://www.w3.org/2000/svg">
<path d="M20.2219 0C21.6279 0 22.7619 1.137 22.8289 2.475V24L20.1519 21.727L18.6819 20.389L17.0779 18.991L17.7479 21.196H3.70992C2.30792 21.196 1.16992 20.131 1.16992 18.72V2.48C1.16992 1.142 2.30992 0.003 3.71492 0.003H20.2149L20.2219 0ZM14.1039 5.683H14.0739L13.8719 5.883C15.9449 6.483 16.9479 7.42 16.9479 7.42C15.6119 6.752 14.4079 6.418 13.2039 6.283C12.3339 6.148 11.4639 6.219 10.7289 6.283H10.5289C10.0589 6.283 9.05892 6.483 7.71892 7.018C7.25192 7.221 6.98392 7.354 6.98392 7.354C6.98392 7.354 7.98592 6.352 10.1939 5.817L10.0589 5.682C10.0589 5.682 8.38692 5.618 6.58192 6.952C6.58192 6.952 4.77692 10.096 4.77692 13.972C4.77692 13.972 5.77692 15.712 8.51992 15.778C8.51992 15.778 8.91992 15.245 9.32492 14.776C7.78492 14.308 7.18492 13.372 7.18492 13.372C7.18492 13.372 7.31892 13.438 7.51992 13.572H7.57992C7.60992 13.572 7.62392 13.587 7.63992 13.602V13.608C7.65592 13.624 7.66992 13.638 7.69992 13.638C8.02992 13.774 8.35992 13.908 8.62992 14.038C9.09592 14.24 9.69492 14.441 10.4299 14.574C11.3599 14.709 12.4259 14.774 13.6399 14.574C14.2399 14.439 14.8399 14.307 15.4399 14.039C15.8299 13.839 16.3099 13.639 16.8369 13.302C16.8369 13.302 16.2369 14.238 14.6319 14.706C14.9619 15.172 15.4269 15.706 15.4269 15.706C18.1709 15.646 19.2369 13.906 19.2969 13.98C19.2969 10.11 17.4819 6.96 17.4819 6.96C15.8469 5.746 14.3169 5.7 14.0469 5.7L14.1029 5.68L14.1039 5.683ZM14.2719 10.096C14.9749 10.096 15.5419 10.696 15.5419 11.431C15.5419 12.171 14.9719 12.771 14.2719 12.771C13.5719 12.771 13.0019 12.171 13.0019 11.437C13.0039 10.697 13.5749 10.099 14.2719 10.099V10.096ZM9.72892 10.096C10.4289 10.096 10.9949 10.696 10.9949 11.431C10.9949 12.171 10.4249 12.771 9.72492 12.771C9.02492 12.771 8.45492 12.171 8.45492 11.437C8.45492 10.697 9.02492 10.099 9.72492 10.099L9.72892 10.096Z" fill="#E5E5E5"/>
</svg>
