<svg width="400" height="400" viewBox="0 0 400 400" fill="none" xmlns="http://www.w3.org/2000/svg">
<path fill-rule="evenodd" clip-rule="evenodd" d="M284.898 67.3016L235.197 117.004L243.901 125.701L252.604 134.397L302.4 84.5996L352.196 34.8026L343.601 26.2006C338.874 21.4706 334.915 17.5996 334.803 17.5996C334.691 17.5996 312.233 39.9656 284.898 67.3016ZM11.6001 198.6V216.8H14.6001H17.6001V209.6V202.4H26.6191H35.6381L35.5191 199.9L35.4001 197.4L26.5001 197.292L17.6001 197.185V191.392V185.6H27.6001H37.6001V183V180.4H24.6001H11.6001V198.6ZM40.8001 191.933C40.8001 204.714 41.0421 206.747 42.9831 210.268C48.1401 219.622 64.9161 219.555 69.8691 210.16C71.7831 206.53 72.0001 204.676 72.0001 191.98V180.4H69.0001H66.0001V191.927C66.0001 209.128 64.5331 211.982 55.9251 211.54C48.0551 211.135 46.8061 208.31 46.8021 190.9L46.8001 180.4H43.8001H40.8001V191.933ZM78.8001 198.6V216.8H81.7941H84.7891L84.8941 204.1L85.0001 191.4L95.1781 204.1L105.357 216.8H107.878H110.4V198.6V180.4H107.406H104.411L104.306 193.197L104.2 205.993L94.0351 193.197L83.8691 180.4H81.3351H78.8001V198.6ZM118 198.604V216.869L128.5 216.704C140.318 216.518 141.827 216.223 146.058 213.267C155.688 206.539 155.6 190.363 145.898 183.799C141.786 181.017 139.885 180.66 128.3 180.491L118 180.34V198.604ZM158.633 198.303C154.251 208.146 150.59 216.343 150.498 216.517C150.406 216.692 151.728 216.782 153.434 216.717L156.538 216.6L158.352 212.3L160.166 208H169.622H179.079L180.903 212.3L182.728 216.6L185.764 216.717C187.434 216.781 188.8 216.708 188.8 216.555C188.8 216.307 175.004 185.333 173.328 181.817L172.652 180.4L169.626 180.403L166.6 180.405L158.633 198.303ZM190.4 198.582V216.8H193.394H196.388L196.494 204.842L196.6 192.884L202.428 202.542L208.257 212.2L209.828 212.308L211.4 212.416L217.4 202.179L223.4 191.943L223.506 204.371L223.611 216.8H226.606H229.6V198.6V180.4H226.84H224.079L217.146 192.402C213.332 199.003 210.078 204.358 209.915 204.302C209.751 204.246 206.496 198.89 202.682 192.4L195.746 180.6L193.073 180.482L190.4 180.363V198.582ZM236.8 198.6V216.8H250.2H263.6V214.2V211.6H253.2H242.8V206.2V200.8H251.819H260.838L260.719 198.3L260.6 195.8L251.7 195.692L242.8 195.585V190.592V185.6H252.8H262.8V183V180.4H249.8H236.8V198.6ZM267.6 198.6V216.8H270.594H273.589L273.694 204.1L273.8 191.4L283.978 204.1L294.157 216.8H296.678H299.2V198.6V180.4H296.206H293.211L293.106 193.197L293 205.993L282.835 193.197L272.669 180.4H270.135H267.6V198.6ZM301.2 183V185.6H307.2H313.2V201.2V216.8H316.2H319.2V201.2V185.6H325.4H331.6V183V180.4H316.4H301.2V183ZM332.633 198.303C328.251 208.146 324.59 216.343 324.498 216.517C324.406 216.692 325.728 216.782 327.434 216.717L330.538 216.6L332.352 212.3L334.166 208H343.622H353.079L354.903 212.3L356.728 216.6L359.764 216.717C361.434 216.781 362.8 216.708 362.8 216.555C362.8 216.307 349.004 185.333 347.328 181.817L346.652 180.4L343.626 180.403L340.6 180.405L332.633 198.303ZM364.4 198.6V216.8H377H389.6V214.2V211.6H380H370.4V196V180.4H367.4H364.4V198.6ZM139.8 186.731C149.733 191.244 149.389 206.943 139.278 210.623C137.897 211.126 135.628 211.358 130.7 211.5L124 211.692V198.607V185.521L130.9 185.671C137.03 185.805 138.023 185.923 139.8 186.731ZM173.353 194.673C175.249 199.113 176.8 202.848 176.8 202.973C176.8 203.098 173.541 203.2 169.557 203.2C163.921 203.2 162.359 203.089 162.518 202.7C163.35 200.652 169.258 187.03 169.444 186.728C169.769 186.203 169.53 185.717 173.353 194.673ZM347.353 194.673C349.249 199.113 350.8 202.848 350.8 202.973C350.8 203.098 347.541 203.2 343.557 203.2C337.921 203.2 336.359 203.089 336.518 202.7C337.35 200.652 343.258 187.03 343.444 186.728C343.769 186.203 343.53 185.717 347.353 194.673Z" fill="#FAFAFA"/>
<path fill-rule="evenodd" clip-rule="evenodd" d="M98.8799 98.6996C83.3859 114.776 72.0399 133.247 65.2779 153.4C63.6059 158.383 62.3999 162.434 62.3999 163.067C62.3999 163.499 64.6939 163.6 74.5149 163.6H86.6299L87.9569 159.5C93.1129 143.571 102.276 127.866 113.988 114.881L118.064 110.363L113.094 105.081C110.36 102.177 107.087 98.6746 105.819 97.2996C102.927 94.1626 103.331 94.0816 98.8799 98.6996ZM62.1429 235.1C62.2519 235.485 62.4649 236.43 62.6169 237.2C62.9479 238.871 65.4519 246.899 66.1739 248.6C66.4539 249.26 67.3769 251.6 68.2259 253.8C79.7759 283.76 103.703 310.442 133.712 326.83L137.224 328.748L143.035 317.13C146.231 310.741 148.791 305.464 148.723 305.405C148.655 305.345 147.61 304.802 146.4 304.197C121.243 291.63 94.1439 259.652 88.1849 235.5L87.9129 234.4H74.9299C62.7559 234.4 61.9579 234.444 62.1429 235.1Z" fill="#9C4A0C"/>
<path fill-rule="evenodd" clip-rule="evenodd" d="M192.363 55.3704C192.269 55.4644 189.944 55.7454 187.196 55.9964C180.767 56.5814 171.554 58.2494 164.4 60.1234C161.026 61.0074 154.803 63.0294 151.2 64.4134C149.99 64.8784 148.46 65.4514 147.8 65.6874C147.14 65.9234 146.42 66.2484 146.2 66.4094C145.98 66.5704 145.35 66.8384 144.8 67.0054C137.634 69.1754 118.281 81.1854 108.892 89.2894C106.516 91.3394 101.541 95.9744 102.55 95.1974C103.239 94.6664 103.494 94.8294 105.718 97.2104C107.048 98.6344 110.373 102.18 113.106 105.088L118.076 110.376L114.529 114.288C111.002 118.178 107.576 122.344 105.389 125.4C103.502 128.037 104.899 126.471 108.421 122C142.658 78.5464 203.497 65.0144 254.519 89.5064L260.038 92.1554L268.019 84.1814C276.425 75.7834 276.514 75.6674 275.097 74.9404C260.656 67.5294 258.486 66.5214 252 64.2074C249.69 63.3834 247.44 62.5654 247 62.3904C241.69 60.2764 228.034 57.2384 220 56.3834C217.91 56.1614 214.76 55.8034 213 55.5894C209.892 55.2104 192.705 55.0284 192.363 55.3704ZM288.469 98.5314L280.404 106.603L283.628 109.552C297.611 122.342 309.131 140.274 315.461 159.1L316.973 163.6H329.331H341.689L341.425 162.192C337.617 141.895 319.137 111.21 300.314 93.9304L296.534 90.4594L288.469 98.5314ZM103.293 128.3C102.257 129.796 101.921 130.4 102.123 130.4C102.217 130.4 102.77 129.68 103.353 128.8C104.536 127.012 104.484 126.579 103.293 128.3ZM300.928 182.8C300.928 184.23 301.001 184.815 301.089 184.1C301.178 183.385 301.178 182.215 301.089 181.5C301.001 180.785 300.928 181.37 300.928 182.8ZM315.799 234.9C306.11 262.399 290.684 282.502 267.634 297.671C225.106 325.657 167.67 323.152 127.786 291.572C126.034 290.185 124.842 289.347 125.137 289.71C127.139 292.173 140.354 301.177 146.4 304.197C147.61 304.802 148.655 305.345 148.723 305.405C148.791 305.464 146.229 310.745 143.03 317.141L137.213 328.768L140.707 330.412C145.11 332.483 145.263 332.55 148.4 333.8C149.83 334.37 151.36 334.991 151.8 335.181C154.129 336.184 164.358 339.233 169.2 340.368C186.394 344.395 210.647 344.899 229 341.609C236.353 340.292 248.739 336.654 255.766 333.748C257.105 333.195 258.723 332.53 259.361 332.271C285.383 321.721 311.393 298.509 326.899 272C333.167 261.284 341.728 240.117 341.986 234.7C342.012 234.141 315.996 234.339 315.799 234.9ZM117 282.4C117.859 283.28 118.652 284 118.762 284C118.872 284 118.259 283.28 117.4 282.4C116.541 281.52 115.748 280.8 115.638 280.8C115.528 280.8 116.141 281.52 117 282.4Z" fill="#8C6819"/>
</svg>
