<svg width="400" height="400" viewBox="0 0 400 400" fill="none" xmlns="http://www.w3.org/2000/svg">
<path fill-rule="evenodd" clip-rule="evenodd" d="M284.898 67.3016L235.197 117.004L243.901 125.701L252.604 134.397L302.4 84.5996L352.196 34.8026L343.601 26.2006C338.874 21.4706 334.915 17.5996 334.803 17.5996C334.691 17.5996 312.233 39.9656 284.898 67.3016ZM321.897 179.425C314.493 181.219 310.42 187.015 311.984 193.533C313.062 198.025 316.088 200.026 325.366 202.379C335.04 204.833 337.25 206.849 335.011 211.179C332.839 215.379 320.932 215.271 314.63 210.994L313.2 210.024L312 212.4C310.458 215.454 310.476 215.611 312.5 216.924C322.226 223.235 339.479 220.437 341.916 212.154C344.335 203.929 340.572 199.739 328.107 196.778C320.616 194.998 318.6 193.697 318.6 190.64C318.6 184.874 328.048 182.869 336.059 186.935L338.719 188.285L339.759 185.633C341.122 182.159 341.135 182.217 338.7 181.065C334.259 178.966 326.797 178.237 321.897 179.425ZM63.6001 199.6V220H67.0001H70.4001V212V204H80.2001H90.0001V201.2V198.4H80.2001H70.4001V191.6V184.8H81.4001H92.4001V182V179.2H78.0001H63.6001V199.6ZM101.2 192.516C101.2 206.817 101.372 208.398 103.357 212.315C108.973 223.398 128.632 223.095 133.973 211.843C135.767 208.064 136 205.775 136 191.927V179.2H132.624H129.247L129.124 193.1C129.002 206.772 128.985 207.031 128.058 208.895C124.343 216.371 112.562 216.251 109.151 208.703C108.218 206.64 108.198 206.34 108.08 192.9L107.961 179.2H104.58H101.2V192.516ZM142.8 181.99V184.781L149.5 184.89L156.2 185L156.304 202.5L156.408 220H159.804H163.2V202.4V184.8H169.8H176.4V182V179.2H159.6H142.8V181.99ZM183.2 192.516C183.2 206.817 183.372 208.398 185.357 212.315C190.973 223.398 210.632 223.095 215.973 211.843C217.767 208.064 218 205.775 218 191.927V179.2H214.624H211.247L211.124 193.1C211.002 206.772 210.985 207.031 210.058 208.895C206.343 216.371 194.562 216.251 191.151 208.703C190.218 206.64 190.198 206.34 190.08 192.9L189.961 179.2H186.58H183.2V192.516ZM231.2 199.6V220H234.6H238V214V208H243.592H249.184L253.426 214L257.669 220H261.234C263.195 220 264.8 219.901 264.8 219.78C264.8 219.659 262.82 216.772 260.4 213.364C255.244 206.105 255.443 206.992 258.525 205C267.207 199.388 266.091 185.495 256.6 181.032C253.292 179.476 250.905 179.2 240.78 179.2H231.2V199.6ZM275.2 199.6V220H290H304.8V217V214H293.4H282V208V202H291.8H301.6V199.2V196.4H291.8H282V190.6V184.8H293H304V182V179.2H289.6H275.2V199.6ZM250.8 185.229C255.077 186.203 257.344 189.103 257.344 193.6C257.344 200.216 253.95 202.372 243.5 202.39L238 202.4V193.6V184.8L243.5 184.81C246.525 184.815 249.81 185.004 250.8 185.229Z" fill="#F9F9F9"/>
<path fill-rule="evenodd" clip-rule="evenodd" d="M193.167 55.3637C193.075 55.4547 190.57 55.7327 187.6 55.9817C178.346 56.7597 162.899 59.9997 157 62.4007C156.56 62.5797 154.31 63.3937 152 64.2087C147.028 65.9637 146.683 66.1117 139.221 69.6937C132.059 73.1307 124.042 77.7967 119.337 81.2687C118.643 81.7807 117.681 82.4697 117.199 82.7997C97.231 96.4777 77.246 122.173 67.888 146.2C65.619 152.024 62.4 161.919 62.4 163.067C62.4 163.499 64.69 163.6 74.5 163.597L86.6 163.595L88.345 158.497C112.15 88.9737 190.548 57.3167 256.71 90.5117L260.02 92.1727L268.01 84.1897C276.42 75.7877 276.517 75.6617 275.097 74.9517C274.604 74.7047 271.41 73.0767 268 71.3337C257.134 65.7797 247.164 61.9687 237.4 59.6397C235.42 59.1677 233.17 58.6047 232.4 58.3897C231.63 58.1737 229.29 57.7187 227.2 57.3767C223.599 56.7887 221.557 56.5347 212.923 55.5987C209.386 55.2147 193.509 55.0267 193.167 55.3637ZM288.496 98.5037C284.263 102.741 280.8 106.358 280.8 106.542C280.8 106.725 282.181 108.164 283.868 109.738C297.95 122.875 309.144 140.343 315.452 159.025L316.996 163.6H329.298C339.275 163.6 341.6 163.499 341.6 163.067C341.6 162.474 340.512 158.833 338.712 153.4C333.122 136.526 324.224 120.877 311.648 105.8C308.197 101.663 297.337 90.7997 296.652 90.7997C296.399 90.7997 292.729 94.2667 288.496 98.5037ZM62.143 235.1C62.252 235.485 62.465 236.43 62.617 237.2C62.981 239.041 65.508 247.052 66.232 248.66C66.545 249.354 66.8 250.173 66.8 250.48C66.8 250.788 66.944 251.211 67.12 251.42C67.296 251.629 67.862 252.88 68.378 254.2C81.379 287.467 112.359 319.183 144.639 332.271C145.277 332.53 146.942 333.214 148.337 333.792C152.25 335.411 162.196 338.625 166.2 339.565C168.18 340.03 170.34 340.576 171 340.779C171.66 340.982 173.1 341.265 174.2 341.407C175.3 341.549 176.74 341.82 177.4 342.01C184.558 344.069 217.979 344.161 226 342.144C226.55 342.005 228.26 341.662 229.8 341.38C232.289 340.925 234.707 340.36 240.77 338.815C288.077 326.766 330.573 283.319 341.829 235.494L342.089 234.389L329.023 234.494L315.957 234.6L313.845 240.2C293.023 295.401 234.996 326.836 176.616 314.542C136.828 306.164 103.106 276.858 89.349 238.705L87.8 234.41L74.873 234.405C62.752 234.4 61.958 234.444 62.143 235.1Z" fill="#FB604F"/>
<path fill-rule="evenodd" clip-rule="evenodd" d="M305.314 46.4812C289.206 62.5852 276.074 75.8072 276.131 75.8642C276.188 75.9212 289.456 62.7452 305.616 46.5842C321.776 30.4232 334.908 17.2002 334.799 17.2012C334.69 17.2012 321.421 30.3772 305.314 46.4812ZM195.305 77.4872C195.914 77.5792 196.814 77.5772 197.305 77.4822C197.797 77.3872 197.3 77.3112 196.2 77.3142C195.1 77.3172 194.697 77.3952 195.305 77.4872ZM206.7 77.4822C207.195 77.5782 208.005 77.5782 208.5 77.4822C208.995 77.3872 208.59 77.3092 207.6 77.3092C206.61 77.3092 206.205 77.3872 206.7 77.4822ZM189.7 77.8762C190.085 77.9762 190.715 77.9762 191.1 77.8762C191.485 77.7752 191.17 77.6932 190.4 77.6932C189.63 77.6932 189.315 77.7752 189.7 77.8762ZM153.2 87.4002C152.65 87.7142 152.38 87.9722 152.6 87.9722C152.82 87.9722 153.45 87.7142 154 87.4002C154.55 87.0862 154.82 86.8282 154.6 86.8282C154.38 86.8282 153.75 87.0862 153.2 87.4002ZM147.9 89.8292C146.349 90.6702 146.525 90.9612 148.1 90.1592C149.608 89.3932 149.875 89.1942 149.367 89.2162C149.165 89.2252 148.505 89.5012 147.9 89.8292ZM298.4 92.1252C298.4 92.1942 298.985 92.7792 299.7 93.4252L301 94.6002L299.825 93.3002C298.73 92.0882 298.4 91.8162 298.4 92.1252ZM247.198 104.7L235 117L247.3 104.802C258.731 93.4672 259.78 92.4002 259.498 92.4002C259.441 92.4002 253.906 97.9352 247.198 104.7ZM137.7 95.6462C136.337 96.5192 135.895 97.1062 137.1 96.4432C138.018 95.9392 139.456 94.8272 139.2 94.8192C139.09 94.8162 138.415 95.1882 137.7 95.6462ZM307.2 100.925C307.2 100.994 307.785 101.579 308.5 102.225L309.8 103.4L308.625 102.1C307.53 100.888 307.2 100.616 307.2 100.925ZM119.986 109.5L117.8 111.8L120.1 109.614C122.237 107.582 122.583 107.2 122.286 107.2C122.224 107.2 121.189 108.235 119.986 109.5ZM113.986 115.5L111.8 117.8L114.1 115.614C116.237 113.582 116.583 113.2 116.286 113.2C116.224 113.2 115.189 114.235 113.986 115.5ZM243.6 125.8C248.326 130.53 252.283 134.4 252.393 134.4C252.503 134.4 248.726 130.53 244 125.8C239.274 121.07 235.317 117.2 235.207 117.2C235.097 117.2 238.874 121.07 243.6 125.8ZM94.5808 143.237C94.2288 143.918 94.0118 144.545 94.0988 144.632C94.1858 144.719 94.5558 144.162 94.9218 143.395C95.7438 141.67 95.4588 141.538 94.5808 143.237ZM92.5338 182C92.5338 183.65 92.6048 184.325 92.6908 183.5C92.7778 182.675 92.7778 181.325 92.6908 180.5C92.6048 179.675 92.5338 180.35 92.5338 182ZM100.977 191C100.977 197.6 101.032 200.356 101.099 197.125C101.166 193.893 101.166 188.493 101.099 185.125C101.032 181.756 100.977 184.4 100.977 191ZM142.534 182C142.534 183.65 142.605 184.325 142.691 183.5C142.778 182.675 142.778 181.325 142.691 180.5C142.605 179.675 142.534 180.35 142.534 182ZM176.534 182C176.534 183.65 176.605 184.325 176.691 183.5C176.778 182.675 176.778 181.325 176.691 180.5C176.605 179.675 176.534 180.35 176.534 182ZM182.977 191C182.977 197.6 183.032 200.356 183.099 197.125C183.166 193.893 183.166 188.493 183.099 185.125C183.032 181.756 182.977 184.4 182.977 191ZM304.134 182C304.134 183.65 304.205 184.325 304.291 183.5C304.378 182.675 304.378 181.325 304.291 180.5C304.205 179.675 304.134 180.35 304.134 182ZM156.184 202.6C156.184 212.28 156.236 216.183 156.3 211.273C156.363 206.363 156.363 198.443 156.3 193.673C156.236 188.903 156.184 192.92 156.184 202.6ZM257.293 193.6C257.293 194.37 257.375 194.685 257.476 194.3C257.576 193.915 257.576 193.285 257.476 192.9C257.375 192.515 257.293 192.83 257.293 193.6ZM301.734 199.2C301.734 200.85 301.805 201.525 301.891 200.7C301.978 199.875 301.978 198.525 301.891 197.7C301.805 196.875 301.734 197.55 301.734 199.2ZM90.1338 201.2C90.1338 202.85 90.2048 203.525 90.2908 202.7C90.3778 201.875 90.3778 200.525 90.2908 199.7C90.2048 198.875 90.1338 199.55 90.1338 201.2ZM338.8 200.525C338.8 200.594 339.385 201.179 340.1 201.825L341.4 203L340.225 201.7C339.13 200.488 338.8 200.216 338.8 200.525ZM342.493 208.4C342.493 209.17 342.575 209.485 342.676 209.1C342.776 208.715 342.776 208.085 342.676 207.7C342.575 207.315 342.493 207.63 342.493 208.4ZM304.937 217C304.939 218.76 305.009 219.43 305.093 218.489C305.178 217.549 305.177 216.109 305.091 215.289C305.005 214.47 304.936 215.24 304.937 217ZM324.5 214.276C324.885 214.376 325.515 214.376 325.9 214.276C326.285 214.175 325.97 214.093 325.2 214.093C324.43 214.093 324.115 214.175 324.5 214.276ZM105.6 215.8C106.346 216.57 107.047 217.2 107.157 217.2C107.267 217.2 106.746 216.57 106 215.8C105.254 215.03 104.553 214.4 104.443 214.4C104.333 214.4 104.854 215.03 105.6 215.8ZM187.6 215.8C188.346 216.57 189.047 217.2 189.157 217.2C189.267 217.2 188.746 216.57 188 215.8C187.254 215.03 186.553 214.4 186.443 214.4C186.333 214.4 186.854 215.03 187.6 215.8ZM114 279C115.195 280.21 116.263 281.2 116.373 281.2C116.483 281.2 115.595 280.21 114.4 279C113.205 277.79 112.137 276.8 112.027 276.8C111.917 276.8 112.805 277.79 114 279ZM288.975 279.7L287.8 281L289.1 279.825C289.815 279.179 290.4 278.594 290.4 278.525C290.4 278.216 290.07 278.488 288.975 279.7ZM120 285C121.195 286.21 122.263 287.2 122.373 287.2C122.483 287.2 121.595 286.21 120.4 285C119.205 283.79 118.137 282.8 118.027 282.8C117.917 282.8 118.805 283.79 120 285ZM283.781 284.9L282.2 286.6L283.9 285.019C285.481 283.548 285.784 283.2 285.481 283.2C285.416 283.2 284.651 283.965 283.781 284.9ZM137 298.207C137.44 298.566 138.16 299.035 138.6 299.251L139.4 299.644L138.6 298.993C138.16 298.634 137.44 298.165 137 297.949L136.2 297.556L137 298.207ZM266.1 298.446C264.737 299.319 264.295 299.906 265.5 299.243C266.418 298.739 267.856 297.627 267.6 297.619C267.49 297.616 266.815 297.988 266.1 298.446ZM261.1 301.429C259.605 302.24 259.696 302.578 261.2 301.8C261.86 301.459 262.4 301.094 262.4 300.99C262.4 300.732 262.357 300.747 261.1 301.429ZM255.6 304.4C254.39 305.039 253.541 305.571 253.713 305.581C254.138 305.607 258 303.636 258 303.393C258 303.126 258.055 303.103 255.6 304.4ZM146.8 303.796C146.8 304.07 149.249 305.284 149.432 305.101C149.519 305.014 148.962 304.644 148.195 304.278C147.428 303.912 146.8 303.695 146.8 303.796ZM153.2 307C153.75 307.314 154.38 307.572 154.6 307.572C154.82 307.572 154.55 307.314 154 307C153.45 306.686 152.82 306.428 152.6 306.428C152.38 306.428 152.65 306.686 153.2 307ZM250 307C249.45 307.314 249.18 307.572 249.4 307.572C249.62 307.572 250.25 307.314 250.8 307C251.35 306.686 251.62 306.428 251.4 306.428C251.18 306.428 250.55 306.686 250 307ZM189.7 316.676C190.085 316.776 190.715 316.776 191.1 316.676C191.485 316.575 191.17 316.493 190.4 316.493C189.63 316.493 189.315 316.575 189.7 316.676ZM212.9 316.676C213.285 316.776 213.915 316.776 214.3 316.676C214.685 316.575 214.37 316.493 213.6 316.493C212.83 316.493 212.515 316.575 212.9 316.676ZM194.9 317.087C195.505 317.178 196.495 317.178 197.1 317.087C197.705 316.995 197.21 316.92 196 316.92C194.79 316.92 194.295 316.995 194.9 317.087ZM206.9 317.087C207.505 317.178 208.495 317.178 209.1 317.087C209.705 316.995 209.21 316.92 208 316.92C206.79 316.92 206.295 316.995 206.9 317.087Z" fill="#774B51"/>
</svg>
