<svg width="140" height="140" viewBox="0 0 140 140" fill="none" xmlns="http://www.w3.org/2000/svg">
<g clip-path="url(#clip0)">
<path d="M127.973 12.0463C127.973 11.0249 127.146 10.196 126.123 10.196H101.042C100.02 10.196 99.1914 11.0249 99.1914 12.0463V30.097V56.6662L127.973 22.9243V12.0463Z" fill="#AFDF9D"/>
<path d="M99.1914 109.903V127.955C99.1914 128.977 100.02 129.806 101.042 129.806H126.123C127.146 129.806 127.973 128.977 127.973 127.955V93.8101V88.1299V41.9324L99.1914 75.6767V109.903Z" fill="#AFDF9D"/>
<path d="M54.375 103.36V115.027V127.953C54.375 128.974 55.2027 129.803 56.2252 129.803H81.3068C82.3281 129.803 83.157 128.974 83.157 127.953V118.947V82.663L70.7458 79.0378L54.375 103.36Z" fill="#AFDF9D"/>
<path d="M69.8786 65.9309L83.157 69.8114V50.0363V41.0306C83.157 40.0093 82.3281 39.1804 81.3068 39.1804H56.2252C55.2027 39.1804 54.375 40.0093 54.375 41.0306V53.9575V81.2668L63.0328 68.404C64.5315 66.1751 67.3006 65.176 69.8786 65.9309Z" fill="#AFDF9D"/>
<path d="M30.6988 80.0518L40.8084 89.8012V77.8217V62.619C40.8084 61.5977 39.9795 60.7688 38.9582 60.7688H13.8766C12.854 60.7688 12.0264 61.5977 12.0264 62.619V81.9477V88.3371L22.5023 79.7286C24.9199 77.7378 28.4452 77.8809 30.6988 80.0518Z" fill="#AFDF9D"/>
<path d="M12.0264 104.302V108.626V127.955C12.0264 128.976 12.854 129.805 13.8766 129.805H38.9582C39.9795 129.805 40.8084 128.976 40.8084 127.955V106.939L26.088 92.7429L12.0264 104.302Z" fill="#AFDF9D"/>
<path d="M138.918 20.4573C137.624 19.3534 135.676 19.5063 134.571 20.8027L88.3759 74.9587L69.3236 69.3883C68.0333 69.0071 66.6494 69.5116 65.9007 70.6267L46.3648 99.6468L28.8642 82.7715C27.738 81.6848 25.9766 81.6145 24.7653 82.6087L1.12568 102.037C-0.189207 103.119 -0.380396 105.061 0.701366 106.379C1.31194 107.122 2.19511 107.504 3.08568 107.504C3.7752 107.504 4.46841 107.272 5.04198 106.803L26.5625 89.119L44.7317 106.641C45.3879 107.272 46.2846 107.578 47.1974 107.488C48.104 107.392 48.9206 106.898 49.43 106.142L69.7565 75.943L88.5609 81.4406C89.7253 81.7761 90.9835 81.4085 91.7729 80.4834L139.262 24.8078C140.367 23.5114 140.213 21.5625 138.918 20.4573Z" fill="#AFDF9D"/>
</g>
<defs>
<clipPath id="clip0">
<rect width="140" height="140" fill="white"/>
</clipPath>
</defs>
</svg>
