<svg width="662" height="660" viewBox="0 0 662 660" fill="none" xmlns="http://www.w3.org/2000/svg">
<g opacity="0.1">
<path d="M612.872 298.82V250.43C612.872 113.351 501.556 1.72215 364.313 0.63418V0.608398C364.087 0.608398 363.865 0.623867 363.64 0.625156C363.191 0.622578 362.744 0.608398 362.294 0.608398H313.527C176.016 0.608398 64.0382 111.616 62.9727 248.467H0V411.533H62.974C64.0382 548.384 176.017 659.392 313.528 659.392H362.295C362.745 659.392 363.191 659.377 363.641 659.375C363.866 659.376 364.088 659.392 364.315 659.392V659.366C501.557 658.278 612.874 546.649 612.874 409.57V361.179L662 330.001L612.872 298.82ZM554.857 163.675C558.22 171.065 561.157 178.689 563.659 186.503H504.513V225.64H572.145C573.106 233.774 573.617 242.043 573.617 250.43V273.906L533.535 248.468H459.846C467.425 236.107 471.798 221.59 471.798 206.072C471.798 190.554 467.424 176.038 459.846 163.676H554.857V163.675ZM130.854 372.396V287.605H390.02C390.028 287.605 390.037 287.605 390.045 287.605H508.19V372.397H390.02V372.396H130.854V372.396ZM363.64 39.7637C397.528 39.9764 429.55 48.1748 457.901 62.5736H367.587V101.711H511.835C518.964 108.836 525.587 116.463 531.64 124.539H390.02H364.315C340.867 124.539 321.79 105.521 321.79 82.1429C321.789 58.99 340.502 40.1246 363.64 39.7637ZM163.994 101.712H249.821V62.5736H217.904C241.119 50.78 266.802 43.1565 293.951 40.6583C286.709 52.8206 282.534 67.0016 282.534 82.1429C282.534 97.6606 286.908 112.177 294.488 124.539H144.188C150.243 116.465 156.864 108.836 163.994 101.712ZM103.672 225.64H386.745V186.503H112.147C114.649 178.686 117.606 171.07 120.97 163.675H364.315H390.02C413.468 163.675 432.545 182.692 432.545 206.071C432.545 229.44 413.482 248.453 390.046 248.467H130.854H102.213C102.284 240.752 102.787 233.139 103.672 225.64ZM91.5978 372.396H82.5767H62.9482H39.2558V287.605H62.9482H82.5767H91.5978V372.396ZM293.949 619.344C266.799 616.846 241.118 609.221 217.903 597.429H249.82V558.292H163.992C156.863 551.167 150.244 543.54 144.188 535.464H294.485C286.906 547.824 282.532 562.342 282.532 577.86C282.532 593.001 286.707 607.182 293.949 619.344ZM120.97 496.326C117.606 488.932 114.649 481.318 112.147 473.498H386.745V434.361H103.672C102.786 426.863 102.284 419.25 102.214 411.533H130.855H390.021C413.469 411.533 432.545 430.552 432.545 453.929C432.545 477.306 413.469 496.325 390.02 496.325H364.315H120.97V496.326ZM511.835 558.292H367.588V597.429H457.902C429.553 611.829 397.531 620.026 363.641 620.239C340.503 619.878 321.79 601.012 321.79 577.86C321.79 554.482 340.868 535.464 364.315 535.464H390.02H531.64C525.585 543.537 518.963 551.166 511.835 558.292ZM573.617 409.571C573.617 417.958 573.107 426.229 572.145 434.361H504.513V473.498H563.659C561.157 481.313 558.221 488.934 554.857 496.326H459.846C467.425 483.966 471.798 469.448 471.798 453.93C471.798 438.413 467.424 423.895 459.844 411.534H533.532L573.617 386.096V409.571ZM547.446 356.311V303.691L588.899 330.001L547.446 356.311Z" fill="#AFDF9D"/>
</g>
</svg>
