<svg width="662" height="660" viewBox="0 0 662 660" fill="none" xmlns="http://www.w3.org/2000/svg">
<g opacity="0.1">
<path d="M576.309 63.7641H641.665V580.961H576.309V63.7641ZM446.17 82.4834L437.121 85.2861C425.793 88.8557 412.478 83.8848 407.898 74.424C405.702 69.8436 405.597 64.782 407.611 60.1527C409.947 54.7984 414.912 50.6083 421.212 48.6493L523.246 16.9624L535.666 107.603C536.365 112.218 535.064 116.931 531.994 120.835C528.239 125.632 522.204 128.741 515.435 129.383C514.624 129.466 513.715 129.508 512.841 129.508C501.295 129.508 491.491 122.174 490.037 112.469L488.463 98.7556C370.542 261.54 98.999 436.01 87.2159 443.525C83.2159 446.077 78.4327 447.437 73.3699 447.437C66.5448 447.437 60.1252 444.927 55.7686 440.527C51.7617 436.505 49.8876 431.374 50.468 426.103C51.0764 420.63 54.3701 415.596 59.5169 412.334C62.2791 410.563 331.234 237.223 446.17 82.4834ZM523.484 178.639V580.947H458.142V178.639H523.484ZM409.212 298.184V580.961H343.85V298.184H409.212ZM291.025 422.373V580.94H225.676V422.373H291.025ZM166.082 484.499V580.947H100.74V484.499H166.082ZM661.993 643.038H0V594.695H662L661.993 643.038Z" fill="#AFDF9D"/>
</g>
</svg>
