<svg width="44" height="44" viewBox="0 0 44 44" fill="none" xmlns="http://www.w3.org/2000/svg">
<path d="M37.583 12.8332H6.41634C5.93011 12.8332 5.4638 12.64 5.11998 12.2962C4.77616 11.9524 4.58301 11.4861 4.58301 10.9998C4.58301 10.5136 4.77616 10.0473 5.11998 9.70348C5.4638 9.35966 5.93011 9.1665 6.41634 9.1665H37.583C38.0692 9.1665 38.5356 9.35966 38.8794 9.70348C39.2232 10.0473 39.4163 10.5136 39.4163 10.9998C39.4163 11.4861 39.2232 11.9524 38.8794 12.2962C38.5356 12.64 38.0692 12.8332 37.583 12.8332Z" fill="#2D3E50"/>
<path d="M37.583 23.8332H6.41634C5.93011 23.8332 5.4638 23.64 5.11998 23.2962C4.77616 22.9524 4.58301 22.4861 4.58301 21.9998C4.58301 21.5136 4.77616 21.0473 5.11998 20.7035C5.4638 20.3597 5.93011 20.1665 6.41634 20.1665H37.583C38.0692 20.1665 38.5356 20.3597 38.8794 20.7035C39.2232 21.0473 39.4163 21.5136 39.4163 21.9998C39.4163 22.4861 39.2232 22.9524 38.8794 23.2962C38.5356 23.64 38.0692 23.8332 37.583 23.8332Z" fill="#2D3E50"/>
<path d="M37.583 34.8332H6.41634C5.93011 34.8332 5.4638 34.64 5.11998 34.2962C4.77616 33.9524 4.58301 33.4861 4.58301 32.9998C4.58301 32.5136 4.77616 32.0473 5.11998 31.7035C5.4638 31.3597 5.93011 31.1665 6.41634 31.1665H37.583C38.0692 31.1665 38.5356 31.3597 38.8794 31.7035C39.2232 32.0473 39.4163 32.5136 39.4163 32.9998C39.4163 33.4861 39.2232 33.9524 38.8794 34.2962C38.5356 34.64 38.0692 34.8332 37.583 34.8332Z" fill="#2D3E50"/>
</svg>
