<svg width="54" height="54" viewBox="0 0 54 54" fill="none" xmlns="http://www.w3.org/2000/svg">
<path d="M27 0C12.1121 0 0 12.1121 0 27C0 41.8879 12.1121 54 27 54C41.8879 54 54 41.8879 54 27C54 12.1121 41.8879 0 27 0ZM27 50.9109C13.8156 50.9109 3.08913 40.1844 3.08913 27C3.08913 13.8156 13.8156 3.08913 27 3.08913C40.1844 3.08913 50.9109 13.8156 50.9109 27C50.9109 40.1844 40.1844 50.9109 27 50.9109Z" fill="#E5E5E5"/>
<path d="M36.8327 13.7854H17.168C15.3699 13.7854 13.9072 15.2481 13.9072 17.0461V36.9539C13.9072 38.7519 15.3699 40.2146 17.168 40.2146H36.8327C38.6307 40.2146 40.0934 38.7519 40.0934 36.9539V17.0461C40.0934 15.2483 38.6307 13.7854 36.8327 13.7854ZM37.0043 36.9539C37.0043 37.0486 36.9274 37.1255 36.8327 37.1255H17.168C17.0732 37.1255 16.9964 37.0486 16.9964 36.9539V17.0461C16.9964 16.9514 17.0732 16.8745 17.168 16.8745H36.8327C36.9274 16.8745 37.0043 16.9514 37.0043 17.0461V36.9539Z" fill="#E5E5E5"/>
<path d="M35.0438 19.189H31.5059V22.4344H35.0438V19.189Z" fill="#E5E5E5"/>
<path d="M26.9997 31.7958C28.926 31.7958 30.4876 30.2341 30.4876 28.3078C30.4876 26.3814 28.926 24.8198 26.9997 24.8198C25.0733 24.8198 23.5117 26.3814 23.5117 28.3078C23.5117 30.2341 25.0733 31.7958 26.9997 31.7958Z" fill="#E5E5E5"/>
<path d="M32.5635 28.2923C32.5635 31.3649 30.0726 33.8558 27 33.8558C23.9273 33.8558 21.4364 31.3649 21.4364 28.2923L21.444 25.8132H18.9561V35.0396H35.044V25.8132H32.5763L32.5635 28.2923Z" fill="#E5E5E5"/>
</svg>
