<svg width="400" height="400" viewBox="0 0 400 400" fill="none" xmlns="http://www.w3.org/2000/svg">
<path fill-rule="evenodd" clip-rule="evenodd" d="M284.898 67.3016L235.197 117.004L243.901 125.701L252.604 134.397L302.4 84.5996L352.196 34.8026L343.601 26.2006C338.874 21.4706 334.915 17.5996 334.803 17.5996C334.691 17.5996 312.233 39.9656 284.898 67.3016ZM130.8 74.1086C103.249 89.4036 79.409 116.724 67.892 146.2C65.635 151.978 62.4 161.912 62.4 163.067C62.4 163.499 64.694 163.6 74.515 163.6H86.63L87.954 159.5C96.696 132.429 115.91 108.291 140.3 93.7386C142.775 92.2626 144.8 90.9736 144.8 90.8746C144.8 90.5116 134.993 72.0016 134.8 72.0006C134.69 72.0006 132.89 72.9486 130.8 74.1086ZM269.4 172.008C259.2 173.1 253.158 178.565 253.17 186.689C253.182 195.29 256.521 198.145 270.587 201.585C280.441 203.994 282.795 205.548 282.799 209.641C282.805 217.571 266.598 219.006 256.12 212.002L254.84 211.147L253.866 213.073C253.33 214.133 252.608 215.678 252.263 216.507L251.635 218.015L253.717 219.389C266.379 227.74 287.748 224.102 290.857 213.065C293.699 202.977 289.096 198.021 273.294 194.154C264.054 191.893 261.6 190.275 261.6 186.445C261.6 179.27 274.912 176.547 284.309 181.799C285.295 182.349 286.234 182.8 286.397 182.8C286.634 182.8 288.557 178.884 289.49 176.501C290.339 174.33 276.537 171.244 269.4 172.008ZM67.2 197.8V223.2H71.4H75.6V197.8V172.4H71.4H67.2V197.8ZM92.8 197.8V223.2H96.996H101.192L101.296 205.382L101.4 187.564L115.6 205.381L129.8 223.197L133.3 223.199L136.8 223.2V197.8V172.4H132.604H128.408L128.304 190.295L128.2 208.189L114 190.3L99.8 172.41L96.3 172.405L92.8 172.4V197.8ZM146.171 173.086C146.317 173.479 151.244 184.914 157.119 198.497L167.8 223.194L172.023 223.197L176.246 223.2L186.985 198.5C192.892 184.915 197.807 173.485 197.909 173.1C198.076 172.466 197.698 172.4 193.909 172.4H189.724L180.973 192.631C176.159 203.759 172.163 212.714 172.093 212.531C172.023 212.349 168.148 203.29 163.483 192.4L155 172.6L150.452 172.486C146.229 172.381 145.923 172.424 146.171 173.086ZM207.2 197.796V223.2H225.8H244.4V219.6V216H230H215.6V208.606V201.212L227.9 201.106L240.2 201L240.316 197.5L240.431 194H228.016H215.6V186.8V179.6H229.616H243.631L243.516 176.1L243.4 172.6L225.3 172.496L207.2 172.392V197.796ZM294.4 175.996V179.6H302.8H311.2V201.4V223.2H315.4H319.6V201.4V179.6H328.216H336.831L336.716 176.1L336.6 172.6L315.5 172.496L294.4 172.393V175.996ZM62.143 235.1C62.252 235.485 62.465 236.43 62.617 237.2C62.948 238.871 65.452 246.899 66.174 248.6C66.454 249.26 67.377 251.6 68.226 253.8C81.144 287.307 110.407 317.407 144.2 331.948C146.4 332.895 148.744 333.913 149.408 334.21C152.662 335.665 165.424 339.51 165.788 339.145C165.867 339.065 167.3 333.69 168.972 327.2C170.644 320.71 172.101 315.119 172.209 314.775C172.363 314.289 171.677 313.944 169.103 313.211C157.943 310.037 135.645 299.252 132.8 295.653C132.69 295.514 130.89 294.104 128.8 292.52C111.127 279.128 96.34 258.903 89.156 238.295L87.8 234.404L74.873 234.402C62.753 234.4 61.958 234.444 62.143 235.1Z" fill="#E1F0BA"/>
<path fill-rule="evenodd" clip-rule="evenodd" d="M193.167 55.3637C193.075 55.4547 190.57 55.7327 187.6 55.9817C178.346 56.7597 162.899 59.9997 157 62.4007C156.56 62.5797 154.31 63.3957 152 64.2127C147.405 65.8377 144.14 67.2397 138.526 69.9957L134.851 71.7997L139.816 81.1997C142.547 86.3697 144.786 90.7017 144.791 90.8267C144.796 90.9517 142.775 92.2627 140.3 93.7387C131.458 99.0147 123.923 104.968 116.6 112.463C112.35 116.814 112.39 116.784 117.8 111.579C155.858 74.9617 209.502 66.8257 256.71 90.5117L260.02 92.1727L268.01 84.1897C276.42 75.7877 276.517 75.6617 275.097 74.9517C274.604 74.7047 271.41 73.0767 268 71.3337C257.134 65.7797 247.164 61.9687 237.4 59.6397C235.42 59.1677 233.17 58.6047 232.4 58.3897C231.63 58.1737 229.29 57.7187 227.2 57.3767C223.599 56.7887 221.557 56.5347 212.923 55.5987C209.386 55.2147 193.509 55.0267 193.167 55.3637ZM288.496 98.5037C284.263 102.741 280.8 106.358 280.8 106.542C280.8 106.725 282.181 108.164 283.868 109.738C297.95 122.875 309.144 140.343 315.452 159.025L316.996 163.6H329.298C339.275 163.6 341.6 163.499 341.6 163.067C341.6 162.474 340.512 158.833 338.712 153.4C332.524 134.723 322.207 117.39 307.823 101.503C304.05 97.3357 297.156 90.7997 296.534 90.7997C296.346 90.7997 292.729 94.2667 288.496 98.5037ZM315.807 234.9C303.208 272.376 274.047 300.879 236.784 312.14C210.323 320.136 179.331 318.429 154.8 307.624C149.748 305.399 149.086 305.235 153 307.179C156.628 308.981 164.195 311.815 169.103 313.211C171.677 313.944 172.363 314.289 172.209 314.775C172.101 315.119 170.644 320.709 168.972 327.197C167.301 333.686 165.756 339.103 165.54 339.237C165.155 339.475 168.663 340.339 174.2 341.371C175.74 341.657 177.45 342.005 178 342.144C185.758 344.095 218.242 344.095 226 342.144C226.55 342.005 228.26 341.662 229.8 341.38C232.289 340.925 234.707 340.36 240.77 338.815C280.271 328.754 317.497 296.347 334.292 257.4C337.196 250.667 342 236.557 342 234.763C342 234.159 316.011 234.294 315.807 234.9ZM117 282.4C117.859 283.28 118.652 284 118.762 284C118.872 284 118.259 283.28 117.4 282.4C116.541 281.52 115.748 280.8 115.638 280.8C115.528 280.8 116.141 281.52 117 282.4ZM143.2 302.184C143.2 302.294 143.92 302.751 144.8 303.2C145.68 303.649 146.4 303.926 146.4 303.816C146.4 303.706 145.68 303.249 144.8 302.8C143.92 302.351 143.2 302.074 143.2 302.184Z" fill="#77E35D"/>
<path fill-rule="evenodd" clip-rule="evenodd" d="M305.394 46.4012C289.331 62.4602 276.282 75.6002 276.395 75.6002C276.509 75.6002 289.741 62.4602 305.8 46.4002C321.859 30.3402 334.908 17.2002 334.799 17.2012C334.69 17.2012 321.457 30.3412 305.394 46.4012ZM194.9 77.4762C195.285 77.5762 195.915 77.5762 196.3 77.4762C196.685 77.3752 196.37 77.2932 195.6 77.2932C194.83 77.2932 194.515 77.3752 194.9 77.4762ZM147.9 89.8262C146.855 90.3702 146 90.9052 146 91.0142C146 91.1932 149.96 89.3232 150.367 88.9522C150.862 88.5012 149.561 88.9622 147.9 89.8262ZM247.198 104.7L235 117L247.3 104.802C258.731 93.4672 259.78 92.4002 259.498 92.4002C259.441 92.4002 253.906 97.9352 247.198 104.7ZM120.581 108.9L119 110.6L120.7 109.019C122.281 107.548 122.584 107.2 122.281 107.2C122.216 107.2 121.451 107.965 120.581 108.9ZM113.2 116.2C112.228 117.19 111.523 118 111.633 118C111.743 118 112.628 117.19 113.6 116.2C114.572 115.21 115.277 114.4 115.167 114.4C115.057 114.4 114.172 115.21 113.2 116.2ZM243.6 125.8C248.326 130.53 252.283 134.4 252.393 134.4C252.503 134.4 248.726 130.53 244 125.8C239.274 121.07 235.317 117.2 235.207 117.2C235.097 117.2 238.874 121.07 243.6 125.8ZM104 127.6C103.53 128.26 103.236 128.8 103.346 128.8C103.456 128.8 103.93 128.26 104.4 127.6C104.87 126.94 105.164 126.4 105.054 126.4C104.944 126.4 104.47 126.94 104 127.6ZM94.5801 143.24C94.0111 144.362 93.6131 145.347 93.6951 145.429C93.7771 145.511 94.3271 144.593 94.9181 143.389C95.5081 142.185 95.9061 141.2 95.8021 141.2C95.6981 141.2 95.1481 142.118 94.5801 143.24ZM270.1 171.876C270.485 171.976 271.115 171.976 271.5 171.876C271.885 171.775 271.57 171.693 270.8 171.693C270.03 171.693 269.715 171.775 270.1 171.876ZM274.5 171.876C274.885 171.976 275.515 171.976 275.9 171.876C276.285 171.775 275.97 171.693 275.2 171.693C274.43 171.693 274.115 171.775 274.5 171.876ZM75.7881 197.8C75.7881 211.88 75.8391 217.582 75.9001 210.471C75.9611 203.36 75.9611 191.84 75.9001 184.871C75.8381 177.902 75.7881 183.72 75.7881 197.8ZM136.988 198C136.988 211.97 137.039 217.685 137.1 210.7C137.161 203.715 137.161 192.285 137.1 185.3C137.039 178.315 136.988 184.03 136.988 198ZM294.174 176.2L294.2 179.8L302.7 179.812L311.201 179.824L302.816 179.704L294.431 179.584L294.289 176.092L294.147 172.6L294.174 176.2ZM215.6 186.8V194L228.1 193.906L240.6 193.812L228.3 193.7L216 193.588V186.799V180.01L229.9 179.9L243.8 179.789L229.7 179.695L215.6 179.6V186.8ZM319.696 201.5L319.793 223.4L319.9 201.708L320.007 180.016L328.303 179.9L336.6 179.783L328.1 179.691L319.6 179.6L319.696 201.5ZM101.296 205.5L101.391 223.4L101.5 205.879C101.585 192.071 101.714 188.421 102.104 188.656C102.433 188.853 102.415 188.726 102.051 188.277C101.749 187.905 101.434 187.6 101.351 187.6C101.268 187.6 101.243 195.655 101.296 205.5ZM288 200.2C288.746 200.97 289.447 201.6 289.557 201.6C289.667 201.6 289.146 200.97 288.4 200.2C287.654 199.43 286.953 198.8 286.843 198.8C286.733 198.8 287.254 199.43 288 200.2ZM215.69 208.5L215.6 216L230.1 215.905L244.6 215.81L230.309 215.7L216.018 215.59L215.899 208.295L215.781 201L215.69 208.5ZM93.6001 248.947C93.6001 249.38 95.5881 253.2 95.8131 253.2C95.9231 253.2 95.5391 252.255 94.9591 251.1C93.8431 248.879 93.6001 248.494 93.6001 248.947ZM97.4001 256.4C97.7411 257.06 98.1111 257.6 98.2211 257.6C98.3311 257.6 98.1411 257.06 97.8001 256.4C97.4591 255.74 97.0891 255.2 96.9791 255.2C96.8691 255.2 97.0591 255.74 97.4001 256.4ZM104 266.8C104.47 267.46 104.944 268 105.054 268C105.164 268 104.87 267.46 104.4 266.8C103.93 266.14 103.456 265.6 103.346 265.6C103.236 265.6 103.53 266.14 104 266.8ZM113.4 278.4C114.483 279.5 115.46 280.4 115.57 280.4C115.68 280.4 114.883 279.5 113.8 278.4C112.717 277.3 111.74 276.4 111.63 276.4C111.52 276.4 112.317 277.3 113.4 278.4ZM120.783 285.7C122.441 287.466 122.8 287.784 122.8 287.483C122.8 287.419 121.945 286.564 120.9 285.583L119 283.8L120.783 285.7ZM131.2 294.146C131.2 294.256 131.74 294.73 132.4 295.2C133.06 295.67 133.6 295.964 133.6 295.854C133.6 295.744 133.06 295.27 132.4 294.8C131.74 294.33 131.2 294.036 131.2 294.146ZM146 303.398C146 303.667 150.049 305.684 150.229 305.505C150.311 305.423 149.393 304.873 148.189 304.282C146.985 303.692 146 303.294 146 303.398ZM255.6 304.4C254.39 305.039 253.541 305.571 253.713 305.581C254.138 305.607 258 303.636 258 303.393C258 303.126 258.055 303.103 255.6 304.4ZM194.7 317.082C195.195 317.178 196.005 317.178 196.5 317.082C196.995 316.987 196.59 316.909 195.6 316.909C194.61 316.909 194.205 316.987 194.7 317.082ZM207.5 317.082C207.995 317.178 208.805 317.178 209.3 317.082C209.795 316.987 209.39 316.909 208.4 316.909C207.41 316.909 207.005 316.987 207.5 317.082Z" fill="#71807C"/>
</svg>
