<svg width="400" height="400" viewBox="0 0 400 400" fill="none" xmlns="http://www.w3.org/2000/svg">
<path fill-rule="evenodd" clip-rule="evenodd" d="M284.898 67.3016L235.197 117.004L243.901 125.701L252.604 134.397L302.4 84.5996L352.196 34.8026L343.601 26.2006C338.874 21.4706 334.915 17.5996 334.803 17.5996C334.691 17.5996 312.233 39.9656 284.898 67.3016ZM76.3999 199.6V220H90.3999H104.4V217V214H93.7999H83.1999V196.6V179.2H79.7999H76.3999V199.6ZM112 199.6V220H115.4H118.8V199.6V179.2H115.4H112V199.6ZM132.4 199.598V220.06L144.9 219.904C158.707 219.732 159.76 219.573 163.455 217.096C169.671 212.931 168.667 202.029 161.841 199.56L160.481 199.069L162.415 197.186C166.856 192.859 166.513 185.809 161.682 182.129C158.491 179.698 157.094 179.473 144.1 179.296L132.4 179.137V199.598ZM177.2 199.6V220H180.6H184V214V208L189.7 208.019L195.4 208.038L199.56 214.019L203.72 220H207.26C209.207 220 210.8 219.922 210.8 219.827C210.8 219.731 208.733 216.738 206.206 213.174L201.612 206.694L203.195 205.91C212.741 201.187 212.707 186.218 203.139 181.369C199.65 179.601 196.674 179.215 186.5 179.207L177.2 179.2V199.6ZM223.999 198.285C219.321 208.798 215.245 217.985 214.941 218.7L214.389 220L217.695 219.995L221 219.989L223.024 215.295L225.049 210.6H235.811H246.574L248.575 215.3L250.577 220H253.889C255.71 220 257.192 219.865 257.183 219.7C257.173 219.535 253.138 210.4 248.216 199.4L239.266 179.4L235.886 179.285L232.505 179.17L223.999 198.285ZM264 199.6V220H267.4H270.8V214V208L276.5 208.019L282.2 208.038L286.36 214.019L290.52 220H294.06C296.007 220 297.6 219.922 297.6 219.827C297.6 219.731 295.533 216.738 293.006 213.174L288.412 206.694L289.995 205.91C299.541 201.187 299.507 186.218 289.939 181.369C286.45 179.601 283.474 179.215 273.3 179.207L264 179.2V199.6ZM301.2 179.418C301.2 179.538 304.8 185.677 309.2 193.06L317.2 206.483V213.241V220H320.6H324V213.343V206.687L331.818 193.529C336.118 186.292 339.737 180.108 339.861 179.786C340.047 179.3 339.513 179.2 336.738 179.2H333.391L327.195 189.588C323.788 195.302 320.91 199.98 320.8 199.985C320.69 199.99 317.81 195.321 314.4 189.611L308.2 179.228L304.7 179.214C302.775 179.206 301.2 179.298 301.2 179.418ZM155.599 185.422C159.936 187.969 159.825 193.577 155.395 195.8C154.011 196.494 152.836 196.617 146.5 196.732L139.2 196.864V190.594V184.325L146.7 184.463C153.398 184.585 154.35 184.688 155.599 185.422ZM197.627 185.443C202.044 186.751 204.318 190.961 203.231 195.817C202.106 200.843 198.912 202.4 189.727 202.4H184V193.6V184.8H189.727C193.823 184.8 196.074 184.983 197.627 185.443ZM284.427 185.443C288.844 186.751 291.118 190.961 290.031 195.817C288.906 200.843 285.712 202.4 276.527 202.4H270.8V193.6V184.8H276.527C280.623 184.8 282.874 184.983 284.427 185.443ZM239.997 195.2C242.022 199.93 243.77 204.025 243.882 204.3C244.041 204.69 242.279 204.8 235.843 204.8C231.309 204.8 227.6 204.735 227.6 204.657C227.6 204.578 228.692 202.013 230.027 198.957C231.362 195.9 233.187 191.724 234.082 189.675C234.977 187.626 235.846 186.096 236.012 186.275C236.179 186.454 237.972 190.47 239.997 195.2ZM157.377 203.027C159.794 204.295 160.6 205.639 160.6 208.4C160.6 213.583 158.584 214.557 147.5 214.729L139.2 214.858V208.4V201.942L147.5 202.071C154.969 202.187 155.958 202.283 157.377 203.027Z" fill="#FBFBFB"/>
<path fill-rule="evenodd" clip-rule="evenodd" d="M193.167 55.3637C193.075 55.4547 190.57 55.7327 187.6 55.9817C178.346 56.7597 162.899 59.9997 157 62.4007C156.56 62.5797 154.31 63.3937 152 64.2087C147.028 65.9637 146.683 66.1117 139.221 69.6937C132.059 73.1307 124.042 77.7967 119.337 81.2687C118.643 81.7807 117.681 82.4697 117.199 82.7997C97.2309 96.4777 77.246 122.173 67.888 146.2C65.619 152.024 62.4 161.919 62.4 163.067C62.4 163.499 64.695 163.6 74.521 163.6H86.643L87.563 160.7C109.918 90.2517 189.827 56.9257 256.303 90.3267L260.005 92.1867L268.003 84.1967C276.42 75.7877 276.517 75.6617 275.097 74.9517C274.604 74.7047 271.41 73.0767 268 71.3337C257.134 65.7797 247.164 61.9687 237.4 59.6397C235.42 59.1677 233.17 58.6047 232.4 58.3897C231.63 58.1737 229.29 57.7187 227.2 57.3767C223.599 56.7887 221.557 56.5347 212.923 55.5987C209.386 55.2147 193.509 55.0267 193.167 55.3637ZM288.496 98.5037C284.263 102.741 280.8 106.36 280.8 106.547C280.8 106.733 282.482 108.477 284.537 110.422C298.41 123.552 309.241 140.602 315.461 159.1L316.973 163.6H329.331H341.689L341.425 162.192C339.407 151.437 329.503 130.158 320.507 117.25C314.362 108.433 298.476 90.7997 296.678 90.7997C296.411 90.7997 292.729 94.2667 288.496 98.5037ZM62.002 234.7C62.011 235.887 65.092 246.015 66.249 248.66C66.552 249.354 66.8 250.198 66.8 250.537C66.8 250.876 66.96 251.252 67.156 251.373C67.351 251.494 67.634 252.083 67.785 252.682C68.034 253.676 68.374 254.508 70.279 258.8C84.398 290.595 114.009 319.852 144.639 332.271C145.277 332.53 146.895 333.195 148.234 333.748C173.91 344.364 209.559 346.895 236.2 339.992C237.96 339.536 240.12 338.983 241 338.763C243.33 338.181 252.932 334.92 255.766 333.748C257.105 333.195 258.723 332.53 259.361 332.271C290.44 319.67 320.31 289.824 334.292 257.4C337.2 250.656 342 236.557 342 234.758C342 234.538 336.734 234.432 328.967 234.495L315.934 234.6L314.211 239.2C285.99 314.566 193.916 341.283 129.414 292.822C111.627 279.459 97.312 260.173 89.538 239.1L87.804 234.4H74.902C67.806 234.4 62.001 234.535 62.002 234.7Z" fill="#3EF0AA"/>
<path fill-rule="evenodd" clip-rule="evenodd" d="M305.199 46.6996L276.2 75.7996L305.3 46.8006C332.351 19.8436 334.579 17.5996 334.299 17.5996C334.243 17.5996 321.148 30.6946 305.199 46.6996ZM247.198 104.7L235 117L247.3 104.802C258.731 93.4666 259.78 92.3996 259.498 92.3996C259.441 92.3996 253.906 97.9346 247.198 104.7ZM243.6 125.8C248.326 130.53 252.283 134.4 252.393 134.4C252.503 134.4 248.726 130.53 244 125.8C239.274 121.07 235.317 117.2 235.207 117.2C235.097 117.2 238.874 121.07 243.6 125.8ZM203.309 193.6C203.309 194.59 203.387 194.995 203.482 194.5C203.578 194.005 203.578 193.195 203.482 192.7C203.387 192.205 203.309 192.61 203.309 193.6ZM290.109 193.6C290.109 194.59 290.187 194.995 290.282 194.5C290.378 194.005 290.378 193.195 290.282 192.7C290.187 192.205 290.109 192.61 290.109 193.6ZM104.537 217C104.539 218.76 104.609 219.43 104.693 218.489C104.778 217.549 104.777 216.109 104.691 215.289C104.605 214.47 104.536 215.24 104.537 217Z" fill="#7F8790"/>
</svg>
