<svg width="400" height="400" viewBox="0 0 400 400" fill="none" xmlns="http://www.w3.org/2000/svg">
<path fill-rule="evenodd" clip-rule="evenodd" d="M284.898 67.3016L235.197 117.004L243.901 125.701L252.604 134.397L302.4 84.5996L352.196 34.8026L343.601 26.2006C338.874 21.4706 334.915 17.5996 334.803 17.5996C334.691 17.5996 312.233 39.9656 284.898 67.3016ZM24 199.6V220H38H52V217V214H41.4H30.8V196.6V179.2H27.4H24V199.6ZM59.6 199.6V220H63H66.4V199.6V179.2H63H59.6V199.6ZM73.771 179.9C73.912 180.285 77.846 189.47 82.514 200.311L91 220.023L94.35 219.911L97.699 219.8L106.45 199.616C111.262 188.514 115.2 179.379 115.2 179.316C115.2 179.252 113.698 179.2 111.863 179.2H108.526L101.566 195.364C97.739 204.254 94.509 211.467 94.389 211.393C94.269 211.319 91.117 204.046 87.385 195.23L80.6 179.202L77.057 179.201C73.852 179.2 73.539 179.267 73.771 179.9ZM122.8 199.6V220H137.6H152.4V217V214H141H129.6V208V202H139.4H149.2V199.2V196.4H139.4H129.6V190.6V184.8H140.6H151.6V182V179.2H137.2H122.8V199.6ZM175.2 182V184.8H182H188.8V202.4V220H192H195.2V202.4V184.8H202H208.8V182V179.2H192H175.2V182ZM216 199.6V220H219.4H222.8V214V208L228.5 208.015L234.2 208.03L238.376 214.015L242.551 220H246.076C248.014 220 249.6 219.935 249.6 219.855C249.6 219.775 247.521 216.768 244.981 213.173L240.362 206.636L242.001 205.8C251.674 200.865 251.469 186.12 241.658 181.212C238.45 179.607 235.243 179.214 225.3 179.207L216 179.2V199.6ZM262.418 199.286C257.505 210.348 253.411 219.535 253.319 219.7C253.228 219.865 254.648 219.996 256.476 219.99L259.8 219.98L261.821 215.29L263.842 210.6H274.608H285.374L287.375 215.3L289.377 220H292.689C294.51 220 296 219.911 296 219.803C296 219.695 291.958 210.56 287.017 199.503L278.034 179.4L274.692 179.286L271.35 179.171L262.418 199.286ZM302.8 199.6V220.074L314.1 219.902C326.436 219.715 327.475 219.554 332.084 217.114C345.11 210.219 345.11 188.981 332.084 182.086C327.475 179.646 326.436 179.485 314.1 179.298L302.8 179.126V199.6ZM352 199.6V220H366.8H381.6V217V214H370.2H358.8V208V202H368.6H378.4V199.2V196.4H368.6H358.8V190.6V184.8H369.8H380.8V182V179.2H366.4H352V199.6ZM236.416 185.442C244.449 187.828 244.449 199.372 236.416 201.758C234.872 202.217 232.62 202.4 228.527 202.4H222.8V193.6V184.8H228.527C232.62 184.8 234.872 184.983 236.416 185.442ZM327.117 186.168C337.891 191.118 337.891 207.682 327.117 212.632C324.675 213.754 324.377 213.793 317.1 213.932L309.6 214.075V199.4V184.725L317.1 184.868C324.377 185.007 324.675 185.046 327.117 186.168ZM278.958 195.514C281.071 200.417 282.8 204.512 282.8 204.614C282.8 204.716 279.11 204.8 274.6 204.8C270.09 204.8 266.4 204.739 266.4 204.665C266.4 204.59 268.039 200.765 270.041 196.165C272.044 191.564 273.851 187.366 274.056 186.835C274.592 185.449 274.709 185.656 278.958 195.514Z" fill="#FBFBFB"/>
<path fill-rule="evenodd" clip-rule="evenodd" d="M193.167 55.3637C193.075 55.4547 190.57 55.7327 187.6 55.9817C178.346 56.7597 162.899 59.9997 157 62.4007C156.56 62.5797 154.31 63.3937 152 64.2087C147.028 65.9637 146.683 66.1117 139.221 69.6937C132.059 73.1307 124.042 77.7967 119.337 81.2687C118.643 81.7807 117.681 82.4697 117.199 82.7997C97.2309 96.4777 77.2459 122.173 67.8879 146.2C65.6189 152.024 62.3999 161.919 62.3999 163.067C62.3999 163.499 64.6959 163.6 74.5269 163.6H86.6539L87.3689 161.3C109.417 90.3427 189.582 56.8317 256.71 90.5117L260.02 92.1727L268.01 84.1897C276.42 75.7877 276.517 75.6617 275.097 74.9517C274.604 74.7047 271.41 73.0767 268 71.3337C257.134 65.7797 247.164 61.9687 237.4 59.6397C235.42 59.1677 233.17 58.6047 232.4 58.3897C231.63 58.1737 229.29 57.7187 227.2 57.3767C223.599 56.7887 221.557 56.5347 212.923 55.5987C209.386 55.2147 193.509 55.0267 193.167 55.3637ZM288.496 98.5037C284.263 102.741 280.8 106.358 280.8 106.542C280.8 106.725 282.181 108.164 283.868 109.738C297.95 122.875 309.144 140.343 315.452 159.025L316.996 163.6H329.298C339.275 163.6 341.6 163.499 341.6 163.067C341.6 162.474 340.512 158.833 338.712 153.4C332.524 134.723 322.207 117.39 307.823 101.503C304.05 97.3357 297.156 90.7997 296.534 90.7997C296.346 90.7997 292.729 94.2667 288.496 98.5037ZM62.1429 235.1C62.2519 235.485 62.4649 236.43 62.6169 237.2C62.9479 238.871 65.4519 246.899 66.1739 248.6C66.4539 249.26 67.3769 251.6 68.2259 253.8C81.0699 287.114 112.258 319.142 144.639 332.271C145.277 332.53 146.942 333.214 148.337 333.792C152.25 335.411 162.196 338.625 166.2 339.565C168.18 340.03 170.34 340.576 171 340.779C171.66 340.982 173.1 341.265 174.2 341.407C175.3 341.549 176.74 341.82 177.4 342.01C184.558 344.069 217.979 344.161 226 342.144C226.55 342.005 228.26 341.662 229.8 341.38C232.289 340.925 234.707 340.36 240.77 338.815C280.271 328.754 317.497 296.347 334.292 257.4C337.2 250.656 342 236.557 342 234.758C342 234.538 336.739 234.432 328.979 234.495L315.957 234.6L313.845 240.2C293.025 295.397 234.993 326.836 176.616 314.542C136.871 306.173 103.812 277.567 89.4499 239.117C88.6529 236.982 87.9999 235.047 87.9999 234.817C87.9999 234.536 83.7539 234.4 74.9729 234.4C62.7579 234.4 61.9579 234.444 62.1429 235.1Z" fill="#F7793A"/>
<path fill-rule="evenodd" clip-rule="evenodd" d="M305.314 46.4812C289.206 62.5852 276.074 75.8072 276.131 75.8642C276.188 75.9212 289.456 62.7452 305.616 46.5842C321.776 30.4232 334.908 17.2002 334.799 17.2012C334.69 17.2012 321.421 30.3772 305.314 46.4812ZM195.305 77.4872C195.914 77.5792 196.814 77.5772 197.305 77.4822C197.797 77.3872 197.3 77.3112 196.2 77.3142C195.1 77.3172 194.697 77.3952 195.305 77.4872ZM206.7 77.4822C207.195 77.5782 208.005 77.5782 208.5 77.4822C208.995 77.3872 208.59 77.3092 207.6 77.3092C206.61 77.3092 206.205 77.3872 206.7 77.4822ZM189.7 77.8762C190.085 77.9762 190.715 77.9762 191.1 77.8762C191.485 77.7752 191.17 77.6932 190.4 77.6932C189.63 77.6932 189.315 77.7752 189.7 77.8762ZM153.2 87.4002C152.65 87.7142 152.38 87.9722 152.6 87.9722C152.82 87.9722 153.45 87.7142 154 87.4002C154.55 87.0862 154.82 86.8282 154.6 86.8282C154.38 86.8282 153.75 87.0862 153.2 87.4002ZM147.9 89.8292C146.349 90.6702 146.525 90.9612 148.1 90.1592C149.608 89.3932 149.875 89.1942 149.367 89.2162C149.165 89.2252 148.505 89.5012 147.9 89.8292ZM247.398 104.5L235 117L247.5 104.602C254.375 97.7842 260 92.1592 260 92.1022C260 91.8202 258.919 92.8832 247.398 104.5ZM298.4 92.1252C298.4 92.1942 298.985 92.7792 299.7 93.4252L301 94.6002L299.825 93.3002C298.73 92.0882 298.4 91.8162 298.4 92.1252ZM137.7 95.6462C136.337 96.5192 135.895 97.1062 137.1 96.4432C138.018 95.9392 139.456 94.8272 139.2 94.8192C139.09 94.8162 138.415 95.1882 137.7 95.6462ZM307.2 100.925C307.2 100.994 307.785 101.579 308.5 102.225L309.8 103.4L308.625 102.1C307.53 100.888 307.2 100.616 307.2 100.925ZM120.185 109.3L118.2 111.4L120.3 109.415C121.455 108.323 122.4 107.378 122.4 107.315C122.4 107.017 122.029 107.349 120.185 109.3ZM113.785 115.7L111.8 117.8L113.9 115.815C115.055 114.723 116 113.778 116 113.715C116 113.417 115.629 113.749 113.785 115.7ZM100.953 132.1C99.5761 134.436 99.4861 134.635 100.187 133.8C101 132.832 101.7 131.6 101.438 131.6C101.333 131.6 101.115 131.825 100.953 132.1ZM94.5811 143.237C94.2291 143.918 94.0121 144.545 94.0991 144.632C94.1861 144.719 94.5561 144.162 94.9221 143.395C95.7441 141.67 95.4591 141.538 94.5811 143.237ZM92.0651 148.617C91.3951 150.088 91.5231 150.402 92.2471 149.065C92.5861 148.44 92.7881 147.854 92.6961 147.763C92.6051 147.671 92.3211 148.056 92.0651 148.617ZM91.6281 244.6C91.6281 244.82 91.8861 245.45 92.2001 246C92.5141 246.55 92.7721 246.82 92.7721 246.6C92.7721 246.38 92.5141 245.75 92.2001 245.2C91.8861 244.65 91.6281 244.38 91.6281 244.6ZM93.6001 248.947C93.6001 249.38 95.5881 253.2 95.8131 253.2C95.9231 253.2 95.5391 252.255 94.9591 251.1C93.8431 248.879 93.6001 248.494 93.6001 248.947ZM97.4001 256.4C97.7411 257.06 98.1111 257.6 98.2211 257.6C98.3311 257.6 98.1411 257.06 97.8001 256.4C97.4591 255.74 97.0891 255.2 96.9791 255.2C96.8691 255.2 97.0591 255.74 97.4001 256.4ZM99.9491 260.6C100.165 261.04 100.634 261.76 100.993 262.2L101.644 263L101.251 262.2C101.035 261.76 100.566 261.04 100.207 260.6L99.5561 259.8L99.9491 260.6ZM104 266.8C104.47 267.46 104.944 268 105.054 268C105.164 268 104.87 267.46 104.4 266.8C103.93 266.14 103.456 265.6 103.346 265.6C103.236 265.6 103.53 266.14 104 266.8ZM107.596 271.594C108.29 272.471 109.067 273.318 109.323 273.476C109.578 273.634 109.093 272.916 108.245 271.881C107.397 270.847 106.62 270 106.518 270C106.416 270 106.901 270.718 107.596 271.594ZM113.6 278.6C114.795 279.81 115.863 280.8 115.973 280.8C116.083 280.8 115.195 279.81 114 278.6C112.805 277.39 111.737 276.4 111.627 276.4C111.517 276.4 112.405 277.39 113.6 278.6ZM288.975 279.7L287.8 281L289.1 279.825C289.815 279.179 290.4 278.594 290.4 278.525C290.4 278.216 290.07 278.488 288.975 279.7ZM120.4 285.4C121.595 286.61 122.663 287.6 122.773 287.6C122.883 287.6 121.995 286.61 120.8 285.4C119.605 284.19 118.537 283.2 118.427 283.2C118.317 283.2 119.205 284.19 120.4 285.4ZM283.781 284.9L282.2 286.6L283.9 285.019C285.481 283.548 285.784 283.2 285.481 283.2C285.416 283.2 284.651 283.965 283.781 284.9ZM125.724 289.877C126.06 290.421 129.2 292.955 129.2 292.682C129.2 292.58 128.353 291.803 127.319 290.955C126.284 290.107 125.566 289.622 125.724 289.877ZM131.2 294.146C131.2 294.256 131.74 294.73 132.4 295.2C133.06 295.67 133.6 295.964 133.6 295.854C133.6 295.744 133.06 295.27 132.4 294.8C131.74 294.33 131.2 294.036 131.2 294.146ZM137 298.207C137.44 298.566 138.16 299.035 138.6 299.251L139.4 299.644L138.6 298.993C138.16 298.634 137.44 298.165 137 297.949L136.2 297.556L137 298.207ZM266.1 298.446C264.737 299.319 264.295 299.906 265.5 299.243C266.418 298.739 267.856 297.627 267.6 297.619C267.49 297.616 266.815 297.988 266.1 298.446ZM141.6 300.979C141.6 301.089 142.14 301.459 142.8 301.8C143.46 302.141 144 302.331 144 302.221C144 302.111 143.46 301.741 142.8 301.4C142.14 301.059 141.6 300.869 141.6 300.979ZM261.1 301.429C259.605 302.24 259.696 302.578 261.2 301.8C261.86 301.459 262.4 301.094 262.4 300.99C262.4 300.732 262.357 300.747 261.1 301.429ZM146 303.398C146 303.667 150.049 305.684 150.229 305.505C150.311 305.423 149.393 304.873 148.189 304.282C146.985 303.692 146 303.294 146 303.398ZM255.6 304.4C254.39 305.039 253.541 305.571 253.713 305.581C254.138 305.607 258 303.636 258 303.393C258 303.126 258.055 303.103 255.6 304.4ZM153.2 307C153.75 307.314 154.38 307.572 154.6 307.572C154.82 307.572 154.55 307.314 154 307C153.45 306.686 152.82 306.428 152.6 306.428C152.38 306.428 152.65 306.686 153.2 307ZM250 307C249.45 307.314 249.18 307.572 249.4 307.572C249.62 307.572 250.25 307.314 250.8 307C251.35 306.686 251.62 306.428 251.4 306.428C251.18 306.428 250.55 306.686 250 307ZM189.7 316.676C190.085 316.776 190.715 316.776 191.1 316.676C191.485 316.575 191.17 316.493 190.4 316.493C189.63 316.493 189.315 316.575 189.7 316.676ZM212.9 316.676C213.285 316.776 213.915 316.776 214.3 316.676C214.685 316.575 214.37 316.493 213.6 316.493C212.83 316.493 212.515 316.575 212.9 316.676ZM194.9 317.087C195.505 317.178 196.495 317.178 197.1 317.087C197.705 316.995 197.21 316.92 196 316.92C194.79 316.92 194.295 316.995 194.9 317.087ZM206.9 317.087C207.505 317.178 208.495 317.178 209.1 317.087C209.705 316.995 209.21 316.92 208 316.92C206.79 316.92 206.295 316.995 206.9 317.087Z" fill="#725C55"/>
<path fill-rule="evenodd" clip-rule="evenodd" d="M243.6 125.8C248.326 130.53 252.283 134.4 252.393 134.4C252.503 134.4 248.726 130.53 244 125.8C239.274 121.07 235.317 117.2 235.207 117.2C235.097 117.2 238.874 121.07 243.6 125.8ZM174.934 182C174.934 183.65 175.005 184.325 175.091 183.5C175.178 182.675 175.178 181.325 175.091 180.5C175.005 179.675 174.934 180.35 174.934 182ZM149.334 199.2C149.334 200.85 149.405 201.525 149.491 200.7C149.578 199.875 149.578 198.525 149.491 197.7C149.405 196.875 149.334 197.55 149.334 199.2ZM378.534 199.2C378.534 200.85 378.605 201.525 378.691 200.7C378.778 199.875 378.778 198.525 378.691 197.7C378.605 196.875 378.534 197.55 378.534 199.2ZM52.1372 217C52.1392 218.76 52.2092 219.43 52.2932 218.489C52.3782 217.549 52.3772 216.109 52.2912 215.289C52.2052 214.47 52.1362 215.24 52.1372 217Z" fill="#808992"/>
<path fill-rule="evenodd" clip-rule="evenodd" d="M151.734 182C151.734 183.65 151.805 184.325 151.891 183.5C151.978 182.675 151.978 181.325 151.891 180.5C151.805 179.675 151.734 180.35 151.734 182ZM208.934 182C208.934 183.65 209.005 184.325 209.091 183.5C209.178 182.675 209.178 181.325 209.091 180.5C209.005 179.675 208.934 180.35 208.934 182ZM380.934 182C380.934 183.65 381.005 184.325 381.091 183.5C381.178 182.675 381.178 181.325 381.091 180.5C381.005 179.675 380.934 180.35 380.934 182ZM335.2 184.125C335.2 184.194 335.785 184.779 336.5 185.425L337.8 186.6L336.625 185.3C335.53 184.088 335.2 183.816 335.2 184.125ZM188.584 202.4C188.584 212.19 188.636 216.195 188.7 211.3C188.763 206.405 188.763 198.395 188.7 193.5C188.636 188.605 188.584 192.61 188.584 202.4ZM195.384 202.4C195.384 212.19 195.436 216.195 195.5 211.3C195.563 206.405 195.563 198.395 195.5 193.5C195.436 188.605 195.384 192.61 195.384 202.4ZM336.175 214.1L335 215.4L336.3 214.225C337.015 213.579 337.6 212.994 337.6 212.925C337.6 212.616 337.27 212.888 336.175 214.1ZM152.537 217C152.539 218.76 152.609 219.43 152.693 218.489C152.778 217.549 152.777 216.109 152.691 215.289C152.605 214.47 152.536 215.24 152.537 217ZM381.737 217C381.739 218.76 381.809 219.43 381.893 218.489C381.978 217.549 381.977 216.109 381.891 215.289C381.805 214.47 381.736 215.24 381.737 217Z" fill="#949CA4"/>
</svg>
