<svg width="140" height="140" viewBox="0 0 140 140" fill="none" xmlns="http://www.w3.org/2000/svg">
<path d="M90.424 136.244L72.1559 119.612V102.767C72.1559 101.577 71.1909 100.611 69.9998 100.611C68.8087 100.611 67.8438 101.576 67.8438 102.767V119.099L49.5516 136.266C47.5186 138.175 50.4772 141.31 52.5028 139.41L67.8438 125.013V136.688C67.8438 137.879 68.8087 138.844 69.9998 138.844C71.1909 138.844 72.1559 137.879 72.1559 136.688V125.443L87.5212 139.432C89.5698 141.297 92.4846 138.12 90.424 136.244Z" fill="#4C4C4C"/>
<path d="M129.649 10.7797C129.649 4.83574 124.813 0 118.869 0H21.1313C15.1873 0 10.3516 4.83574 10.3516 10.7797V15.4749H129.649V10.7797V10.7797Z" fill="#666666"/>
<path d="M129.649 12.0732H10.3516V15.4748H129.649V12.0732Z" fill="#666666"/>
<path d="M10.3516 15.4746V102.768C10.3516 103.959 11.3165 104.924 12.5076 104.924H127.493C128.684 104.924 129.649 103.959 129.649 102.768V15.4746H10.3516Z" fill="#E5E5E5"/>
<path d="M25.2006 15.4746H10.3516V102.768C10.3516 103.959 11.3165 104.924 12.5076 104.924H114L25.2006 15.4746Z" fill="#E5E5E5"/>
<path d="M51.6004 57.9245C51.2231 57.9245 50.8402 57.8252 50.493 57.6172L38.9944 50.7181C37.9734 50.1053 37.6422 48.781 38.2547 47.76C38.8672 46.739 40.192 46.4079 41.2128 47.0204L52.7114 53.9195C53.7324 54.5322 54.0635 55.8565 53.451 56.8775C53.0469 57.5513 52.3329 57.9245 51.6004 57.9245Z" fill="#FF5C34"/>
<path d="M63.6757 53.8996C63.1241 53.8996 62.5721 53.689 62.151 53.2682C61.3091 52.426 61.3091 51.061 62.151 50.2191L74.7994 37.5707C75.6416 36.729 77.0066 36.729 77.8485 37.5707C78.6904 38.4129 78.6904 39.7779 77.8485 40.6198L65.2001 53.2682C64.7792 53.6893 64.2275 53.8996 63.6757 53.8996Z" fill="#7EDA6F"/>
<path d="M87.821 34.3525C86.8553 34.3525 85.9762 33.6984 85.7309 32.719C85.4421 31.5637 86.1443 30.3931 87.2996 30.1041L98.7982 27.2295C99.9532 26.9421 101.124 27.6432 101.413 28.7982C101.702 29.9534 101 31.124 99.8443 31.413L88.3458 34.2877C88.1702 34.3317 87.9944 34.3525 87.821 34.3525Z" fill="#7EDA6F"/>
<path d="M57.9267 48.4375C53.2506 48.4375 49.4465 52.2416 49.4465 56.9176C49.4465 61.5937 53.2506 65.3977 57.9267 65.3977C62.6027 65.3977 66.4068 61.5937 66.4068 56.9176C66.4068 52.2416 62.6024 48.4375 57.9267 48.4375Z" fill="#AFDF9D"/>
<path d="M61.2323 62.092C56.5562 62.092 52.7521 58.2879 52.7521 53.6119C52.7521 52.1216 53.1396 50.7211 53.8175 49.5029C51.213 50.9521 49.4463 53.7319 49.4463 56.9177C49.4463 61.5938 53.2504 65.3979 57.9264 65.3979C61.1122 65.3979 63.892 63.6312 65.3412 61.0267C64.123 61.7045 62.7222 62.092 61.2323 62.092Z" fill="#9BC68B"/>
<path d="M82.0734 26.5898C77.3973 26.5898 73.5933 30.3939 73.5933 35.07C73.5933 39.746 77.3973 43.5501 82.0734 43.5501C86.7494 43.5501 90.5535 39.746 90.5535 35.07C90.5535 30.3939 86.7491 26.5898 82.0734 26.5898Z" fill="#AFDF9D"/>
<path d="M85.0918 40.5325C80.4158 40.5325 76.6117 36.7284 76.6117 32.0523C76.6117 30.4872 77.0396 29.0207 77.782 27.7607C75.2782 29.2362 73.5935 31.9596 73.5935 35.0705C73.5935 39.7466 77.3976 43.5507 82.0736 43.5507C85.1845 43.5507 87.9077 41.8657 89.3834 39.3621C88.1234 40.1045 86.657 40.5325 85.0918 40.5325Z" fill="#9BC68B"/>
<path d="M106.22 20.8408C101.544 20.8408 97.7402 24.6449 97.7402 29.3209C97.7402 33.997 101.544 37.801 106.22 37.801C110.896 37.801 114.7 33.997 114.7 29.3209C114.7 24.6449 110.896 20.8408 106.22 20.8408Z" fill="#AFDF9D"/>
<path d="M109.095 34.9263C104.419 34.9263 100.615 31.1222 100.615 26.4461C100.615 24.8435 101.062 23.3432 101.838 22.0635C99.3836 23.551 97.7402 26.2476 97.7402 29.3208C97.7402 33.9968 101.544 37.8009 106.22 37.8009C109.294 37.8009 111.99 36.1575 113.478 33.7034C112.198 34.4792 110.697 34.9263 109.095 34.9263Z" fill="#9BC68B"/>
<path d="M33.7797 38.6641C29.1036 38.6641 25.2996 42.4681 25.2996 47.1442C25.2996 51.8202 29.1036 55.6243 33.7797 55.6243C38.4557 55.6243 42.2598 51.8202 42.2598 47.1442C42.2598 42.4681 38.4555 38.6641 33.7797 38.6641Z" fill="#FFD652"/>
<path d="M33.7797 38.6641C29.1036 38.6641 25.2996 42.4681 25.2996 47.1442C25.2996 51.8202 29.1036 55.6243 33.7797 55.6243C38.4557 55.6243 42.2598 51.8202 42.2598 47.1442C42.2598 42.4681 38.4555 38.6641 33.7797 38.6641Z" fill="#AFDF9D"/>
<path d="M37.0855 52.3186C32.4095 52.3186 28.6054 48.5145 28.6054 43.8384C28.6054 42.3482 28.9929 40.9477 29.6707 39.7295C27.0662 41.1787 25.2996 43.9585 25.2996 47.1443C25.2996 51.8204 29.1036 55.6244 33.7797 55.6244C36.9655 55.6244 39.7453 53.8577 41.1945 51.2532C39.9763 51.9311 38.5755 52.3186 37.0855 52.3186Z" fill="#9BC68B"/>
<path d="M37.2294 62.8105H29.1805C27.9896 62.8105 27.0244 63.7755 27.0244 64.9666V84.5141C27.0244 85.7052 27.9894 86.6702 29.1805 86.6702H37.2294C38.4202 86.6702 39.3854 85.7052 39.3854 84.5141V64.9666C39.3852 63.7755 38.4199 62.8105 37.2294 62.8105Z" fill="#2D3E50"/>
<path d="M86.2897 49.0117H78.2408C77.0499 49.0117 76.0847 49.9767 76.0847 51.1678V84.5135C76.0847 85.7046 77.0497 86.6695 78.2408 86.6695H86.2897C87.4805 86.6695 88.4457 85.7046 88.4457 84.5135V51.1678C88.4457 49.9767 87.4805 49.0117 86.2897 49.0117Z" fill="#2D3E50"/>
<path d="M110.82 42.1133H102.771C101.58 42.1133 100.615 43.0782 100.615 44.2693V84.5141C100.615 85.7052 101.58 86.6702 102.771 86.6702H110.82C112.011 86.6702 112.976 85.7052 112.976 84.5141V44.2693C112.976 43.0782 112.011 42.1133 110.82 42.1133Z" fill="#2D3E50"/>
<path d="M61.7594 68.5596H53.7105C52.5197 68.5596 51.5544 69.5245 51.5544 70.7156V84.5138C51.5544 85.7049 52.5194 86.6699 53.7105 86.6699H61.7594C62.9502 86.6699 63.9155 85.7049 63.9155 84.5138V70.7156C63.9152 69.5245 62.9499 68.5596 61.7594 68.5596Z" fill="#2D3E50"/>
<path d="M119.156 86.6695H20.8438C19.653 86.6695 18.6877 85.7046 18.6877 84.5135C18.6877 83.3227 19.6527 82.3574 20.8438 82.3574H119.156C120.347 82.3574 121.312 83.3224 121.312 84.5135C121.312 85.7046 120.347 86.6695 119.156 86.6695Z" fill="#3D4C83"/>
<path d="M134.391 91.4131H5.60845C4.41735 91.4131 3.45239 92.378 3.45239 93.5691V102.768C3.45239 103.959 4.41735 104.924 5.60845 104.924H134.392C135.583 104.924 136.548 103.959 136.548 102.768V93.5691C136.548 92.378 135.582 91.4131 134.391 91.4131Z" fill="#666666"/>
</svg>
