<svg width="140" height="140" viewBox="0 0 140 140" fill="none" xmlns="http://www.w3.org/2000/svg">
<path d="M129.062 118.125H10.9375C10.3573 118.125 9.80094 117.895 9.3907 117.484C8.98047 117.074 8.75 116.518 8.75 115.938V43.75C8.75347 40.8503 9.90693 38.0703 11.9574 36.0199C14.0078 33.9694 16.7878 32.816 19.6875 32.8125H120.312C123.212 32.816 125.992 33.9694 128.043 36.0199C130.093 38.0703 131.247 40.8503 131.25 43.75V115.938C131.25 116.518 131.02 117.074 130.609 117.484C130.199 117.895 129.643 118.125 129.062 118.125Z" fill="#666666"/>
<path d="M87.5 113.75C67.7745 113.75 48.857 105.914 34.9089 91.9656C20.9609 78.0176 13.125 59.1 13.125 39.3745V39.3745C13.1375 37.5563 13.6093 35.7707 14.4966 34.1836C12.7656 35.1123 11.3179 36.4916 10.3063 38.1754C9.29477 39.8593 8.75704 41.7852 8.75 43.7495V115.937C8.75 116.517 8.98047 117.074 9.3907 117.484C9.80094 117.894 10.3573 118.125 10.9375 118.125H129.062C129.643 118.125 130.199 117.894 130.609 117.484C131.02 117.074 131.25 116.517 131.25 115.937V113.75H87.5Z" fill="#4C4C4C"/>
<path d="M120.312 109.375H19.6875C19.1073 109.375 18.5509 109.145 18.1407 108.734C17.7305 108.324 17.5 107.768 17.5 107.188V43.75C17.5 43.1698 17.7305 42.6134 18.1407 42.2032C18.5509 41.793 19.1073 41.5625 19.6875 41.5625H120.312C120.893 41.5625 121.449 41.793 121.859 42.2032C122.27 42.6134 122.5 43.1698 122.5 43.75V107.188C122.5 107.768 122.27 108.324 121.859 108.734C121.449 109.145 120.893 109.375 120.312 109.375Z" fill="#FDFEFF"/>
<path d="M120.312 131.25H19.6875C15.6278 131.245 11.7357 129.631 8.86504 126.76C5.9944 123.889 4.37963 119.997 4.375 115.938C4.375 115.357 4.60547 114.801 5.0157 114.391C5.42594 113.98 5.98234 113.75 6.5625 113.75H133.438C134.018 113.75 134.574 113.98 134.984 114.391C135.395 114.801 135.625 115.357 135.625 115.938C135.62 119.997 134.006 123.889 131.135 126.76C128.264 129.631 124.372 131.245 120.312 131.25V131.25Z" fill="#666666"/>
<path d="M124.688 126.875H24.0625C20.3835 126.871 16.829 125.542 14.0493 123.132C11.2696 120.722 9.45057 117.391 8.925 113.75H6.5625C5.98234 113.75 5.42594 113.98 5.0157 114.391C4.60547 114.801 4.375 115.357 4.375 115.938C4.37963 119.997 5.9944 123.889 8.86504 126.76C11.7357 129.631 15.6278 131.245 19.6875 131.25H120.312C122.848 131.248 125.344 130.616 127.575 129.411C129.807 128.206 131.704 126.466 133.096 124.346C130.603 125.997 127.678 126.877 124.688 126.875V126.875Z" fill="#4C4C4C"/>
<path d="M30.625 32.8125H24.0625V41.5625H30.625V32.8125Z" fill="#4C4C4C"/>
<path d="M29.9993 87.5H101.251C102.906 87.4111 104.459 86.6714 105.571 85.442C106.683 84.2127 107.264 82.5935 107.187 80.9375V41.5625H24.0624V80.9375C23.9856 82.5935 24.5665 84.2127 25.6787 85.442C26.7908 86.6714 28.3439 87.4111 29.9993 87.5V87.5Z" fill="#DFEAEF"/>
<path d="M107.5 17.5H32.4996C31.3818 17.5444 30.327 18.0296 29.5658 18.8494C28.8047 19.6692 28.399 20.757 28.4374 21.875V76.5625C28.3606 78.2185 28.9415 79.8377 30.0537 81.067C31.1658 82.2964 32.7189 83.0361 34.3743 83.125H105.626C107.281 83.0361 108.834 82.2964 109.946 81.067C111.058 79.8377 111.639 78.2185 111.562 76.5625V21.875C111.601 20.757 111.195 19.6692 110.434 18.8494C109.673 18.0296 108.618 17.5444 107.5 17.5Z" fill="#9BC68B"/>
<path d="M39.375 78.75H52.2309C57.6821 78.7498 63.1126 79.4183 68.4009 80.7406C69.4488 81.0017 70.5447 81.0017 71.5925 80.7406C76.8829 79.4177 82.3157 78.7491 87.7691 78.75H100.625C102.365 78.75 104.035 78.0586 105.265 76.8279C106.496 75.5972 107.188 73.928 107.188 72.1875V17.5H105V72.1875C105 73.3478 104.539 74.4606 103.719 75.2811C102.898 76.1016 101.785 76.5625 100.625 76.5625H87.7691C82.1366 76.5627 76.5254 77.2533 71.0609 78.6188C70.7141 78.7065 70.3577 78.7506 70 78.75C69.6408 78.7503 69.283 78.7062 68.9347 78.6188C63.4718 77.253 57.862 76.5624 52.2309 76.5625H39.375C38.2147 76.5625 37.1019 76.1016 36.2814 75.2811C35.4609 74.4606 35 73.3478 35 72.1875V17.5H32.8125V72.1875C32.8125 73.928 33.5039 75.5972 34.7346 76.8279C35.9653 78.0586 37.6345 78.75 39.375 78.75Z" fill="#C3D6DD"/>
<path d="M39.375 13.125H35V72.1875C35 73.3478 35.4609 74.4606 36.2814 75.2811C37.1019 76.1016 38.2147 76.5625 39.375 76.5625H52.2309C57.862 76.5624 63.4718 77.253 68.9347 78.6187C69.283 78.7062 69.6408 78.7503 70 78.75C70.3577 78.7506 70.7141 78.7065 71.0609 78.6187C76.5254 77.2532 82.1366 76.5627 87.7691 76.5625H100.625C101.785 76.5625 102.898 76.1016 103.719 75.2811C104.539 74.4606 105 73.3478 105 72.1875V13.125H39.375Z" fill="#DFEAEF"/>
<path d="M70 76.5625C69.8208 76.5625 69.6423 76.5404 69.4684 76.4969C63.8309 75.0879 58.0419 74.3753 52.2309 74.375H39.375C38.7948 74.375 38.2384 74.1445 37.8282 73.7343C37.418 73.3241 37.1875 72.7677 37.1875 72.1875V13.125C37.1875 12.5448 37.418 11.9884 37.8282 11.5782C38.2384 11.168 38.7948 10.9375 39.375 10.9375H52.2309C58.2171 10.938 64.182 11.6503 70 13.0594C75.818 11.6503 81.7829 10.938 87.7691 10.9375H100.625C101.205 10.9375 101.762 11.168 102.172 11.5782C102.582 11.9884 102.812 12.5448 102.812 13.125V72.1875C102.812 72.7677 102.582 73.3241 102.172 73.7343C101.762 74.1445 101.205 74.375 100.625 74.375H87.7691C81.9581 74.3753 76.1691 75.0879 70.5316 76.4969C70.3577 76.5404 70.1792 76.5625 70 76.5625Z" fill="#FDFEFF"/>
<path d="M54.6875 28.4375H45.9375V32.8125H54.6875V28.4375Z" fill="#DFEAEF"/>
<path d="M63.4375 37.1875H45.9375V41.5625H63.4375V37.1875Z" fill="#DFEAEF"/>
<path d="M63.4375 45.9375H45.9375V50.3125H63.4375V45.9375Z" fill="#DFEAEF"/>
<path d="M63.4375 54.6875H45.9375V59.0625H63.4375V54.6875Z" fill="#DFEAEF"/>
<path d="M94.0625 28.4375H76.5625V32.8125H94.0625V28.4375Z" fill="#DFEAEF"/>
<path d="M94.0625 37.1875H76.5625V41.5625H94.0625V37.1875Z" fill="#DFEAEF"/>
<path d="M94.0625 45.9375H76.5625V50.3125H94.0625V45.9375Z" fill="#DFEAEF"/>
<path d="M85.3125 54.6875H76.5625V59.0625H85.3125V54.6875Z" fill="#DFEAEF"/>
<path d="M63.4375 28.4375H59.0625V32.8125H63.4375V28.4375Z" fill="#DFEAEF"/>
<path d="M94.0625 54.6875H89.6875V59.0625H94.0625V54.6875Z" fill="#DFEAEF"/>
<path d="M85.3125 120.312H54.6875L50.3125 113.75H89.6875L85.3125 120.312Z" fill="#3D4C83"/>
<path d="M53.9591 113.75H50.3125L54.6875 120.312H85.3125L86.7716 118.125H62.125C60.5091 118.123 58.9185 117.723 57.4941 116.96C56.0697 116.197 54.8555 115.094 53.9591 113.75V113.75Z" fill="#2D3E50"/>
</svg>
