<svg width="140" height="140" viewBox="0 0 140 140" fill="none" xmlns="http://www.w3.org/2000/svg">
<g clip-path="url(#clip0)">
<path d="M12.5815 103.637H127.421C130.39 103.637 132.804 101.221 132.804 98.2536V31.6799C132.804 28.7098 130.39 26.2969 127.421 26.2969H12.5815C9.61279 26.2969 7.19849 28.7098 7.19849 31.6799V98.2536C7.19849 101.221 9.61279 103.637 12.5815 103.637ZM12.5815 31.6799H127.421L127.425 98.2536H12.5815V31.6799Z" fill="#666666"/>
<path d="M138.642 106.88H1.39417C0.862594 106.88 0.382155 107.189 0.158758 107.671C-0.0888627 108.21 -0.0444524 108.807 0.278531 109.312C0.846444 110.197 1.79655 111.684 23.4109 112.761C35.6251 113.371 51.9061 113.704 69.2517 113.704C84.8276 113.704 135.92 113.397 139.517 109.469C139.868 109.086 140.038 108.608 139.993 108.123C139.933 107.42 139.347 106.88 138.642 106.88Z" fill="#666666"/>
<rect x="28.3835" y="59.5645" width="17.004" height="4.1954" transform="rotate(-4.45844 28.3835 59.5645)" fill="#7EDA6F"/>
<rect x="52.3472" y="60.4297" width="18.3185" height="4.1954" transform="rotate(42.961 52.3472 60.4297)" fill="#FF5C34"/>
<rect width="12.4655" height="4.19541" transform="matrix(0.906711 0.421754 -0.421753 0.906711 87.0383 61.7334)" fill="#FF5C34"/>
<rect x="81.9612" y="66.1514" width="15.2457" height="4.1954" transform="rotate(138.128 81.9612 66.1514)" fill="#7EDA6F"/>
<rect x="114.478" y="57.7646" width="15.2457" height="4.19541" transform="rotate(131.943 114.478 57.7646)" fill="#7EDA6F"/>
<circle cx="25.0195" cy="61.8281" r="3.23828" stroke="#E5E5E5" stroke-width="2"/>
<circle cx="48.531" cy="60.293" r="3.23828" stroke="#E5E5E5" stroke-width="2"/>
<path d="M70.363 76.1523C70.363 77.9408 68.9132 79.3906 67.1248 79.3906C65.3363 79.3906 63.8865 77.9408 63.8865 76.1523C63.8865 74.3639 65.3363 72.9141 67.1248 72.9141C68.9132 72.9141 70.363 74.3639 70.363 76.1523Z" stroke="#E5E5E5" stroke-width="2"/>
<circle cx="82.9841" cy="62.4805" r="3.23828" stroke="#E5E5E5" stroke-width="2"/>
<circle cx="114.976" cy="53.7305" r="3.23828" stroke="#E5E5E5" stroke-width="2"/>
<circle cx="100.484" cy="70.4102" r="3.23828" stroke="#E5E5E5" stroke-width="2"/>
</g>
<defs>
<clipPath id="clip0">
<rect width="140" height="140" fill="white"/>
</clipPath>
</defs>
</svg>
