<svg width="140" height="140" viewBox="0 0 140 140" fill="none" xmlns="http://www.w3.org/2000/svg">
<path d="M116.572 81.6318H23.4287V90.2033H116.572V81.6318Z" fill="#3D4C83"/>
<path d="M32.8989 140L24.9812 136.717L35.1389 112.258L43.0565 115.541L32.8989 140Z" fill="#3D4C83"/>
<path d="M107.088 140L115.006 136.717L104.848 112.258L96.9304 115.541L107.088 140Z" fill="#3D4C83"/>
<path d="M58.09 51.249L28.9399 121.545L40.8553 126.487L69.9999 56.2048L58.09 51.249Z" fill="#4C4C4C"/>
<path d="M64.0313 53.7212L58.09 51.249L28.9399 121.545L34.9115 124.022L64.0313 53.7212Z" fill="#666666"/>
<path d="M99.1504 126.487L70 56.1909L81.9153 51.249L111.06 121.531L99.1504 126.487Z" fill="#4C4C4C"/>
<path d="M105.091 124.015L99.1504 126.487L70 56.1904L75.9716 53.7139L105.091 124.015Z" fill="#666666"/>
<path d="M76.4515 0H63.5515V39.4313H76.4515V0Z" fill="#4C4C4C"/>
<path d="M70.0013 0H63.5515V39.4313H70.0013V0Z" fill="#666666"/>
<path d="M70.0001 59.3343C80.9922 59.3343 89.9031 50.4234 89.9031 39.4313C89.9031 28.4392 80.9922 19.5283 70.0001 19.5283C59.008 19.5283 50.0972 28.4392 50.0972 39.4313C50.0972 50.4234 59.008 59.3343 70.0001 59.3343Z" fill="#E5E5E5"/>
<path d="M70.0001 19.5293C59.0082 19.5293 50.0972 28.4401 50.0972 39.4323C50.0972 50.4245 59.0079 59.3352 70.0001 59.3352V19.5293Z" fill="white"/>
<path d="M69.9999 46.4753C73.8903 46.4753 77.0442 43.3215 77.0442 39.431C77.0442 35.5406 73.8903 32.3867 69.9999 32.3867C66.1094 32.3867 62.9556 35.5406 62.9556 39.431C62.9556 43.3215 66.1094 46.4753 69.9999 46.4753Z" fill="#3D4C83"/>
<path d="M69.9999 32.3867C66.1094 32.3867 62.9556 35.5408 62.9556 39.431C62.9556 43.3215 66.1097 46.4753 69.9999 46.4753V32.3867Z" fill="#4C4C4C"/>
</svg>
