<svg width="140" height="140" viewBox="0 0 140 140" fill="none" xmlns="http://www.w3.org/2000/svg">
<g clip-path="url(#clip0)">
<path d="M55.3273 140C55.3273 140 62.3207 127.178 59.1154 119.02C59.1154 119.02 56.493 107.947 45.1289 110.278C45.1289 110.278 23.5665 115.523 24.4405 104.45C24.4405 104.45 26.7715 98.0398 22.9837 94.2519C22.9837 94.2519 20.6526 92.2123 22.9837 89.007C22.9837 89.007 18.0302 84.345 22.1094 82.0137V78.2255C22.1094 78.2255 10.7454 76.1859 14.8249 70.3582C14.8249 70.3582 27.9372 55.206 25.6061 49.0869C24.7319 46.7558 23.8579 44.4248 24.1493 42.0935C25.0236 31.8951 30.5599 9.74954 59.9897 1.88219C60.2811 1.88219 60.8639 1.59077 61.1553 1.59077C107.194 -9.77328 143.618 42.0935 117.101 81.4305C115.062 84.6358 112.731 87.8411 110.399 90.755C110.399 90.755 100.784 99.788 112.439 119.311C112.439 119.311 120.889 132.714 120.015 139.708H55.3273V140Z" fill="#E5E5E5"/>
<path d="M94.9556 27.8166C94.3728 26.0684 93.79 24.32 92.916 22.8632L94.6642 18.7836L88.8365 12.9559L84.757 14.7041C83.0088 13.8299 81.5517 13.2473 79.8035 12.6645L78.3467 8.58496H69.8965L68.4397 12.6645C66.6915 13.2473 64.943 13.8301 63.4862 14.7041L59.4067 12.9559L53.579 18.7836L55.3272 22.8632C54.4529 24.32 53.8704 26.0684 53.2875 27.8166L49.208 29.2734V37.7236L53.2875 39.1804C53.8704 40.9286 54.4532 42.6771 55.3272 44.1339L53.579 48.2134L59.4067 54.0412L63.4862 52.293C64.9433 53.1672 66.6915 53.7498 68.4397 54.3326L69.8965 58.4121H78.3467L79.8035 54.3326C81.5517 53.7498 83.3002 53.1669 84.757 52.293L88.8365 54.0412L94.6642 48.2134L92.916 44.1339C93.7903 42.6771 94.3728 40.9286 94.9556 39.1804L99.0352 37.7236V29.2734L94.9556 27.8166ZM73.9757 43.8428C68.4394 43.8428 63.7773 39.1807 63.7773 33.6444C63.7773 28.1081 68.4394 23.446 73.9757 23.446C79.5121 23.446 84.1741 28.1081 84.1741 33.6444C84.1741 39.1807 79.5121 43.8428 73.9757 43.8428Z" fill="#3D4C83"/>
<path d="M84.757 22.8638C78.6378 16.7446 69.0222 16.7446 62.9031 22.8638C56.7839 28.9829 56.7839 38.5985 62.9031 44.7176C69.0222 50.8368 78.6378 50.8368 84.757 44.7176C90.8761 38.5985 90.8761 28.6912 84.757 22.8638ZM80.9691 40.9295C76.8896 45.009 70.4793 45.009 66.3998 40.9295C62.3203 36.85 62.3203 30.4397 66.3998 26.3602C70.4793 22.2807 76.8896 22.2807 80.9691 26.3602C85.0484 30.4397 85.0484 36.8503 80.9691 40.9295Z" fill="#2D3E50"/>
<path d="M97.2866 67.1542C97.2866 66.2799 97.2866 65.406 97.2866 64.8231L98.7434 63.3663L97.2866 59.8696H95.247C94.6641 59.2868 94.0813 58.704 93.4988 58.1214V56.0818L90.0021 54.625L88.5453 56.0818C87.671 56.0818 86.7971 56.0818 86.2142 56.0818L84.7574 54.625L81.2607 56.0818V58.1214C80.6779 58.7043 80.0951 59.2871 79.5125 59.8696H77.4729L76.0161 63.3663L77.4729 64.8231C77.4729 65.6974 77.4729 66.5713 77.4729 67.1542L76.3073 68.611L77.764 72.1077H79.8037C80.3865 72.6905 80.9693 73.2733 81.5519 73.8559V75.8955L85.0486 77.3523L86.5054 75.8955C87.3796 75.8955 88.2536 75.8955 88.8364 75.8955L90.2932 77.3523L93.7899 75.8955V73.8559C94.3727 73.273 94.9555 72.6902 95.5381 72.1077H97.5777L99.0345 68.611L97.2866 67.1542ZM85.6311 70.3594C83.3001 69.4852 82.1344 66.5713 83.0087 64.2403C83.8829 61.9093 86.7968 60.7436 89.1278 61.6178C91.4589 62.4921 92.6245 65.4059 91.7503 67.737C90.876 70.068 88.2536 71.2337 85.6311 70.3594Z" fill="#FF5C34"/>
<path d="M115.935 48.505C115.935 47.6308 115.935 46.7568 115.935 46.174L117.392 44.7169L115.935 41.2202H113.896C113.313 40.6374 112.73 40.0546 112.147 39.472V37.4324L108.651 35.9756L107.194 37.4324C106.32 37.4324 105.446 37.4324 104.863 37.4324L103.406 36.2667L99.9094 37.7235V39.7631C99.3266 40.346 98.7438 40.9288 98.1612 41.5113H96.1216L94.6648 45.008L96.1216 46.4648C96.1216 47.3391 96.1216 48.213 96.1216 48.7959L94.6648 50.2527L96.1216 53.7494H98.1612C98.744 54.3322 99.3269 54.915 99.9094 55.4976V57.5372L103.406 58.994L104.863 57.5372C105.737 57.5372 106.611 57.5372 107.194 57.5372L108.651 58.994L112.147 57.5372V55.4976C112.73 54.9147 113.313 54.3319 113.896 53.7494H115.935L117.392 50.2527L115.935 48.505ZM104.28 51.71C101.949 50.8358 100.783 47.9219 101.658 45.5909C102.532 43.2598 105.446 42.0942 107.777 42.9684C110.108 43.8427 111.273 46.7565 110.399 49.0876C109.525 51.4189 106.611 52.5843 104.28 51.71Z" fill="#AFDF9D"/>
</g>
<defs>
<clipPath id="clip0">
<rect width="140" height="140" fill="white"/>
</clipPath>
</defs>
</svg>
