<svg width="140" height="140" viewBox="0 0 140 140" fill="none" xmlns="http://www.w3.org/2000/svg">
<path d="M70 140C108.66 140 140 108.66 140 70C140 31.3401 108.66 0 70 0C31.3401 0 0 31.3401 0 70C0 108.66 31.3401 140 70 140Z" fill="#666666"/>
<path d="M138.13 86.1293L98.8198 46.8193L59.0013 77.5425L42.1885 94.3808L85.9751 138.167C111.754 132.149 132.055 111.887 138.13 86.1293Z" fill="#4C4C4C"/>
<path d="M69.9999 103.468C88.4837 103.468 103.468 88.484 103.468 70.0002C103.468 51.5163 88.4837 36.5322 69.9999 36.5322C51.5161 36.5322 36.532 51.5163 36.532 70.0002C36.532 88.484 51.5161 103.468 69.9999 103.468Z" fill="#FF5C34"/>
<path d="M103.468 70C103.468 88.4838 88.4835 103.468 69.9999 103.468C51.5164 103.468 36.532 88.4838 36.532 70H103.468Z" fill="white"/>
<path d="M69.9998 107.004C49.5962 107.004 32.9963 90.4045 32.9963 70.0005C32.9963 49.5966 49.5962 32.9971 69.9998 32.9971C90.4034 32.9971 107.003 49.5969 107.003 70.0005C107.003 90.4042 90.4034 107.004 69.9998 107.004ZM69.9998 42.1892C54.6649 42.1892 42.1885 54.6656 42.1885 70.0005C42.1885 85.3355 54.6649 97.8119 69.9998 97.8119C85.3347 97.8119 97.8111 85.3355 97.8111 70.0005C97.8111 54.6656 85.3347 42.1892 69.9998 42.1892Z" fill="#3D4C83"/>
<path d="M70 32.9971C69.9472 32.9971 69.8958 33.0009 69.843 33.0009V42.1928C69.8958 42.1922 69.9472 42.1889 70 42.1889C85.3349 42.1889 97.8113 54.6653 97.8113 70.0003C97.8113 85.3352 85.3349 97.8119 70 97.8119C69.9472 97.8119 69.8958 97.808 69.843 97.808V107C69.8958 107 69.9472 107.004 70 107.004C90.4036 107.004 107.003 90.4042 107.003 70.0003C107.003 49.5964 90.4036 32.9971 70 32.9971Z" fill="#2D3E50"/>
<path d="M87.1884 52.7871L66.5617 68.6353C65.1526 70.0443 65.1526 72.3286 66.5617 73.7376C67.9707 75.1466 70.255 75.1466 71.664 73.7376L87.1884 52.7871Z" fill="#AFDF9D"/>
<path d="M66.5618 73.7376C67.9708 75.1466 70.2551 75.1466 71.6641 73.7376L87.1891 52.7871L66.5618 73.7376Z" fill="#9BC68B"/>
</svg>
