<svg width="400" height="400" viewBox="0 0 400 400" fill="none" xmlns="http://www.w3.org/2000/svg">
<path fill-rule="evenodd" clip-rule="evenodd" d="M284.898 67.3016L235.197 117.004L243.901 125.701L252.604 134.397L302.4 84.5996L352.196 34.8026L343.601 26.2006C338.874 21.4706 334.915 17.5996 334.803 17.5996C334.691 17.5996 312.233 39.9656 284.898 67.3016ZM77.2002 199.6V220H80.3952H83.5892L83.6952 206.306L83.8002 192.612L90.6002 203.918L97.4002 215.223L98.9782 215.112L100.556 215L107.178 203.702C110.82 197.488 113.935 192.403 114.1 192.402C114.265 192.401 114.4 198.61 114.4 206.2V220H117.6H120.8V199.583V179.166L117.752 179.283L114.705 179.4L107.132 192.6C102.967 199.86 99.4122 205.948 99.2312 206.129C99.0502 206.31 95.3242 200.328 90.9512 192.837L83.0002 179.216L80.1002 179.208L77.2002 179.2V199.6ZM137.199 198.285C132.521 208.798 128.445 217.985 128.141 218.7L127.589 220L130.895 219.995L134.2 219.989L136.224 215.295L138.249 210.6H149.011H159.774L161.775 215.3L163.777 220H167.089C168.91 220 170.392 219.865 170.382 219.7C170.372 219.535 166.341 210.4 161.425 199.4L152.486 179.4L149.095 179.285L145.705 179.17L137.199 198.285ZM177.2 199.6V220H180.6H184V213.989V207.978L189.688 208.089L195.376 208.2L199.551 214.1L203.726 220H207.263C209.208 220 210.8 219.919 210.8 219.82C210.8 219.722 208.735 216.727 206.211 213.165L201.623 206.688L203.201 205.908C212.741 201.187 212.704 186.216 203.139 181.369C199.65 179.601 196.674 179.215 186.5 179.207L177.2 179.2V199.6ZM221.2 199.6V220H224.6H228V214.691V209.382L231.423 205.991C234.793 202.653 234.857 202.613 235.523 203.419C235.896 203.869 239.152 207.784 242.761 212.119L249.322 220H253.31C256.441 220 257.215 219.893 256.91 219.5C256.437 218.891 249.31 210.095 243.501 202.951L239.233 197.702L246.916 189.318C251.142 184.706 254.943 180.543 255.362 180.067L256.124 179.2L252.362 179.213L248.6 179.227L238.4 189.933L228.2 200.64L228.094 189.92L227.987 179.2H224.594H221.2V199.6ZM264.4 199.6V220H279.2H294V217V214H282.6H271.2V208V202H281H290.8V199.2V196.4H281H271.2V190.6V184.8H282.2H293.2V182V179.2H278.8H264.4V199.6ZM298 182V184.8H304.8H311.6V202.4V220H314.796H317.992L318.096 202.5L318.2 185L324.9 184.89L331.6 184.781V181.99V179.2H314.8H298V182ZM197.627 185.443C202.044 186.751 204.318 190.961 203.231 195.817C202.106 200.843 198.912 202.4 189.727 202.4H184V193.6V184.8H189.727C193.823 184.8 196.074 184.983 197.627 185.443ZM153.197 195.2C155.222 199.93 156.97 204.025 157.082 204.3C157.241 204.69 155.479 204.8 149.043 204.8C144.509 204.8 140.8 204.741 140.8 204.669C140.8 204.597 141.894 202.032 143.232 198.969C144.569 195.906 146.393 191.724 147.286 189.675C148.179 187.626 149.046 186.096 149.212 186.275C149.379 186.454 151.172 190.47 153.197 195.2Z" fill="#FBFBFB"/>
<path fill-rule="evenodd" clip-rule="evenodd" d="M193.167 55.3637C193.075 55.4547 190.57 55.7327 187.6 55.9817C178.346 56.7597 162.899 59.9997 157 62.4007C156.56 62.5797 154.31 63.3937 152 64.2087C147.028 65.9637 146.683 66.1117 139.221 69.6937C132.059 73.1307 124.042 77.7967 119.337 81.2687C118.643 81.7807 117.681 82.4697 117.199 82.7997C97.2309 96.4777 77.2459 122.173 67.8879 146.2C65.6189 152.024 62.3999 161.919 62.3999 163.067C62.3999 163.499 64.6909 163.6 74.5009 163.6H86.6019L88.3709 158.349C111.68 89.1717 190.629 57.3567 256.71 90.5117L260.02 92.1727L268.01 84.1897C276.42 75.7877 276.517 75.6617 275.097 74.9517C274.604 74.7047 271.41 73.0767 268 71.3337C257.134 65.7797 247.164 61.9687 237.4 59.6397C235.42 59.1677 233.17 58.6047 232.4 58.3897C231.63 58.1737 229.29 57.7187 227.2 57.3767C223.599 56.7887 221.557 56.5347 212.923 55.5987C209.386 55.2147 193.509 55.0267 193.167 55.3637ZM288.496 98.5037C284.263 102.741 280.8 106.358 280.8 106.542C280.8 106.725 282.181 108.164 283.868 109.738C297.95 122.875 309.144 140.343 315.452 159.025L316.996 163.6H329.298C339.275 163.6 341.6 163.499 341.6 163.067C341.6 162.474 340.512 158.833 338.712 153.4C333.122 136.526 324.224 120.877 311.648 105.8C308.197 101.663 297.337 90.7997 296.652 90.7997C296.399 90.7997 292.729 94.2667 288.496 98.5037ZM62.1429 235.1C62.2519 235.485 62.4649 236.43 62.6169 237.2C62.9479 238.871 65.4519 246.899 66.1739 248.6C66.4539 249.26 67.3769 251.6 68.2259 253.8C81.0699 287.114 112.258 319.142 144.639 332.271C145.277 332.53 146.942 333.214 148.337 333.792C152.25 335.411 162.196 338.625 166.2 339.565C168.18 340.03 170.34 340.576 171 340.779C171.66 340.982 173.1 341.265 174.2 341.407C175.3 341.549 176.74 341.82 177.4 342.01C184.558 344.069 217.979 344.161 226 342.144C226.55 342.005 228.26 341.662 229.8 341.38C232.289 340.925 234.707 340.36 240.77 338.815C277.471 329.467 313.046 300.233 330.783 264.845C335.275 255.881 342 237.845 342 234.758C342 234.538 336.739 234.432 328.979 234.495L315.957 234.6L313.845 240.2C293.023 295.401 234.996 326.836 176.616 314.542C139.974 306.826 108.412 281.465 92.8079 247.2C90.8449 242.891 87.9999 235.562 87.9999 234.817C87.9999 234.536 83.7539 234.4 74.9729 234.4C62.7579 234.4 61.9579 234.444 62.1429 235.1Z" fill="#E5184F"/>
<path fill-rule="evenodd" clip-rule="evenodd" d="M194.905 77.4866C195.514 77.5786 196.414 77.5766 196.905 77.4816C197.397 77.3866 196.9 77.3106 195.8 77.3136C194.7 77.3166 194.297 77.3946 194.905 77.4866ZM207.1 77.4816C207.595 77.5776 208.405 77.5776 208.9 77.4816C209.395 77.3866 208.99 77.3086 208 77.3086C207.01 77.3086 206.605 77.3866 207.1 77.4816ZM189.3 77.8756C189.685 77.9756 190.315 77.9756 190.7 77.8756C191.085 77.7746 190.77 77.6926 190 77.6926C189.23 77.6926 188.915 77.7746 189.3 77.8756ZM147.9 89.8246C146.415 90.5866 145.2 91.3006 145.2 91.4106C145.2 91.5886 150.76 88.9266 151.167 88.5526C151.714 88.0506 150.237 88.6246 147.9 89.8246ZM142.7 92.6286C141.205 93.4396 141.296 93.7776 142.8 92.9996C143.46 92.6586 144 92.2936 144 92.1896C144 91.9316 143.957 91.9466 142.7 92.6286ZM132.2 99.4346L131 100.466L132.3 99.6056C133.015 99.1326 133.6 98.6676 133.6 98.5726C133.6 98.2726 133.431 98.3776 132.2 99.4346ZM307.2 100.925C307.2 100.994 307.785 101.579 308.5 102.225L309.8 103.4L308.625 102.1C307.53 100.888 307.2 100.616 307.2 100.925ZM124.175 105.7L123 107L124.3 105.825C125.512 104.73 125.784 104.4 125.475 104.4C125.406 104.4 124.821 104.985 124.175 105.7ZM120.8 108.6C119.828 109.59 119.123 110.4 119.233 110.4C119.343 110.4 120.228 109.59 121.2 108.6C122.172 107.61 122.877 106.8 122.767 106.8C122.657 106.8 121.772 107.61 120.8 108.6ZM113.2 116.2C112.228 117.19 111.523 118 111.633 118C111.743 118 112.628 117.19 113.6 116.2C114.572 115.21 115.277 114.4 115.167 114.4C115.057 114.4 114.172 115.21 113.2 116.2ZM110.175 119.7L109 121L110.3 119.825C111.512 118.73 111.784 118.4 111.475 118.4C111.406 118.4 110.821 118.985 110.175 119.7ZM104 127.6C103.53 128.26 103.236 128.8 103.346 128.8C103.456 128.8 103.93 128.26 104.4 127.6C104.87 126.94 105.164 126.4 105.054 126.4C104.944 126.4 104.47 126.94 104 127.6ZM94.579 143.241C93.792 144.804 93.214 146.147 93.294 146.227C93.373 146.307 94.103 145.028 94.916 143.386C95.729 141.744 96.307 140.4 96.202 140.4C96.096 140.4 95.366 141.678 94.579 143.241ZM94 249.753C94 250.182 95.19 252.4 95.421 252.4C95.531 252.4 95.323 251.815 94.959 251.1C94.217 249.64 94 249.336 94 249.753ZM113.583 278.5C115.241 280.266 115.6 280.584 115.6 280.283C115.6 280.219 114.745 279.364 113.7 278.383L111.8 276.6L113.583 278.5ZM120.383 285.3C122.041 287.066 122.4 287.384 122.4 287.083C122.4 287.019 121.545 286.164 120.5 285.183L118.6 283.4L120.383 285.3ZM283.578 285.1L282.2 286.6L283.7 285.222C285.096 283.938 285.384 283.6 285.078 283.6C285.012 283.6 284.337 284.275 283.578 285.1ZM141.6 300.979C141.6 301.089 142.14 301.459 142.8 301.8C143.46 302.141 144 302.331 144 302.221C144 302.111 143.46 301.741 142.8 301.4C142.14 301.059 141.6 300.869 141.6 300.979ZM261.1 301.429C259.605 302.24 259.696 302.578 261.2 301.8C261.86 301.459 262.4 301.094 262.4 300.99C262.4 300.732 262.357 300.747 261.1 301.429ZM146 303.397C146 303.668 149.249 305.284 149.43 305.103C149.514 305.019 148.776 304.559 147.791 304.081C146.806 303.602 146 303.294 146 303.397ZM255.6 304.4C254.39 305.039 253.541 305.571 253.713 305.581C254.138 305.607 258 303.636 258 303.393C258 303.126 258.055 303.103 255.6 304.4ZM194.905 317.087C195.514 317.179 196.414 317.177 196.905 317.082C197.397 316.987 196.9 316.911 195.8 316.914C194.7 316.917 194.297 316.995 194.905 317.087ZM207.305 317.087C207.914 317.179 208.814 317.177 209.305 317.082C209.797 316.987 209.3 316.911 208.2 316.914C207.1 316.917 206.697 316.995 207.305 317.087Z" fill="#773050"/>
<path fill-rule="evenodd" clip-rule="evenodd" d="M243.6 125.8C248.326 130.53 252.283 134.4 252.393 134.4C252.503 134.4 248.726 130.53 244 125.8C239.274 121.07 235.317 117.2 235.207 117.2C235.097 117.2 238.874 121.07 243.6 125.8ZM293.334 182C293.334 183.65 293.405 184.325 293.491 183.5C293.578 182.675 293.578 181.325 293.491 180.5C293.405 179.675 293.334 180.35 293.334 182ZM297.734 182C297.734 183.65 297.805 184.325 297.891 183.5C297.978 182.675 297.978 181.325 297.891 180.5C297.805 179.675 297.734 180.35 297.734 182ZM331.734 182C331.734 183.65 331.805 184.325 331.891 183.5C331.978 182.675 331.978 181.325 331.891 180.5C331.805 179.675 331.734 180.35 331.734 182ZM244.185 183.7L242.2 185.8L244.3 183.815C246.251 181.971 246.583 181.6 246.285 181.6C246.222 181.6 245.277 182.545 244.185 183.7ZM250.575 185.3L249.4 186.6L250.7 185.425C251.415 184.779 252 184.194 252 184.125C252 183.816 251.67 184.088 250.575 185.3ZM311.384 202.4C311.384 212.19 311.436 216.195 311.5 211.3C311.563 206.405 311.563 198.395 311.5 193.5C311.436 188.605 311.384 192.61 311.384 202.4ZM318.184 202.6C318.184 212.28 318.236 216.183 318.3 211.273C318.363 206.363 318.363 198.443 318.3 193.673C318.236 188.903 318.184 192.92 318.184 202.6ZM235.6 192.6C234.628 193.59 233.923 194.4 234.033 194.4C234.143 194.4 235.028 193.59 236 192.6C236.972 191.61 237.677 190.8 237.567 190.8C237.457 190.8 236.572 191.61 235.6 192.6ZM203.309 193.6C203.309 194.59 203.387 194.995 203.482 194.5C203.578 194.005 203.578 193.195 203.482 192.7C203.387 192.205 203.309 192.61 203.309 193.6ZM113.902 201.5C113.958 206.505 114.054 212.76 114.115 215.4C114.177 218.04 114.266 213.945 114.314 206.3C114.361 198.655 114.265 192.4 114.1 192.4C113.935 192.399 113.846 196.494 113.902 201.5ZM290.934 199.2C290.934 200.85 291.005 201.525 291.091 200.7C291.178 199.875 291.178 198.525 291.091 197.7C291.005 196.875 290.934 197.55 290.934 199.2ZM294.137 217C294.139 218.76 294.209 219.43 294.293 218.489C294.378 217.549 294.377 216.109 294.291 215.289C294.205 214.47 294.136 215.24 294.137 217Z" fill="#7A848D"/>
<path fill-rule="evenodd" clip-rule="evenodd" d="M305.399 46.4997L276.2 75.7997L305.5 46.6007C321.615 30.5417 334.8 17.3567 334.8 17.3007C334.8 17.0207 332.542 19.2627 305.399 46.4997ZM247.198 104.7L235 117L247.3 104.802C258.731 93.4667 259.78 92.3997 259.498 92.3997C259.441 92.3997 253.906 97.9347 247.198 104.7ZM83.7798 206.6C83.7798 214.08 83.8338 217.083 83.8988 213.274C83.9648 209.465 83.9648 203.345 83.8988 199.674C83.8328 196.003 83.7788 199.12 83.7798 206.6ZM232.575 195.7L231.4 197L232.7 195.825C233.415 195.179 234 194.594 234 194.525C234 194.216 233.67 194.488 232.575 195.7ZM229.381 208.1L227.8 209.8L229.5 208.219C230.435 207.349 231.2 206.584 231.2 206.519C231.2 206.216 230.852 206.519 229.381 208.1Z" fill="#5C6874"/>
</svg>
