<svg width="400" height="400" viewBox="0 0 400 400" fill="none" xmlns="http://www.w3.org/2000/svg">
<path fill-rule="evenodd" clip-rule="evenodd" d="M284.898 67.3016L235.197 117.004L243.901 125.701L252.604 134.397L302.4 84.5996L352.196 34.8026L343.601 26.2006C338.874 21.4706 334.915 17.5996 334.803 17.5996C334.691 17.5996 312.233 39.9656 284.898 67.3016ZM280.145 170.97C271.951 172.843 267.419 177.977 267.406 185.4C267.392 193.64 271.132 196.949 284.587 200.603C294.932 203.411 297.449 204.989 297.895 208.943C298.944 218.253 281.079 220.872 270.527 212.955C268.75 211.622 268.656 211.672 267.274 214.7L266.041 217.4L267.32 218.521C272.073 222.685 283.886 225.087 291.562 223.449C300.296 221.586 304.972 216.624 304.991 209.2C305.011 201.316 301.086 197.787 288.6 194.463C276.055 191.124 273.294 188.882 274.744 183.216C276.459 176.513 288.217 174.72 298.089 179.656C299.347 180.285 300.453 180.8 300.546 180.8C300.913 180.8 302.829 175.454 302.64 174.96C301.509 172.011 286.914 169.423 280.145 170.97ZM95.2002 197.2V223.2H98.7962H102.392L102.496 203.974L102.6 184.748L117.726 203.974L132.851 223.2H135.826H138.8V197.2V171.2H135.204H131.608L131.504 190.426L131.4 209.652L116.274 190.426L101.149 171.2H98.1742H95.2002V197.2ZM150.4 197.2V223.2H168.8H187.2V220V216.8H172.4H157.6V208.4V200H170.2H182.8V196.8V193.6H170.2H157.6V185.6V177.6H171.8H186V174.4V171.2H168.2H150.4V197.2ZM189.303 171.7C189.462 172.121 199.098 201.757 204.455 218.3L206.042 223.2H209.954H213.865L220.616 202.8C224.329 191.58 227.466 182.4 227.588 182.4C227.709 182.4 230.865 191.58 234.6 202.8L241.391 223.2H245.22H249.05L254.995 204.9C258.266 194.835 262.06 183.135 263.428 178.9L265.915 171.2H262.447H258.978L252.227 191.9C248.514 203.285 245.363 212.733 245.224 212.895C245.085 213.057 241.867 203.742 238.074 192.195L231.177 171.2H227.844H224.511L217.601 191.7C213.801 202.975 210.581 212.412 210.446 212.672C210.31 212.932 207.9 206.002 205.09 197.272C202.28 188.542 199.236 179.105 198.326 176.3L196.673 171.2H192.893C190.036 171.2 189.16 171.322 189.303 171.7Z" fill="#FAFAFB"/>
<path fill-rule="evenodd" clip-rule="evenodd" d="M98.6869 98.9002C83.3119 114.874 72.0289 133.279 65.2779 153.4C63.6059 158.383 62.3999 162.434 62.3999 163.067C62.3999 163.499 64.6959 163.6 74.5309 163.6H86.6609L88.1499 159.075C93.2679 143.515 102.522 127.738 114.185 114.69L117.68 110.779L110.195 102.99C106.079 98.7052 102.607 95.2002 102.48 95.2002C102.353 95.2002 100.646 96.8652 98.6869 98.9002ZM182.937 197C182.939 198.76 183.009 199.43 183.093 198.489C183.178 197.549 183.177 196.109 183.091 195.289C183.005 194.47 182.936 195.24 182.937 197ZM312.779 243.1C312.068 245.304 306.831 255.7 304.563 259.409C290.372 282.611 270.924 298.847 244.4 309.636C240.77 311.113 237.821 312.474 237.847 312.66C237.972 313.559 245.345 336.642 245.597 336.923C245.879 337.238 250.303 335.983 251.695 335.194C252.077 334.977 252.592 334.8 252.84 334.8C253.552 334.8 263.829 330.267 267.8 328.201C298.731 312.112 322.414 286.275 335.63 254.2C336.446 252.22 336.998 250.478 336.857 250.329C336.559 250.015 314.161 241.6 313.623 241.6C313.424 241.6 313.045 242.275 312.779 243.1Z" fill="#920EB1"/>
<path fill-rule="evenodd" clip-rule="evenodd" d="M204.664 60.9002C204.119 72.7962 204.277 76.7622 205.3 76.9512C205.795 77.0422 209.26 77.4042 213 77.7542C228.09 79.1672 240.008 82.5402 254.519 89.5062L260.038 92.1552L268.019 84.1812C276.425 75.7832 276.514 75.6672 275.097 74.9402C260.624 67.5122 258.473 66.5142 252 64.2172C249.69 63.3982 247.44 62.5822 247 62.4042C245.39 61.7542 240.909 60.4602 237.4 59.6322C235.42 59.1642 233.17 58.6082 232.4 58.3962C228.51 57.3252 211.245 55.2252 206.162 55.2052L204.924 55.2002L204.664 60.9002ZM288.532 98.4652L280.516 106.482L286.158 112.141C299.938 125.962 309.387 141.112 315.465 159.129L316.973 163.6H329.287C339.46 163.6 341.6 163.505 341.6 163.051C341.6 162.749 340.96 160.39 340.178 157.809C332.676 133.064 318.198 110.021 299.574 93.1842L296.548 90.4492L288.532 98.4652ZM62.221 236.1C62.502 237.035 63.127 239.15 63.61 240.8C64.724 244.602 65.549 247.06 66.249 248.66C66.552 249.354 66.8 250.096 66.8 250.31C66.8 250.646 67.556 252.567 68.804 255.4C68.998 255.84 69.541 257.1 70.011 258.2C80.057 281.709 99.697 305.006 122 319.868C125.816 322.411 134.854 327.679 135.055 327.478C135.139 327.394 137.871 322.215 141.125 315.969L147.042 304.613L143.621 302.575C117.478 287 98.693 264.741 89.208 238.1L87.891 234.4H74.8H61.71L62.221 236.1Z" fill="#237C1E"/>
</svg>
