<svg width="400" height="400" viewBox="0 0 400 400" fill="none" xmlns="http://www.w3.org/2000/svg">
<path fill-rule="evenodd" clip-rule="evenodd" d="M284.898 67.3016L235.197 117.004L243.901 125.701L252.604 134.397L302.4 84.5996L352.196 34.8026L343.601 26.2006C338.874 21.4706 334.915 17.5996 334.803 17.5996C334.691 17.5996 312.233 39.9656 284.898 67.3016ZM319.345 174.57C311.996 176.25 307.416 180.963 306.901 187.373C306.3 194.866 310.607 199.261 321.4 202.169C334.444 205.684 336.684 207.149 336.301 211.917C335.636 220.2 319.226 221.817 309.684 214.539C308.949 213.978 308.291 213.582 308.223 213.66C307.983 213.93 306.366 217.236 305.99 218.226C304.954 220.952 316.312 225.211 324.573 225.193C336.118 225.168 343.208 219.645 343.196 210.685C343.186 202.99 339.243 199.878 324.8 196.166C315.719 193.832 312.653 191.001 313.959 186.153C315.682 179.753 326.737 178.085 335.923 182.838C337.58 183.696 338.98 184.353 339.034 184.299C339.209 184.123 341.2 178.714 341.2 178.416C341.2 177.944 336.332 175.714 333.773 175.013C330.453 174.104 322.457 173.858 319.345 174.57ZM64 199.6V224.8H67.6H71.2V217.2V209.6L78.9 209.593C87.603 209.585 90.781 209.102 94.663 207.195C106.582 201.343 106.582 182.657 94.663 176.805C90.449 174.735 87.862 174.415 75.3 174.407L64 174.4V199.6ZM126.027 175.3C125.833 175.795 120.959 186.91 115.197 200C109.435 213.09 104.626 224.032 104.511 224.316C104.348 224.719 105.103 224.806 107.98 224.716L111.657 224.6L114.281 218.295L116.906 211.989L129.921 212.095L142.936 212.2L145.568 218.497L148.2 224.793L151.887 224.797C155.296 224.8 155.553 224.745 155.287 224.07C155.129 223.668 150.144 212.328 144.209 198.87L133.419 174.4H129.9C126.621 174.4 126.356 174.462 126.027 175.3ZM162.4 199.6V224.8H166H169.6V217.2V209.6L177.3 209.593C186.003 209.585 189.181 209.102 193.063 207.195C204.982 201.343 204.982 182.657 193.063 176.805C188.849 174.735 186.262 174.415 173.7 174.407L162.4 174.4V199.6ZM212.4 199.6V224.8H230.2H248V221.8V218.8H233.8H219.6V210.6V202.4H231.8H244V199.4V196.4H231.8H219.6V188.4V180.4H233.4H247.2V177.4V174.4H229.8H212.4V199.6ZM259.2 199.6V224.8H262.8H266.4V217.2V209.6H273.972H281.543L286.414 216.7C292.598 225.714 291.58 224.854 295.897 224.716L299.534 224.6L293.82 216.344L288.106 208.087L290.052 207.175C301.804 201.671 301.686 182.61 289.863 176.805C285.649 174.735 283.062 174.415 270.5 174.407L259.2 174.4V199.6ZM87.048 180.838C93.408 181.945 96.2 185.351 96.2 192C96.2 201.066 92.195 203.6 77.867 203.6H71.2V192V180.4H77.867C81.534 180.4 85.666 180.597 87.048 180.838ZM185.448 180.838C191.808 181.945 194.6 185.351 194.6 192C194.6 201.066 190.595 203.6 176.267 203.6H169.6V192V180.4H176.267C179.934 180.4 184.066 180.597 185.448 180.838ZM282.248 180.838C288.608 181.945 291.4 185.351 291.4 192C291.4 201.066 287.395 203.6 273.067 203.6H266.4V192V180.4H273.067C276.734 180.4 280.866 180.597 282.248 180.838ZM135.247 194.31L140.342 206.2L130.111 206.307C124.484 206.366 119.805 206.338 119.712 206.246C119.62 206.153 121.852 200.678 124.672 194.078C127.492 187.478 129.879 182.154 129.976 182.248C130.073 182.342 132.445 187.77 135.247 194.31Z" fill="#F9FAFA"/>
<path fill-rule="evenodd" clip-rule="evenodd" d="M192.363 55.37C192.269 55.464 189.944 55.745 187.196 55.996C180.767 56.581 171.554 58.249 164.4 60.123C161.026 61.007 154.803 63.029 151.2 64.413C149.99 64.878 148.46 65.451 147.8 65.687C147.14 65.923 146.42 66.248 146.2 66.409C145.98 66.57 145.35 66.838 144.8 67.005C141.237 68.084 127.189 75.825 120.6 80.34C108.136 88.88 93.52 102.945 86.037 113.6C76.584 127.06 70.911 137.577 66.619 149.6C65.795 151.91 64.977 154.16 64.801 154.6C64.188 156.139 62.87 160.613 62.592 162.1L62.311 163.6H74.503H86.694L88.581 158.149C112.255 89.762 188.955 58.034 254.519 89.506L260.038 92.155L268.019 84.181C276.422 75.785 276.515 75.664 275.097 74.946C274.604 74.696 271.05 72.892 267.2 70.937C259.334 66.942 257.944 66.327 252 64.207C249.69 63.383 247.44 62.567 247 62.395C245.422 61.776 240.935 60.479 237.4 59.62C235.42 59.139 233.17 58.577 232.4 58.372C230.474 57.858 224.1 56.834 220 56.38C218.13 56.173 215.05 55.823 213.155 55.602C209.83 55.214 192.71 55.023 192.363 55.37ZM288.669 98.331C284.341 102.663 280.8 106.36 280.8 106.546C280.8 106.733 282.482 108.477 284.537 110.422C298.41 123.552 309.241 140.602 315.461 159.1L316.973 163.6H329.331H341.689L341.425 162.192C337.628 141.952 319.245 111.409 300.389 94.01L296.537 90.455L288.669 98.331ZM316 234.7C316 234.865 321.175 236.6 327.5 238.555C333.825 240.509 339.19 242.18 339.422 242.267C339.771 242.398 340.526 240.187 341.869 235.1C342.042 234.444 341.237 234.4 329.027 234.4C321.862 234.4 316 234.535 316 234.7Z" fill="#CE3963"/>
<path fill-rule="evenodd" clip-rule="evenodd" d="M243.6 125.8C248.326 130.53 252.283 134.4 252.393 134.4C252.503 134.4 248.726 130.53 244 125.8C239.274 121.07 235.317 117.2 235.207 117.2C235.097 117.2 238.874 121.07 243.6 125.8ZM313.693 188C313.693 188.77 313.775 189.085 313.876 188.7C313.976 188.315 313.976 187.685 313.876 187.3C313.775 186.915 313.693 187.23 313.693 188ZM308.8 195.725C308.8 195.794 309.385 196.379 310.1 197.025L311.4 198.2L310.225 196.9C309.13 195.688 308.8 195.416 308.8 195.725ZM343.293 210.8C343.293 211.57 343.375 211.885 343.476 211.5C343.576 211.115 343.576 210.485 343.476 210.1C343.375 209.715 343.293 210.03 343.293 210.8ZM62.221 236.1C62.502 237.035 63.127 239.15 63.61 240.8C64.724 244.602 65.549 247.06 66.249 248.66C66.552 249.354 66.8 250.096 66.8 250.31C66.8 250.646 67.556 252.567 68.804 255.4C68.998 255.84 69.541 257.1 70.011 258.2C83.408 289.553 113.884 319.802 144.639 332.271C145.277 332.53 146.895 333.195 148.234 333.748C173.91 344.364 209.559 346.895 236.2 339.992C237.96 339.536 240.12 338.983 241 338.763C243.33 338.181 252.932 334.92 255.766 333.748C257.105 333.195 258.723 332.53 259.361 332.271C265.287 329.868 278.727 322.289 284.869 317.887C310.395 299.59 327.775 276.5 338.442 246.714L339.977 242.427L336.089 241.222C333.95 240.559 328.512 238.873 324.005 237.475L315.81 234.934L314.15 239.367C288.86 306.868 211.024 336.74 146.6 303.669C120.092 290.062 97.904 264.495 88.829 237.1L87.935 234.4H74.822H61.71L62.221 236.1Z" fill="#6533B7"/>
</svg>
