<svg width="400" height="400" viewBox="0 0 400 400" fill="none" xmlns="http://www.w3.org/2000/svg">
<path fill-rule="evenodd" clip-rule="evenodd" d="M284.898 67.3016L235.197 117.004L243.901 125.701L252.604 134.397L302.4 84.5996L352.196 34.8026L343.601 26.2006C338.874 21.4706 334.915 17.5996 334.803 17.5996C334.691 17.5996 312.233 39.9656 284.898 67.3016ZM216.8 183.042C198.535 187.931 198.668 213.442 216.984 218.183C223.202 219.792 231.071 218.084 234.651 214.347L235.76 213.19L233.812 211.213L231.865 209.236L230.527 210.41C222.318 217.618 209.2 211.583 209.2 200.6C209.2 189.633 222.285 183.553 230.453 190.724L231.865 191.964L233.812 189.987L235.76 188.01L234.651 186.853C231.07 183.116 222.978 181.388 216.8 183.042ZM302.445 183.032C284.161 187.949 284.286 213.413 302.617 218.188C316.065 221.69 328.466 211.05 326.409 197.773C324.727 186.92 313.551 180.045 302.445 183.032ZM34 200.568V218.4H37H40V213.241V208.082L46.5 207.913C58.007 207.613 62.87 204.036 62.967 195.8C63.082 186.088 58.604 183.117 43.5 182.884L34 182.737V200.568ZM72 200.568V218.4H75H78V213V207.6L82.9 207.604L87.8 207.607L91.522 213.004L95.244 218.4H98.446C100.899 218.4 101.578 218.283 101.349 217.9C101.185 217.625 99.495 215.15 97.593 212.4C95.691 209.65 94.008 207.182 93.853 206.915C93.674 206.607 94.132 206.145 95.113 205.644C101.968 202.147 103.227 191.814 97.448 186.487C94.169 183.464 92.341 183.051 81.5 182.884L72 182.737V200.568ZM110.8 200.6V218.4H123.8H136.8V215.8V213.2H126.8H116.8V208V202.8H125.4H134V200.4V198H125.4H116.8V193V188H126.6H136.4V185.4V182.8H123.6H110.8V200.6ZM145.6 200.6V218.4L154.7 218.394C164.609 218.388 167.182 218.033 170.861 216.169C183.037 209.999 183.037 191.201 170.861 185.031C167.182 183.167 164.609 182.812 154.7 182.806L145.6 182.8V200.6ZM188.8 200.6V218.4H191.8H194.8V200.6V182.8H191.8H188.8V200.6ZM238.4 185.4V188H244.2H250V203.2V218.4H253H256V203.2V188H262H268V185.4V182.8H253.2H238.4V185.4ZM274 200.6V218.4H277H280V200.6V182.8H277H274V200.6ZM335.2 200.6V218.4H338.194H341.188L341.294 206.192L341.4 193.983L351.215 206.092L361.031 218.2L363.515 218.319L366 218.438V200.619V182.8H363.006H360.011L359.906 195.238L359.8 207.676L350 195.252L340.2 182.829L337.7 182.815L335.2 182.8V200.6ZM310.48 188.04C324.141 190.873 323.705 210.718 309.927 213.239C303.524 214.411 297.179 210.666 295.396 204.662C292.462 194.783 300.467 185.962 310.48 188.04ZM53.285 189.128C56.311 190.619 57.695 193.852 56.781 197.294C55.722 201.284 53.277 202.481 45.7 202.721L40 202.901V195.413V187.925L45.7 188.062C50.687 188.183 51.636 188.316 53.285 189.128ZM89.838 188.589C96.755 190.643 96.755 200.157 89.838 202.211C88.56 202.59 86.102 202.8 82.927 202.8H78V195.4V188H82.927C86.102 188 88.56 188.21 89.838 188.589ZM166.453 188.961C171.22 190.716 173.819 194.851 173.769 200.6C173.69 209.696 168.979 213.172 156.7 213.192L151.6 213.2V200.559V187.918L158.1 188.098C162.873 188.23 165.092 188.459 166.453 188.961ZM315.59 235.426C315.376 235.99 315.2 236.63 315.2 236.848C315.2 237.066 314.865 237.999 314.455 238.922C314.045 239.845 313.229 241.88 312.641 243.444C302.749 269.775 276.749 296.323 250 307.406C248.57 307.998 246.645 308.824 245.722 309.241C244.799 309.659 243.775 310 243.446 310C243.116 310 242.751 310.155 242.634 310.344C242.517 310.534 241.292 311.017 239.911 311.42C238.53 311.822 237.31 312.177 237.2 312.21C237.09 312.242 236.73 312.383 236.4 312.523C235.48 312.913 229.927 314.353 228.8 314.495C228.25 314.564 227.62 314.733 227.4 314.871C227.18 315.008 226.047 315.223 224.881 315.348C223.716 315.473 222.615 315.667 222.435 315.779C222.254 315.89 221.228 316.086 220.153 316.213C219.079 316.341 217.48 316.537 216.6 316.649C199.676 318.803 179.573 316.817 163.269 311.379L159.138 310.001L146.661 318.101C139.799 322.555 134.145 326.38 134.097 326.6C133.991 327.087 138.777 329.621 144.2 331.951C146.4 332.896 148.74 333.91 149.4 334.205C150.772 334.816 161.9 338.428 165.2 339.333C167.161 339.87 169.995 340.496 177.2 341.984C187.794 344.172 215.807 344.168 226.785 341.977C232.169 340.903 236.765 339.89 238.8 339.329C243.161 338.128 251.408 335.462 251.78 335.135C251.989 334.951 252.412 334.8 252.72 334.8C253.027 334.8 253.846 334.541 254.54 334.225C255.233 333.909 256.97 333.17 258.4 332.583C285.119 321.616 310.372 299.57 325.888 273.665C332.564 262.521 339.506 245.841 341.774 235.5L342.015 234.4H328.998H315.98L315.59 235.426Z" fill="#DEC0E3"/>
<path fill-rule="evenodd" clip-rule="evenodd" d="M190.4 55.6243C188.97 55.8013 186.09 56.1383 184 56.3733C178.418 57.0023 169.731 58.6283 165.6 59.8183C159.388 61.6063 157.732 62.1033 157 62.4013C156.56 62.5803 154.31 63.3953 152 64.2123C149.69 65.0303 147.045 66.0363 146.122 66.4493C145.199 66.8623 144.338 67.2003 144.209 67.2003C143.715 67.2003 133.321 72.5373 129.651 74.6763C99.3879 92.3093 76.3029 120.541 65.2779 153.4C63.6059 158.383 62.3999 162.434 62.3999 163.067C62.3999 163.499 64.7019 163.6 74.5669 163.6H86.7339L88.0159 159.7C107.626 100.048 169.985 65.6273 230.919 80.8193C235.743 82.0223 243.997 84.7003 246.943 86.0193C248.317 86.6353 248.686 86.6683 249.193 86.2253C249.527 85.9343 254.3 82.7853 259.8 79.2283C265.3 75.6713 269.849 72.6233 269.909 72.4543C269.968 72.2863 267.718 71.0493 264.909 69.7073C258.13 66.4673 256.935 65.9573 252 64.2023C249.69 63.3813 247.44 62.5673 247 62.3953C245.422 61.7763 240.935 60.4793 237.4 59.6203C235.42 59.1393 233.17 58.5773 232.4 58.3723C231.63 58.1663 229.29 57.7193 227.2 57.3773C223.599 56.7893 221.557 56.5353 212.923 55.5993C208.662 55.1373 194.209 55.1533 190.4 55.6243Z" fill="#8240E1"/>
<path fill-rule="evenodd" clip-rule="evenodd" d="M265.192 75.7395C262.438 77.5325 257.589 80.6815 254.416 82.7375L248.647 86.4755L254.197 89.2125C260.814 92.4755 259.155 93.1035 268.373 83.8475C276.951 75.2365 276.679 75.8115 273.039 73.9395L270.199 72.4785L265.192 75.7395ZM288.496 98.5035C284.263 102.741 280.8 106.358 280.8 106.542C280.8 106.725 282.181 108.164 283.868 109.738C297.972 122.895 309.172 140.394 315.461 159.1L316.973 163.6H329.331H341.689L341.41 162.1C339.371 151.117 329.49 130.058 320.104 116.689C314.083 108.114 298.39 90.7995 296.638 90.7995C296.393 90.7995 292.729 94.2665 288.496 98.5035ZM243.6 125.8C248.326 130.53 252.283 134.4 252.393 134.4C252.503 134.4 248.726 130.53 244 125.8C239.274 121.07 235.317 117.2 235.207 117.2C235.097 117.2 238.874 121.07 243.6 125.8ZM238.131 185.4C238.133 186.94 238.205 187.521 238.292 186.691C238.379 185.861 238.377 184.601 238.289 183.891C238.2 183.181 238.129 183.86 238.131 185.4ZM366.184 200.6C366.184 210.5 366.236 214.493 366.3 209.473C366.363 204.453 366.363 196.353 366.3 191.473C366.236 186.593 366.184 190.7 366.184 200.6ZM221.1 187.882C221.595 187.978 222.405 187.978 222.9 187.882C223.395 187.787 222.99 187.709 222 187.709C221.01 187.709 220.605 187.787 221.1 187.882ZM306.7 187.882C307.195 187.978 308.005 187.978 308.5 187.882C308.995 187.787 308.59 187.709 307.6 187.709C306.61 187.709 306.205 187.787 306.7 187.882ZM256.182 203.2C256.182 211.67 256.235 215.135 256.299 210.9C256.364 206.665 256.364 199.735 256.299 195.5C256.235 191.265 256.182 194.73 256.182 203.2ZM233.381 190.5L231.8 192.2L233.5 190.619C235.081 189.148 235.384 188.8 235.081 188.8C235.016 188.8 234.251 189.565 233.381 190.5ZM42.3002 202.696C43.6752 202.774 45.9252 202.774 47.3002 202.696C48.6752 202.618 47.5502 202.554 44.8002 202.554C42.0502 202.554 40.9252 202.618 42.3002 202.696ZM126.682 213.096L136.764 213.214L136.912 215.808L137.059 218.403L137.03 215.702L137 213L126.8 212.989L116.6 212.979L126.682 213.096ZM154.082 213.096C155.558 213.173 158.078 213.173 159.682 213.097C161.287 213.021 160.08 212.958 157 212.958C153.92 212.957 152.607 213.019 154.082 213.096ZM221.1 213.482C221.595 213.577 222.405 213.577 222.9 213.482C223.395 213.387 222.99 213.309 222 213.309C221.01 213.309 220.605 213.387 221.1 213.482ZM306.7 213.482C307.195 213.577 308.005 213.577 308.5 213.482C308.995 213.387 308.59 213.309 307.6 213.309C306.61 213.309 306.205 213.387 306.7 213.482ZM62.2262 235.5C69.9382 270.668 98.3992 307.746 131.404 325.62L133.408 326.706L146.272 318.353L159.137 310.001L163.268 311.379C171.328 314.067 182.478 316.446 189.4 316.956C193.19 317.234 190.666 316.653 184.424 315.808C149.986 311.15 117.32 289.531 99.2892 259.462C94.9452 252.217 89.3302 240.099 88.1872 235.5L87.9132 234.4H74.9492H61.9852L62.2262 235.5ZM244.6 309.414C243.595 309.898 243.563 309.953 244.4 309.751C244.95 309.619 245.571 309.35 245.78 309.155C246.298 308.671 246.014 308.733 244.6 309.414ZM240.6 310.834C239.5 311.259 239.087 311.513 239.682 311.4C241.085 311.133 242.8 310.478 242.8 310.21C242.8 310.094 242.755 310.014 242.7 310.031C242.645 310.048 241.7 310.409 240.6 310.834ZM232.497 313.182C230.24 313.782 228.287 314.38 228.157 314.51C227.89 314.777 228.487 314.652 233 313.507C234.76 313.059 236.371 312.537 236.58 312.346C236.789 312.156 236.879 312.021 236.78 312.046C236.681 312.07 234.754 312.582 232.497 313.182ZM225.68 314.795C224.954 314.967 224.256 315.21 224.13 315.337C223.757 315.709 226.964 315.128 227.38 314.747C227.823 314.341 227.559 314.35 225.68 314.795ZM221.096 315.584C220.268 315.744 219.458 316.01 219.296 316.173C218.959 316.512 221.786 316.051 223 315.568C223.977 315.18 223.141 315.187 221.096 315.584ZM216.6 316.4L215.8 316.743H216.6C217.04 316.743 217.76 316.589 218.2 316.4L219 316.056H218.2C217.76 316.056 217.04 316.211 216.6 316.4ZM213 316.799C212.271 317.113 212.288 317.144 213.2 317.144C213.75 317.144 214.56 316.988 215 316.799C215.729 316.486 215.712 316.456 214.8 316.456C214.25 316.456 213.44 316.611 213 316.799ZM193.2 317.2C193.75 317.376 195.28 317.514 196.6 317.507L199 317.493L197 317.182C194.194 316.745 191.814 316.756 193.2 317.2ZM206.8 317.2L205 317.48L207.2 317.493C208.41 317.5 209.94 317.368 210.6 317.2C212.231 316.785 209.469 316.785 206.8 317.2Z" fill="#A062DB"/>
</svg>
