<svg width="400" height="400" viewBox="0 0 400 400" fill="none" xmlns="http://www.w3.org/2000/svg">
<path fill-rule="evenodd" clip-rule="evenodd" d="M190.6 55.6274C181.293 56.6764 175.558 57.5174 171.8 58.3824C166.677 59.5624 162.931 60.5074 162.2 60.8014C161.76 60.9794 160.05 61.5334 158.4 62.0334C144.377 66.2774 131.538 72.7654 117.045 82.9314C94.344 98.8534 74.529 125.826 65.278 153.4C63.606 158.383 62.4 162.434 62.4 163.067C62.4 163.499 64.688 163.599 74.5 163.593L86.6 163.585L88.097 158.998C110.461 90.4484 189.879 57.4274 254.933 89.6304L260.036 92.1564L268.018 84.1824C276.69 75.5184 276.561 75.7014 274.687 74.7424C259.662 67.0544 256.028 65.4494 246.6 62.3344C240.332 60.2634 234.542 58.7834 228.8 57.7854C226.93 57.4604 224.41 57.0124 223.2 56.7894C216.526 55.5604 197.28 54.8744 190.6 55.6274ZM288.496 98.5044C284.263 102.741 280.8 106.358 280.8 106.542C280.8 106.725 282.181 108.164 283.868 109.738C297.95 122.875 309.144 140.343 315.452 159.025L316.996 163.6H329.298C339.275 163.6 341.6 163.499 341.6 163.067C341.6 162.474 340.512 158.833 338.712 153.4C333.153 136.621 324.086 120.679 311.639 105.8C308.183 101.669 297.318 90.8004 296.643 90.8004C296.395 90.8004 292.729 94.2674 288.496 98.5044ZM62.143 235.1C62.252 235.485 62.465 236.43 62.617 237.2C62.981 239.041 65.508 247.052 66.232 248.66C66.545 249.354 66.8 250.173 66.8 250.48C66.8 250.788 66.944 251.211 67.12 251.42C67.296 251.629 67.862 252.88 68.378 254.2C81.379 287.467 112.359 319.183 144.639 332.271C145.277 332.53 146.942 333.214 148.337 333.792C152.25 335.411 162.196 338.625 166.2 339.565C168.18 340.03 170.34 340.576 171 340.779C171.66 340.982 173.1 341.265 174.2 341.407C175.3 341.549 176.74 341.82 177.4 342.01C184.558 344.069 217.979 344.161 226 342.144C226.55 342.005 228.26 341.662 229.8 341.38C232.289 340.925 234.707 340.36 240.77 338.815C288.077 326.766 330.573 283.319 341.829 235.494L342.089 234.389L329.023 234.494L315.957 234.6L313.845 240.2C293.023 295.401 234.996 326.836 176.616 314.542C136.828 306.164 103.106 276.858 89.349 238.705L87.8 234.41L74.873 234.405C62.752 234.4 61.958 234.444 62.143 235.1Z" fill="#4844E3"/>
<path fill-rule="evenodd" clip-rule="evenodd" d="M284.898 67.3016L235.197 117.004L243.901 125.701L252.604 134.397L302.4 84.5996L352.196 34.8026L343.601 26.2006C338.874 21.4706 334.915 17.5996 334.803 17.5996C334.691 17.5996 312.233 39.9656 284.898 67.3016ZM82.062 179.414C75.325 180.877 71.573 184.82 71.456 190.564C71.32 197.203 74.368 199.779 85.482 202.419C93.533 204.332 95.2 205.434 95.2 208.841C95.2 214.935 82.562 216.496 74.709 211.373C72.788 210.12 73.004 210.019 71.58 212.84C70.091 215.789 70.232 216.052 74.314 217.93C86.743 223.647 101.12 219.207 101.898 209.412C102.466 202.255 99.359 199.646 86.6 196.565C80.202 195.021 78 193.5 78 190.628C78 184.978 87.881 182.846 95.685 186.811C96.971 187.465 98.089 188 98.169 188C98.354 188 100.4 182.909 100.4 182.45C100.4 180.227 87.873 178.153 82.062 179.414ZM144.8 179.396C126.627 183.507 122.269 206.785 137.783 216.877C144.647 221.342 154.83 221.42 162.6 217.066L165 215.721L165.108 207.66L165.217 199.6H162.008H158.8V205.951V212.301L156.71 213.201C143.727 218.786 130.663 205.841 136.478 193.152C140.459 184.464 152.781 181.939 160.05 188.322L161.464 189.563L163.61 187.39L165.756 185.217L164.801 184.201C160.85 179.995 151.783 177.817 144.8 179.396ZM312.062 179.414C305.325 180.877 301.573 184.82 301.456 190.564C301.32 197.203 304.368 199.779 315.482 202.419C323.533 204.332 325.2 205.434 325.2 208.841C325.2 214.935 312.562 216.496 304.709 211.373C302.788 210.12 303.004 210.019 301.58 212.84C300.091 215.789 300.232 216.052 304.314 217.93C316.743 223.647 331.12 219.207 331.898 209.412C332.466 202.255 329.359 199.646 316.6 196.565C310.202 195.021 308 193.5 308 190.628C308 184.978 317.881 182.846 325.685 186.811C326.971 187.465 328.089 188 328.169 188C328.354 188 330.4 182.909 330.4 182.45C330.4 180.227 317.873 178.153 312.062 179.414ZM111.6 199.6V220H115H118.4V199.6V179.2H115H111.6V199.6ZM177.6 199.6V220H180.995H184.39L184.495 205.753L184.6 191.506L195.94 205.753L207.281 220H210.04H212.8V199.6V179.2H209.405H206.01L205.905 193.562L205.8 207.924L194.459 193.562L183.117 179.2H180.359H177.6V199.6ZM229.605 197.485C225.13 207.558 221.047 216.752 220.532 217.916L219.596 220.032L222.88 219.916L226.165 219.8L228.201 215.2L230.237 210.6H241.005H251.774L253.775 215.3L255.777 220H259.089C260.91 220 262.4 219.918 262.4 219.818C262.4 219.718 258.357 210.583 253.416 199.518L244.432 179.4L241.087 179.285L237.742 179.171L229.605 197.485ZM269.2 199.6V220H283.2H297.2V217V214H286.6H276V196.6V179.2H272.6H269.2V199.6ZM245.375 195.535C247.479 200.449 249.2 204.544 249.2 204.635C249.2 204.726 245.51 204.8 241 204.8C236.49 204.8 232.8 204.74 232.8 204.666C232.8 204.593 234.436 200.768 236.436 196.166C238.436 191.565 240.243 187.366 240.451 186.835C241.005 185.423 241.174 185.721 245.375 195.535Z" fill="#FAFAFA"/>
<path fill-rule="evenodd" clip-rule="evenodd" d="M305.199 46.6996L276.2 75.7996L305.3 46.8006C332.351 19.8436 334.579 17.5996 334.299 17.5996C334.243 17.5996 321.148 30.6946 305.199 46.6996ZM247.198 104.7L235 117L247.3 104.802C258.731 93.4666 259.78 92.3996 259.498 92.3996C259.441 92.3996 253.906 97.9346 247.198 104.7ZM243.6 125.8C248.326 130.53 252.283 134.4 252.393 134.4C252.503 134.4 248.726 130.53 244 125.8C239.274 121.07 235.317 117.2 235.207 117.2C235.097 117.2 238.874 121.07 243.6 125.8ZM212.986 199.6C212.986 210.93 213.037 215.565 213.1 209.9C213.162 204.235 213.162 194.965 213.1 189.3C213.037 183.635 212.986 188.27 212.986 199.6ZM128.12 199.6C128.12 200.81 128.195 201.305 128.287 200.7C128.378 200.095 128.378 199.105 128.287 198.5C128.195 197.895 128.12 198.39 128.12 199.6ZM102.093 208.4C102.093 209.17 102.175 209.485 102.276 209.1C102.376 208.715 102.376 208.085 102.276 207.7C102.175 207.315 102.093 207.63 102.093 208.4ZM332.093 208.4C332.093 209.17 332.175 209.485 332.276 209.1C332.376 208.715 332.376 208.085 332.276 207.7C332.175 207.315 332.093 207.63 332.093 208.4ZM297.337 217C297.339 218.76 297.409 219.43 297.493 218.489C297.578 217.549 297.577 216.109 297.491 215.289C297.405 214.47 297.336 215.24 297.337 217Z" fill="#7B848D"/>
<path fill-rule="evenodd" clip-rule="evenodd" d="M163.586 187.5L161.4 189.8L163.7 187.614C164.965 186.411 166 185.376 166 185.314C166 185.017 165.618 185.363 163.586 187.5ZM161.892 199.497L165.183 199.632L165.301 207.516L165.418 215.4L165.509 207.3L165.6 199.2L162.1 199.281L158.6 199.363L161.892 199.497ZM132.8 212.925C132.8 212.994 133.385 213.579 134.1 214.225L135.4 215.4L134.225 214.1C133.13 212.888 132.8 212.616 132.8 212.925Z" fill="#9CA4A9"/>
<path fill-rule="evenodd" clip-rule="evenodd" d="M194.505 77.487C195.114 77.579 196.014 77.577 196.505 77.482C196.997 77.387 196.5 77.311 195.4 77.314C194.3 77.317 193.897 77.395 194.505 77.487ZM207.505 77.483C208.002 77.579 208.722 77.575 209.105 77.475C209.487 77.375 209.08 77.296 208.2 77.301C207.32 77.305 207.007 77.387 207.505 77.483ZM189.3 77.876C189.685 77.976 190.315 77.976 190.7 77.876C191.085 77.775 190.77 77.693 190 77.693C189.23 77.693 188.915 77.775 189.3 77.876ZM154 87C153.45 87.314 153.18 87.572 153.4 87.572C153.62 87.572 154.25 87.314 154.8 87C155.35 86.686 155.62 86.428 155.4 86.428C155.18 86.428 154.55 86.686 154 87ZM147.9 89.825C145.975 90.806 144.4 91.698 144.4 91.808C144.4 91.987 151.56 88.529 151.967 88.154C152.55 87.615 150.921 88.285 147.9 89.825ZM141.9 93.029C140.405 93.84 140.496 94.178 142 93.4C142.66 93.059 143.2 92.694 143.2 92.59C143.2 92.332 143.157 92.347 141.9 93.029ZM135.493 97.014C134.672 97.572 134 98.115 134 98.22C134 98.325 134.72 97.935 135.6 97.353C136.997 96.428 137.47 96 137.093 96C137.034 96 136.314 96.456 135.493 97.014ZM130.1 100.825C128.945 101.711 128 102.524 128 102.631C128 102.738 128.99 102.078 130.2 101.165C132.11 99.723 132.691 99.181 132.3 99.207C132.245 99.21 131.255 99.938 130.1 100.825ZM121.2 108.2C120.228 109.19 119.523 110 119.633 110C119.743 110 120.628 109.19 121.6 108.2C122.572 107.21 123.277 106.4 123.167 106.4C123.057 106.4 122.172 107.21 121.2 108.2ZM116.8 112.2C115.828 113.19 115.123 114 115.233 114C115.343 114 116.228 113.19 117.2 112.2C118.172 111.21 118.877 110.4 118.767 110.4C118.657 110.4 117.772 111.21 116.8 112.2ZM112.8 116.6C111.828 117.59 111.123 118.4 111.233 118.4C111.343 118.4 112.228 117.59 113.2 116.6C114.172 115.61 114.877 114.8 114.767 114.8C114.657 114.8 113.772 115.61 112.8 116.6ZM105.959 124.9C103.943 127.522 103.889 127.6 104.103 127.6C104.213 127.6 105.051 126.61 105.965 125.4C106.878 124.19 107.545 123.2 107.447 123.2C107.348 123.2 106.679 123.965 105.959 124.9ZM102.093 130.3C101.057 131.796 100.721 132.4 100.923 132.4C101.017 132.4 101.57 131.68 102.153 130.8C103.336 129.012 103.284 128.579 102.093 130.3ZM97.8001 137.2C97.4591 137.86 97.2691 138.4 97.3791 138.4C97.4891 138.4 97.8591 137.86 98.2001 137.2C98.5411 136.54 98.7311 136 98.6211 136C98.5111 136 98.1411 136.54 97.8001 137.2ZM94.5791 143.242C93.5731 145.245 92.8141 146.948 92.8931 147.026C92.9711 147.104 93.8811 145.466 94.9151 143.384C95.9491 141.303 96.7081 139.6 96.6011 139.6C96.4951 139.6 95.5851 141.239 94.5791 143.242ZM88.0441 158.855C87.5801 160.23 87.2131 161.545 87.2301 161.778C87.2461 162.01 87.6951 160.954 88.2271 159.43C88.7591 157.907 89.1261 156.592 89.0411 156.508C88.9571 156.424 88.5091 157.48 88.0441 158.855ZM113.4 278.4C114.259 279.28 115.052 280 115.162 280C115.272 280 114.659 279.28 113.8 278.4C112.941 277.52 112.148 276.8 112.038 276.8C111.928 276.8 112.541 277.52 113.4 278.4ZM120.6 285.6C121.459 286.48 122.252 287.2 122.362 287.2C122.472 287.2 121.859 286.48 121 285.6C120.141 284.72 119.348 284 119.238 284C119.128 284 119.741 284.72 120.6 285.6ZM283.375 285.3L282.2 286.6L283.5 285.425C284.215 284.779 284.8 284.194 284.8 284.125C284.8 283.816 284.47 284.088 283.375 285.3ZM255.6 304.4C254.39 305.039 253.541 305.571 253.713 305.581C254.138 305.607 258 303.636 258 303.393C258 303.126 258.055 303.103 255.6 304.4ZM146.8 303.796C146.8 304.07 149.249 305.284 149.432 305.101C149.519 305.014 148.962 304.644 148.195 304.278C147.428 303.912 146.8 303.695 146.8 303.796ZM194.7 317.082C195.195 317.178 196.005 317.178 196.5 317.082C196.995 316.987 196.59 316.909 195.6 316.909C194.61 316.909 194.205 316.987 194.7 317.082ZM207.5 317.082C207.995 317.178 208.805 317.178 209.3 317.082C209.795 316.987 209.39 316.909 208.4 316.909C207.41 316.909 207.005 316.987 207.5 317.082Z" fill="#3B3D93"/>
</svg>
