<svg width="30" height="30" viewBox="0 0 30 30" fill="none" xmlns="http://www.w3.org/2000/svg">
<path d="M24.4407 3.74642C24.1258 3.76107 23.8291 3.85262 23.5655 3.95516H23.5618C23.2945 4.06136 22.0237 4.59603 20.0938 5.40536C18.1638 6.21835 15.659 7.27304 13.1724 8.3204C8.20657 10.4115 3.32498 12.4696 3.32498 12.4696L3.38358 12.4476C3.38358 12.4476 3.04666 12.5575 2.6951 12.7992C2.51566 12.9163 2.3179 13.0775 2.14578 13.3302C1.97366 13.5828 1.8345 13.971 1.88577 14.3702C1.97 15.0477 2.40945 15.4542 2.7244 15.6776C3.043 15.9046 3.34695 16.0108 3.34695 16.0108H3.35428L7.93191 17.5526C8.13699 18.2118 9.32718 22.1229 9.61282 23.0238C9.78128 23.5621 9.94607 23.899 10.1512 24.1554C10.25 24.2872 10.3672 24.3971 10.5064 24.4849C10.5613 24.5179 10.6199 24.5435 10.6785 24.5655C10.6968 24.5765 10.7151 24.5802 10.7371 24.5838L10.6895 24.5728C10.7041 24.5765 10.7151 24.5875 10.7261 24.5912C10.7627 24.6021 10.7884 24.6058 10.836 24.6131C11.5611 24.8328 12.1433 24.3824 12.1433 24.3824L12.1763 24.3568L14.8789 21.8958L19.409 25.3712L19.5115 25.4151C20.4563 25.8289 21.4121 25.5982 21.9175 25.1917C22.4265 24.7816 22.6243 24.2579 22.6243 24.2579L22.6573 24.1737L26.1582 6.24032C26.2571 5.7972 26.2827 5.38339 26.1729 4.98055C26.063 4.57772 25.781 4.20053 25.4405 3.99911C25.0962 3.79403 24.7556 3.73178 24.4407 3.74642ZM24.3455 5.66903C24.3418 5.72762 24.3528 5.7203 24.3272 5.83383V5.84481L20.8592 23.5914C20.8445 23.617 20.8189 23.672 20.7493 23.7269C20.6761 23.7855 20.6175 23.8221 20.3135 23.7013L14.7727 19.4532L11.4256 22.5037L12.1287 18.014C12.1287 18.014 20.8079 9.9244 21.1814 9.5765C21.555 9.2286 21.4304 9.15536 21.4304 9.15536C21.4561 8.73055 20.8665 9.03085 20.8665 9.03085L9.45169 16.1024L9.44803 16.0841L3.97684 14.242V14.2384C3.97317 14.2384 3.96585 14.2347 3.96219 14.2347C3.96585 14.2347 3.99149 14.2237 3.99149 14.2237L4.02078 14.2091L4.05008 14.1981C4.05008 14.1981 8.93533 12.14 13.9012 10.0489C16.3877 9.00155 18.8926 7.94686 20.8189 7.13387C22.7451 6.32455 24.1697 5.73129 24.2503 5.69833C24.3272 5.66903 24.2906 5.66903 24.3455 5.66903Z" fill="#E5E5E5"/>
</svg>
