<svg width="400" height="400" viewBox="0 0 400 400" fill="none" xmlns="http://www.w3.org/2000/svg">
<path fill-rule="evenodd" clip-rule="evenodd" d="M284.898 67.3016L235.197 117.004L243.901 125.701L252.604 134.397L302.4 84.5996L352.196 34.8026L343.601 26.2006C338.874 21.4706 334.915 17.5996 334.803 17.5996C334.691 17.5996 312.233 39.9656 284.898 67.3016ZM66.2699 150.725C66.1539 151.096 65.6169 152.66 65.0749 154.2C63.7179 158.057 62.3999 162.427 62.3999 163.067C62.3999 163.499 64.6559 163.599 74.2999 163.596L86.1999 163.592L87.0579 160.77L87.9159 157.948L86.9859 157.595C86.4739 157.4 82.1279 155.806 77.3279 154.052C72.5269 152.298 68.1229 150.68 67.5399 150.457C66.6699 150.123 66.4429 150.171 66.2699 150.725ZM143.4 173.86C111.976 178.894 115.383 223.638 147.2 223.764C180.907 223.897 182.08 175.068 148.4 173.809C146.31 173.731 144.06 173.754 143.4 173.86ZM200.6 173.86C169.176 178.894 172.583 223.638 204.4 223.764C238.107 223.897 239.28 175.068 205.6 173.809C203.51 173.731 201.26 173.754 200.6 173.86ZM290.499 174.016C281.17 175.695 275.719 181.777 276.536 189.595C277.281 196.716 280.606 199.162 294.2 202.587C302.782 204.75 305.2 206.423 305.2 210.2C305.2 217.98 288.316 219.308 279 212.259C278.234 211.68 278.135 211.794 276.68 214.927L275.16 218.2L276.08 218.958C286.012 227.143 307.81 224.794 312.018 215.086C316.225 205.378 311.499 199.211 297.089 195.606C286.318 192.912 283.74 191.045 284.583 186.55C285.719 180.496 297.893 178.632 306.357 183.217C307.556 183.866 308.585 184.348 308.645 184.288C308.704 184.229 309.379 182.717 310.145 180.929L311.536 177.678L309.047 176.453C304.484 174.207 295.787 173.064 290.499 174.016ZM79.5999 177.8V181.2H87.7999H95.9999V202.2V223.2H99.9999H104V202.2V181.2H112.2H120.4V177.8V174.4H99.9999H79.5999V177.8ZM240.4 198.8V223.2H257.2H274V219.8V216.4H261.2H248.4V195.4V174.4H244.4H240.4V198.8ZM153.6 181.811C171.191 188.758 167.526 215.388 148.8 216.691C136.018 217.58 126.935 206.4 130.213 193.814C132.789 183.923 144.165 178.085 153.6 181.811ZM210.8 181.811C228.391 188.758 224.726 215.388 206 216.691C193.218 217.58 184.135 206.4 187.413 193.814C189.989 183.923 201.365 178.085 210.8 181.811Z" fill="#F6EDF4"/>
<path fill-rule="evenodd" clip-rule="evenodd" d="M190.4 55.6243C188.97 55.8013 186.09 56.1383 184 56.3733C178.418 57.0023 169.731 58.6283 165.6 59.8183C159.388 61.6063 157.732 62.1033 157 62.4013C156.56 62.5803 154.31 63.3953 152 64.2123C149.69 65.0303 147.045 66.0363 146.122 66.4493C145.199 66.8623 144.343 67.2003 144.22 67.2003C142.825 67.2003 126.618 76.2163 120.6 80.3403C108.136 88.8803 93.5198 102.945 86.0368 113.6C79.1538 123.4 76.0698 128.542 72.0038 137C68.5828 144.116 68.6908 143.873 67.4238 147.315L66.4248 150.029L67.5118 150.446C68.1108 150.676 72.5268 152.298 77.3278 154.052C82.1278 155.806 86.4858 157.404 87.0118 157.604L87.9678 157.968L87.1838 160.247C86.4168 162.475 86.1648 163.968 86.6358 163.498C86.7648 163.368 87.5548 161.223 88.3898 158.731C111.598 89.5123 190.421 57.3963 256.314 90.3103L260.028 92.1653L268.014 84.1863C276.681 75.5273 276.567 75.6883 274.687 74.7753C273.979 74.4323 271.33 73.0483 268.8 71.7013C259.806 66.9123 246.481 61.7933 237.4 59.6363C235.42 59.1663 233.17 58.6053 232.4 58.3903C231.63 58.1743 229.29 57.7193 227.2 57.3773C223.599 56.7893 221.557 56.5353 212.923 55.5993C208.662 55.1373 194.209 55.1533 190.4 55.6243ZM288.447 98.5533C284.187 102.817 280.769 106.462 280.851 106.653C280.933 106.844 282.312 108.251 283.916 109.781L286.831 112.561L294.813 104.587L302.794 96.6133L299.907 93.7073C298.319 92.1083 296.834 90.8003 296.606 90.8003C296.379 90.8003 292.707 94.2893 288.447 98.5533ZM243.6 125.8C248.326 130.53 252.283 134.4 252.393 134.4C252.503 134.4 248.726 130.53 244 125.8C239.274 121.07 235.317 117.2 235.207 117.2C235.097 117.2 238.874 121.07 243.6 125.8ZM240.188 198.8C240.188 212.33 240.238 217.865 240.3 211.1C240.361 204.335 240.361 193.265 240.3 186.5C240.238 179.735 240.188 185.27 240.188 198.8ZM87.4958 181.5L95.5928 181.617L95.6998 202.508L95.8068 223.4L95.9038 202.3L95.9998 181.2L87.6998 181.291L79.3998 181.382L87.4958 181.5ZM107.9 181.498C110.155 181.57 113.845 181.57 116.1 181.498C118.355 181.427 116.51 181.369 112 181.369C107.49 181.369 105.645 181.427 107.9 181.498ZM158.8 184.925C158.8 184.994 159.385 185.579 160.1 186.225L161.4 187.4L160.225 186.1C159.13 184.888 158.8 184.616 158.8 184.925ZM216 184.925C216 184.994 216.585 185.579 217.3 186.225L218.6 187.4L217.425 186.1C216.33 184.888 216 184.616 216 184.925ZM284.493 187.6C284.493 188.37 284.575 188.685 284.676 188.3C284.776 187.915 284.776 187.285 284.676 186.9C284.575 186.515 284.493 186.83 284.493 187.6ZM121.328 198.8C121.328 200.23 121.401 200.815 121.489 200.1C121.578 199.385 121.578 198.215 121.489 197.5C121.401 196.785 121.328 197.37 121.328 198.8ZM178.528 198.8C178.528 200.23 178.601 200.815 178.689 200.1C178.778 199.385 178.778 198.215 178.689 197.5C178.601 196.785 178.528 197.37 178.528 198.8ZM164.893 198.8C164.893 199.57 164.975 199.885 165.076 199.5C165.176 199.115 165.176 198.485 165.076 198.1C164.975 197.715 164.893 198.03 164.893 198.8ZM222.093 198.8C222.093 199.57 222.175 199.885 222.276 199.5C222.376 199.115 222.376 198.485 222.276 198.1C222.175 197.715 222.093 198.03 222.093 198.8ZM159.775 211.7L158.6 213L159.9 211.825C161.112 210.73 161.384 210.4 161.075 210.4C161.006 210.4 160.421 210.985 159.775 211.7ZM216.975 211.7L215.8 213L217.1 211.825C217.815 211.179 218.4 210.594 218.4 210.525C218.4 210.216 218.07 210.488 216.975 211.7ZM254.7 216.299C258.275 216.366 264.125 216.366 267.7 216.299C271.275 216.233 268.35 216.179 261.2 216.179C254.05 216.179 251.125 216.233 254.7 216.299Z" fill="#BE80B4"/>
<path fill-rule="evenodd" clip-rule="evenodd" d="M301.891 95.5779L302.782 96.6249L294.814 104.586L286.847 112.546L289.723 115.709C301.589 128.754 310.06 143.036 315.461 159.1L316.973 163.6H329.331H341.689L341.425 162.192C338.029 144.093 322.07 116.007 305.695 99.3159C303.113 96.6839 301.401 95.0019 301.891 95.5779ZM62.002 234.7C62.011 235.887 65.092 246.015 66.249 248.66C66.552 249.354 66.8 250.198 66.8 250.537C66.8 250.876 66.96 251.252 67.156 251.373C67.351 251.494 67.634 252.083 67.785 252.682C68.034 253.676 68.374 254.508 70.279 258.8C79.905 280.477 100.735 306.098 116.882 316.123L117.964 316.795L124.456 307.697C128.027 302.694 131.365 298.042 131.876 297.36L132.803 296.12L130.302 294.177C111.892 279.877 96.991 259.793 89.556 239.262L87.8 234.411L74.9 234.405C67.805 234.402 62.001 234.535 62.002 234.7ZM315.59 235.426C315.376 235.99 315.199 236.665 315.198 236.926C315.196 237.187 314.964 237.85 314.682 238.4C314.4 238.95 313.838 240.3 313.434 241.4C313.029 242.5 312.168 244.631 311.519 246.136C310.87 247.641 310.398 248.913 310.47 248.961C311.31 249.534 333.248 259.286 333.385 259.148C334.598 257.936 340.507 241.276 341.774 235.5L342.015 234.4H328.998H315.98L315.59 235.426Z" fill="#7B1B6B"/>
<path fill-rule="evenodd" clip-rule="evenodd" d="M309.473 250.334C304.575 261.353 293.034 276.777 282.764 286.03C235.924 328.23 166.242 327.5 119.4 284.317C116.748 281.873 115.954 281.257 117.4 282.768C120.033 285.518 126.38 291.131 130.302 294.177L132.803 296.12L131.876 297.36C126.956 303.936 118.004 316.882 118.18 317.167C118.422 317.56 123.823 321.18 126.943 323.041C133.89 327.186 141.98 331.243 148.4 333.8C149.83 334.37 151.36 334.991 151.8 335.181C154.129 336.184 164.358 339.233 169.2 340.368C189.211 345.055 217.266 344.898 236.2 339.992C237.96 339.536 240.12 338.983 241 338.763C243.33 338.181 252.932 334.92 255.766 333.748C257.105 333.195 258.723 332.53 259.361 332.271C287.984 320.666 315.282 294.92 330.651 265.034L333.514 259.467L322.657 254.499C316.686 251.766 311.423 249.381 310.962 249.199C310.251 248.917 310.026 249.089 309.473 250.334ZM111.2 276.125C111.2 276.194 111.785 276.779 112.5 277.425L113.8 278.6L112.625 277.3C111.53 276.088 111.2 275.816 111.2 276.125Z" fill="#57095E"/>
</svg>
