<svg width="400" height="400" viewBox="0 0 400 400" fill="none" xmlns="http://www.w3.org/2000/svg">
<path fill-rule="evenodd" clip-rule="evenodd" d="M284.898 67.3016L235.197 117.004L243.901 125.701L252.604 134.397L302.4 84.5996L352.196 34.8026L343.601 26.2006C338.874 21.4706 334.915 17.5996 334.803 17.5996C334.691 17.5996 312.233 39.9656 284.898 67.3016ZM17.2002 182V184.8H24.0002H30.8002V202.4V220H34.2002H37.6002V202.4V184.8H44.2002H50.8002V182V179.2H34.0002H17.2002V182ZM58.0002 199.6V220H61.4002H64.8002V213.989V207.978L70.4852 208.089L76.1692 208.2L80.3242 214.1L84.4792 220H88.0402C89.9982 220 91.6002 219.901 91.6002 219.78C91.6002 219.66 89.6202 216.78 87.2002 213.382C82.0692 206.178 82.2862 206.913 84.8482 205.4C92.1252 201.104 93.3672 189.631 87.2042 183.65C83.3952 179.954 80.0272 179.2 67.3272 179.2H58.0002V199.6ZM112.819 180.285C112.242 181.516 95.6492 218.7 95.3202 219.5C95.1652 219.877 95.9412 220 98.4632 220H101.811L103.841 215.3L105.871 210.6H116.599H127.327L129.325 215.3L131.323 220H134.688C137.782 220 138.035 219.94 137.819 219.259C137.69 218.852 133.651 209.717 128.844 198.959L120.104 179.4L116.723 179.285C113.37 179.172 113.337 179.18 112.819 180.285ZM145.2 199.6V220H155.217C166.513 220 169.61 219.583 173.913 217.485C187.802 210.713 187.802 188.487 173.913 181.715C169.61 179.617 166.513 179.2 155.217 179.2H145.2V199.6ZM194 199.6V220H208.8H223.6V217V214H212.2H200.8V208V202H210.6H220.4V199.2V196.4H210.6H200.8V190.6V184.8H211.8H222.8V182V179.2H208.4H194V199.6ZM227.6 182V184.8H234.4H241.2V202.4V220H244.6H248V202.4V184.8H254.6H261.2V182V179.2H244.4H227.6V182ZM276.819 180.285C276.242 181.516 259.649 218.7 259.32 219.5C259.165 219.877 259.941 220 262.463 220H265.811L267.841 215.3L269.871 210.6H280.599H291.327L293.325 215.3L295.323 220H298.688C301.782 220 302.035 219.94 301.819 219.259C301.69 218.852 297.651 209.717 292.844 198.959L284.104 179.4L280.723 179.285C277.37 179.172 277.337 179.18 276.819 180.285ZM308.8 199.6V220H312.2H315.6V214V208H321.527C335.861 208 341.8 203.782 341.8 193.6C341.8 182.633 336.156 179.2 318.127 179.2H308.8V199.6ZM352.4 199.6V220H367.2H382V217V214H370.6H359.2V208V202H369H378.8V199.2V196.4H369H359.2V190.6V184.8H370.2H381.2V182V179.2H366.8H352.4V199.6ZM77.6002 185.229C86.5652 187.271 86.5652 199.929 77.6002 201.971C76.6102 202.196 73.3252 202.385 70.3002 202.39L64.8002 202.4V193.6V184.8L70.3002 184.81C73.3252 184.815 76.6102 185.004 77.6002 185.229ZM166.48 185.25C179.949 188.107 181.651 207.865 168.859 212.854C166.907 213.616 165.609 213.759 159.3 213.912L152 214.088V199.444V184.8H158.18C161.579 184.8 165.314 185.002 166.48 185.25ZM330.443 185.866C336.612 188.674 336.654 197.842 330.511 200.856C328.794 201.698 327.939 201.808 322.1 201.938L315.6 202.082V193.4V184.718L322.1 184.872C327.637 185.004 328.873 185.151 330.443 185.866ZM120.844 195.482C122.999 200.481 124.707 204.627 124.639 204.694C124.572 204.762 120.9 204.768 116.481 204.708L108.445 204.6L112.48 195.291C114.699 190.171 116.608 186.075 116.721 186.188C116.834 186.3 118.689 190.483 120.844 195.482ZM284.844 195.482C286.999 200.481 288.707 204.627 288.639 204.694C288.572 204.762 284.9 204.768 280.481 204.708L272.445 204.6L276.48 195.291C278.699 190.171 280.608 186.075 280.721 186.188C280.834 186.3 282.689 190.483 284.844 195.482Z" fill="#FBFBFB"/>
<path fill-rule="evenodd" clip-rule="evenodd" d="M175.8 57.5786C172.741 58.1466 167.787 59.2456 165.6 59.8406C161.949 60.8346 157.849 62.0556 157 62.4006C156.56 62.5796 154.31 63.3946 152 64.2116C149.69 65.0296 147.045 66.0356 146.122 66.4486C145.199 66.8616 144.338 67.1996 144.209 67.1996C143.715 67.1996 133.321 72.5366 129.651 74.6756C105.146 88.9536 85.675 109.696 73.01 135.016C68.968 143.096 69.071 142.86 66.783 149.2C65.87 151.73 64.979 154.16 64.803 154.6C64.192 156.126 62.871 160.608 62.592 162.1L62.311 163.6H74.522H86.734L88.224 159.1C101.93 117.716 135.188 88.7646 180.3 78.9466C182.718 78.4196 183.593 78.0636 183.574 77.6136C183.56 77.2756 182.885 72.5896 182.074 67.1996L180.6 57.3996L179 57.3406C178.12 57.3086 176.68 57.4156 175.8 57.5786ZM62.221 236.1C62.502 237.035 63.127 239.15 63.61 240.8C64.724 244.602 65.549 247.06 66.249 248.66C66.552 249.354 66.8 250.096 66.8 250.31C66.8 250.646 67.556 252.567 68.804 255.4C68.998 255.84 69.541 257.1 70.011 258.2C83.418 289.575 113.863 319.793 144.639 332.271C145.277 332.53 146.895 333.195 148.234 333.748C164.881 340.631 180.633 343.562 201.1 343.586L213.6 343.6V342.487C213.6 341.875 213.15 336.076 212.6 329.6C212.05 323.124 211.599 317.73 211.599 317.613C211.598 317.496 207.953 317.342 203.499 317.27C150.189 316.414 106.255 285.981 89.208 238.1L87.891 234.4H74.8H61.71L62.221 236.1Z" fill="#C53BF8"/>
<path fill-rule="evenodd" clip-rule="evenodd" d="M192.767 55.3599C192.675 55.4489 190.26 55.7249 187.4 55.9739C180.399 56.5849 179.421 56.7699 180.139 57.3469C180.516 57.6489 181.198 61.1969 182.187 67.9999C183.003 73.6099 183.73 78.2599 183.803 78.3339C183.876 78.4079 185.525 78.2669 187.468 78.0209C209.809 75.1909 232.957 79.1559 254.519 89.5059L260.038 92.1549L268.019 84.1809C276.42 75.7879 276.517 75.6609 275.097 74.9519C274.604 74.7049 271.41 73.0759 268 71.3309C260.5 67.4939 257.493 66.1559 252 64.2129C249.69 63.3959 247.44 62.5819 247 62.4039C245.506 61.8009 241.013 60.4979 237.4 59.6199C235.42 59.1389 233.17 58.5769 232.4 58.3719C231.63 58.1659 229.29 57.7189 227.2 57.3769C223.599 56.7889 221.557 56.5349 212.923 55.5989C209.412 55.2179 193.115 55.0249 192.767 55.3599ZM288.539 98.4579L280.535 106.463L286.167 112.132C299.987 126.042 309.394 141.132 315.465 159.129L316.973 163.6H329.287C339.745 163.6 341.6 163.513 341.6 163.023C341.6 162.093 338.939 153.582 337.187 148.909C329.483 128.357 316.496 108.93 300.66 94.2649L296.544 90.4529L288.539 98.4579ZM243.6 125.8C248.326 130.53 252.283 134.4 252.393 134.4C252.503 134.4 248.726 130.53 244 125.8C239.274 121.07 235.317 117.2 235.207 117.2C235.097 117.2 238.874 121.07 243.6 125.8ZM16.9341 182C16.9341 183.65 17.0051 184.325 17.0911 183.5C17.1781 182.675 17.1781 181.325 17.0911 180.5C17.0051 179.675 16.9341 180.35 16.9341 182ZM50.9341 182C50.9341 183.65 51.0051 184.325 51.0911 183.5C51.1781 182.675 51.1781 181.325 51.0911 180.5C51.0051 179.675 50.9341 180.35 50.9341 182ZM222.934 182C222.934 183.65 223.005 184.325 223.091 183.5C223.178 182.675 223.178 181.325 223.091 180.5C223.005 179.675 222.934 180.35 222.934 182ZM227.334 182C227.334 183.65 227.405 184.325 227.491 183.5C227.578 182.675 227.578 181.325 227.491 180.5C227.405 179.675 227.334 180.35 227.334 182ZM261.334 182C261.334 183.65 261.405 184.325 261.491 183.5C261.578 182.675 261.578 181.325 261.491 180.5C261.405 179.675 261.334 180.35 261.334 182ZM381.334 182C381.334 183.65 381.405 184.325 381.491 183.5C381.578 182.675 381.578 181.325 381.491 180.5C381.405 179.675 381.334 180.35 381.334 182ZM30.5841 202.4C30.5841 212.19 30.6361 216.195 30.7001 211.3C30.7631 206.405 30.7631 198.395 30.7001 193.5C30.6361 188.605 30.5841 192.61 30.5841 202.4ZM240.984 202.4C240.984 212.19 241.036 216.195 241.1 211.3C241.163 206.405 241.163 198.395 241.1 193.5C241.036 188.605 240.984 192.61 240.984 202.4ZM220.534 199.2C220.534 200.85 220.605 201.525 220.691 200.7C220.778 199.875 220.778 198.525 220.691 197.7C220.605 196.875 220.534 197.55 220.534 199.2ZM378.934 199.2C378.934 200.85 379.005 201.525 379.091 200.7C379.178 199.875 379.178 198.525 379.091 197.7C379.005 196.875 378.934 197.55 378.934 199.2ZM223.737 217C223.739 218.76 223.809 219.43 223.893 218.489C223.978 217.549 223.977 216.109 223.891 215.289C223.805 214.47 223.736 215.24 223.737 217ZM382.137 217C382.139 218.76 382.209 219.43 382.293 218.489C382.378 217.549 382.377 216.109 382.291 215.289C382.205 214.47 382.136 215.24 382.137 217ZM314.877 237.309C301.828 278.174 261.072 311.152 217.4 316.185C214.54 316.514 210.94 316.952 209.4 317.158L206.6 317.532L209.058 317.466L211.515 317.4L211.734 319.4C211.854 320.5 212.357 326.395 212.851 332.5C213.714 343.169 213.781 343.599 214.574 343.586C217.767 343.531 231.083 341.318 236.2 339.992C237.96 339.536 240.12 338.983 241 338.763C243.33 338.181 252.932 334.92 255.766 333.748C257.105 333.195 258.723 332.53 259.361 332.271C290.185 319.773 320.187 289.991 333.976 258.2C334.453 257.1 335.006 255.84 335.204 255.4C337.492 250.32 341.983 236.634 341.998 234.7C341.999 234.535 336.105 234.404 328.9 234.409L315.8 234.418L314.877 237.309Z" fill="#2EBEE3"/>
</svg>
