<svg width="49" height="50" viewBox="0 0 49 50" fill="none" xmlns="http://www.w3.org/2000/svg">
<path d="M45.6297 12.2587L43.9595 6.41323C43.8636 6.0772 43.5564 5.84546 43.2068 5.84546H42.3717C42.0221 5.84546 41.715 6.0772 41.619 6.41323L39.9488 12.2587C39.8301 12.6745 40.0707 13.1078 40.4865 13.2266C40.9024 13.3453 41.3356 13.1048 41.4544 12.6889L41.7693 11.5866H43.8093L44.1242 12.689C44.2225 13.0329 44.536 13.257 44.8767 13.257C44.9479 13.257 45.0203 13.2471 45.0921 13.2266C45.5076 13.1078 45.7485 12.6745 45.6297 12.2587ZM42.2165 10.0208L42.7892 8.01665L43.3618 10.0208H42.2165Z" fill="#2D3E50"/>
<path d="M45.7119 1.67012H41.1805C41.1932 1.31279 41.0861 0.960449 40.8671 0.661523C40.559 0.241113 40.0833 0 39.562 0H29.8455C28.0324 0 26.5574 1.4751 26.5574 3.28809V12.4739C26.5574 14.0174 27.6263 15.3158 29.0626 15.6679V19.1545C29.0626 19.4711 29.2533 19.7566 29.5459 19.8777C29.6428 19.9178 29.7444 19.9373 29.8454 19.9373C30.0491 19.9373 30.2494 19.8577 30.3991 19.708L34.345 15.762H35.2119C35.1992 16.1193 35.3063 16.4717 35.5253 16.7706C35.8334 17.191 36.3091 17.4322 36.8303 17.4322H45.7118C47.5249 17.4322 48.9999 15.9571 48.9999 14.1441V4.9582C49 3.14521 47.5249 1.67012 45.7119 1.67012ZM35.6447 14.1963H34.0209C33.8133 14.1963 33.6142 14.2787 33.4674 14.4256L30.6284 17.2646V14.9792C30.6284 14.5469 30.2779 14.1963 29.8455 14.1963C28.8958 14.1963 28.1232 13.4236 28.1232 12.4739V3.28809C28.1232 2.33838 28.8958 1.56572 29.8455 1.56572H39.562C39.5706 1.56572 39.5884 1.56572 39.6041 1.58701C39.6197 1.6084 39.6145 1.62539 39.6118 1.63359L36.9279 10.1327C36.8928 10.1117 36.8562 10.0924 36.817 10.0768C36.1531 9.81133 35.5736 9.46133 35.0795 9.03145C35.9584 7.81309 36.2837 6.53496 36.4037 5.74102H37.3612C37.7936 5.74102 38.1442 5.39053 38.1442 4.95811C38.1442 4.52578 37.7937 4.1752 37.3612 4.1752H34.8037V4.12305C34.8037 3.69072 34.4532 3.34014 34.0208 3.34014C33.5884 3.34014 33.2379 3.69063 33.2379 4.12305V4.1752H30.6805C30.2482 4.1752 29.8976 4.52568 29.8976 4.95811C29.8976 5.39053 30.2481 5.74102 30.6805 5.74102H34.8131C34.7081 6.27822 34.486 7.02656 34.019 7.7793C33.8937 7.57607 33.7787 7.36377 33.6767 7.14023C33.4971 6.74678 33.0324 6.57383 32.6393 6.75342C32.2459 6.93311 32.0728 7.39756 32.2525 7.79082C32.4527 8.22949 32.6923 8.63994 32.9674 9.0209C32.505 9.42666 31.9339 9.79307 31.2247 10.0768C30.8233 10.2374 30.628 10.693 30.7886 11.0944C30.911 11.4006 31.205 11.5868 31.5157 11.5868C31.6125 11.5868 31.711 11.5687 31.8063 11.5307C32.7113 11.1686 33.4404 10.7028 34.0286 10.1868C34.662 10.7438 35.4015 11.1971 36.2352 11.5307C36.3121 11.5613 36.3909 11.5785 36.4694 11.5842L35.6447 14.1963ZM47.4343 14.144C47.4343 15.0938 46.6616 15.8664 45.7119 15.8664H36.8305C36.8219 15.8664 36.8041 15.8664 36.7884 15.845C36.7729 15.8236 36.7781 15.8067 36.7808 15.7984L40.7478 3.23594H45.7118C46.6615 3.23594 47.4342 4.00859 47.4342 4.9583V14.144H47.4343Z" fill="#2D3E50"/>
<path d="M31.058 40.2275L23.739 37.9756C23.3644 37.8603 23.1127 37.5195 23.1127 37.1275V34.274L23.539 33.9188C24.3048 33.2807 24.8133 32.387 24.9708 31.4027L25.0683 30.7934H25.67C27.0227 30.7934 28.123 29.693 28.123 28.3403V26.6702C28.123 25.4692 27.2553 24.4677 26.1139 24.2582L26.8754 19.4986C27.2212 17.3372 26.6051 15.1425 25.1848 13.477C23.7645 11.8114 21.6946 10.856 19.5058 10.856H13.4628C11.2738 10.856 9.20391 11.8111 7.78369 13.4768C6.36348 15.1423 5.74727 17.3372 6.09307 19.4984L6.85459 24.258C5.71328 24.4676 4.84551 25.4691 4.84551 26.6701V28.3402C4.84551 29.6929 5.9459 30.7933 7.29853 30.7933H7.90029L7.99775 31.4026C8.15527 32.387 8.66377 33.2805 9.42959 33.9187L9.85586 34.274V37.1274C9.85586 37.5194 9.6042 37.8603 9.22959 37.9755L1.91055 40.2274C0.169727 40.7633 -1 42.347 -1 44.1683V47.5469C-1 48.8995 0.100391 49.9999 1.45303 49.9999H31.5156C32.8683 49.9999 33.9687 48.8995 33.9687 47.5469V44.1683C33.9687 42.347 32.7989 40.7633 31.058 40.2275ZM26.5574 26.67V28.3401C26.5574 28.8294 26.1594 29.2274 25.6701 29.2274H25.3188L25.8663 25.8054C26.2615 25.8951 26.5574 26.2483 26.5574 26.67ZM7.29853 29.2274C6.80928 29.2274 6.41123 28.8294 6.41123 28.3401V26.67C6.41123 26.2483 6.70713 25.8951 7.10215 25.8054L7.64971 29.2274H7.29853V29.2274ZM7.63936 19.2512C7.36602 17.5432 7.85293 15.8088 8.9752 14.4926C10.0976 13.1765 11.7332 12.4216 13.4629 12.4216H19.5059C21.2355 12.4216 22.8712 13.1764 23.9936 14.4926C25.1158 15.8087 25.6028 17.5432 25.3295 19.2512L24.5351 24.217H23.8725C23.8468 24.217 23.8252 24.1986 23.821 24.1733L23.2186 20.5584C23.088 19.7751 22.4168 19.2065 21.6227 19.2065H11.3464C10.5522 19.2065 9.88105 19.7751 9.75049 20.5585L9.14805 24.1733C9.14375 24.1986 9.12217 24.217 9.09658 24.217H8.43398L7.63936 19.2512ZM9.54385 31.1553L8.68428 25.7828H9.09639C9.89053 25.7828 10.5617 25.2143 10.6923 24.4309L11.2947 20.816C11.299 20.7907 11.3206 20.7724 11.3462 20.7724H21.6224C21.648 20.7724 21.6696 20.7907 21.6738 20.816L22.2763 24.431C22.4068 25.2143 23.078 25.7828 23.8722 25.7828H24.2843L23.6826 29.5435C23.5 29.749 21.5983 31.7327 16.4844 31.7327C16.0521 31.7327 15.7015 32.0832 15.7015 32.5156C15.7015 32.948 16.052 33.2985 16.4844 33.2985C19.7665 33.2985 21.9142 32.5459 23.2229 31.8192C23.065 32.1629 22.8317 32.4701 22.5367 32.716L19.1852 35.509C18.8763 35.7664 18.4847 35.9081 18.0825 35.9081H14.886C14.484 35.9081 14.0923 35.7663 13.7834 35.509L10.4318 32.716C9.95703 32.32 9.6415 31.7657 9.54385 31.1553ZM9.69004 39.4722C10.7258 39.1535 11.4217 38.2113 11.4217 37.1276V35.579L12.7811 36.7119C13.3708 37.2033 14.1185 37.474 14.886 37.474H18.0825C18.8502 37.474 19.5978 37.2033 20.1875 36.7119L21.5469 35.5789V37.1275C21.5469 38.2112 22.2428 39.1534 23.2785 39.4721L23.6737 39.5936C20.8981 43.852 17.2089 44.9063 16.4824 45.077C15.7487 44.9088 12.0801 43.8744 9.29453 39.5937L9.69004 39.4722ZM4.84551 48.4342H1.45303C0.963769 48.4342 0.565723 48.0361 0.565723 47.5469V44.1683C0.565723 43.7253 0.678711 43.3058 0.879395 42.9383L4.22578 45.7268C4.61963 46.0551 4.84551 46.5374 4.84551 47.05V48.4342V48.4342ZM26.5574 47.0501V48.4341H6.41123V47.0501C6.41123 46.0713 5.97998 45.1506 5.22813 44.5241L2.02871 41.8579C2.13838 41.8062 2.25225 41.7605 2.371 41.724L7.74277 40.0713C11.2185 45.7319 16.1419 46.6134 16.3555 46.6489C16.398 46.656 16.441 46.6596 16.4842 46.6596C16.5273 46.6596 16.5703 46.656 16.6129 46.6489C16.8265 46.6133 21.7501 45.7319 25.2256 40.0713L30.5974 41.7241C30.7161 41.7606 30.8299 41.8063 30.9396 41.858L27.7404 44.5242C26.9887 45.1507 26.5574 46.0713 26.5574 47.0501ZM32.4029 47.5469C32.4029 48.0361 32.0049 48.4342 31.5156 48.4342H28.1231V47.0502C28.1231 46.5375 28.349 46.0552 28.7429 45.727L32.0893 42.9385C32.2899 43.3058 32.4029 43.7254 32.4029 44.1685V47.5469Z" fill="#2D3E50"/>
</svg>
