<svg width="140" height="141" viewBox="0 0 140 141" fill="none" xmlns="http://www.w3.org/2000/svg">
<path d="M137.766 1.9812H2.23404C0.999957 1.9812 0 3.12829 0 4.54396V137.808C0 139.223 0.999957 140.37 2.23404 140.37H137.766C139 140.37 140 139.223 140 137.808V4.54396C140 3.12829 139 1.9812 137.766 1.9812ZM135.532 7.10672V22.4833H4.46809V7.10672H135.532ZM4.46809 135.245V27.6088H135.532V135.245H4.46809Z" fill="#AFDF9D"/>
<path d="M117.66 5.49588C118.894 5.49588 119.894 4.3485 119.894 2.93312C119.894 1.51775 118.894 0.370361 117.66 0.370361C116.426 0.370361 115.426 1.51775 115.426 2.93312C115.426 4.3485 116.426 5.49588 117.66 5.49588Z" fill="#AFDF9D"/>
<path d="M128.085 5.49588C129.318 5.49588 130.319 4.3485 130.319 2.93312C130.319 1.51775 129.318 0.370361 128.085 0.370361C126.851 0.370361 125.851 1.51775 125.851 2.93312C125.851 4.3485 126.851 5.49588 128.085 5.49588Z" fill="#AFDF9D"/>
<path d="M107.234 5.49588C108.468 5.49588 109.468 4.3485 109.468 2.93312C109.468 1.51775 108.468 0.370361 107.234 0.370361C106 0.370361 105 1.51775 105 2.93312C105 4.3485 106 5.49588 107.234 5.49588Z" fill="#AFDF9D"/>
<path d="M99.0426 60.9246H116.915C118.149 60.9246 119.149 59.7775 119.149 58.3618C119.149 56.9462 118.149 55.7991 116.915 55.7991H99.0426C97.8086 55.7991 96.8086 56.9462 96.8086 58.3618C96.8086 59.7775 97.8086 60.9246 99.0426 60.9246Z" fill="#AFDF9D"/>
<path d="M99.0426 76.3013H116.915C118.149 76.3013 119.149 75.1542 119.149 73.7385C119.149 72.3229 118.149 71.1758 116.915 71.1758H99.0426C97.8086 71.1758 96.8086 72.3229 96.8086 73.7385C96.8086 75.1542 97.8086 76.3013 99.0426 76.3013Z" fill="#AFDF9D"/>
<path d="M99.0426 123.31H116.915C118.149 123.31 119.149 122.163 119.149 120.747C119.149 119.331 118.149 118.184 116.915 118.184H99.0426C97.8086 118.184 96.8086 119.331 96.8086 120.747C96.8086 122.163 97.8086 123.31 99.0426 123.31Z" fill="#AFDF9D"/>
<path d="M99.0426 138.686H116.915C118.149 138.686 119.149 137.539 119.149 136.124C119.149 134.708 118.149 133.561 116.915 133.561H99.0426C97.8086 133.561 96.8086 134.708 96.8086 136.124C96.8086 137.539 97.8086 138.686 99.0426 138.686Z" fill="#AFDF9D"/>
<path d="M39.038 62.1616C38.3795 62.6284 37.9785 63.4533 37.9785 64.3417V98.5118C37.9785 99.4003 38.3795 100.225 39.038 100.692C39.397 100.946 39.8042 101.075 40.2126 101.075C40.5539 101.075 40.8965 100.985 41.2116 100.804L70.9989 83.7189C71.7555 83.2846 72.2338 82.3975 72.2338 81.4268C72.2338 80.456 71.7558 79.5686 70.9989 79.1346L41.2116 62.0495C40.5191 61.6521 39.6969 61.6945 39.038 62.1616ZM42.4466 68.4886L65.0042 81.4268L42.4466 94.3649V68.4886Z" fill="#AFDF9D"/>
<path d="M61.0634 49.8193H23.0846C21.8505 49.8193 20.8506 50.9664 20.8506 52.3821V110.471C20.8506 111.887 21.8505 113.034 23.0846 113.034H87.1272C88.3613 113.034 89.3612 111.887 89.3612 110.471V52.3821C89.3612 50.9664 88.3613 49.8193 87.1272 49.8193H69.9995C68.7654 49.8193 67.7655 50.9664 67.7655 52.3821C67.7655 53.7978 68.7654 54.9449 69.9995 54.9449H84.8931V107.909H25.3187V54.9449H61.0634C62.2974 54.9449 63.2974 53.7978 63.2974 52.3821C63.2974 50.9664 62.2974 49.8193 61.0634 49.8193Z" fill="#AFDF9D"/>
<path d="M128.83 32.7344H11.1706C9.93648 32.7344 8.93652 33.8815 8.93652 35.2971V127.557C8.93652 128.972 9.93648 130.119 11.1706 130.119H107.979C109.213 130.119 110.213 128.972 110.213 127.557C110.213 126.141 109.213 124.994 107.979 124.994H13.4046V37.8599H126.596V124.994H116.915C115.681 124.994 114.681 126.141 114.681 127.557C114.681 128.972 115.681 130.119 116.915 130.119H128.83C130.064 130.119 131.064 128.972 131.064 127.557V35.2971C131.064 33.8815 130.064 32.7344 128.83 32.7344Z" fill="#AFDF9D"/>
</svg>
