<svg width="400" height="400" viewBox="0 0 400 400" fill="none" xmlns="http://www.w3.org/2000/svg">
<path fill-rule="evenodd" clip-rule="evenodd" d="M190.6 55.6331C189.06 55.8121 186.09 56.1481 184 56.3801C178.464 56.9941 169.76 58.6201 165.6 59.8181C159.388 61.6061 157.732 62.1031 157 62.4011C156.56 62.5801 154.31 63.3951 152 64.2121C149.69 65.0301 147.045 66.0361 146.122 66.4491C145.199 66.8621 144.338 67.2001 144.209 67.2001C143.715 67.2001 133.321 72.5371 129.651 74.6761C100.405 91.7161 77.578 118.975 66.405 150.2C65.697 152.18 64.974 154.16 64.8 154.6C64.183 156.156 62.869 160.62 62.592 162.1L62.311 163.6H74.522H86.734L88.016 159.7C111.081 89.5411 190.144 57.1141 256.71 90.5121L260.02 92.1731L268.01 84.1901C276.688 75.5201 276.563 75.6971 274.687 74.7521C273.979 74.3951 270.79 72.7681 267.6 71.1361C257.136 65.7841 247.036 61.9391 237.4 59.6401C235.42 59.1681 233.17 58.6051 232.4 58.3901C231.63 58.1741 229.29 57.7191 227.2 57.3771C223.599 56.7891 221.557 56.5351 212.923 55.5991C208.656 55.1361 194.687 55.1571 190.6 55.6331ZM288.496 98.5041C284.263 102.741 280.8 106.358 280.8 106.542C280.8 106.725 282.181 108.164 283.868 109.738C298.259 123.163 313.294 147.35 316.597 162.388L316.864 163.6H329.232C339.264 163.6 341.6 163.499 341.6 163.067C341.6 162.453 340.438 158.578 338.701 153.4C332.771 135.72 323.175 119.121 310.293 104.263C306.732 100.155 297.218 90.8061 296.596 90.8021C296.374 90.8011 292.729 94.2671 288.496 98.5041ZM62.221 236.1C62.502 237.035 63.127 239.15 63.61 240.8C64.724 244.602 65.549 247.06 66.249 248.66C66.552 249.354 66.8 250.198 66.8 250.537C66.8 250.876 66.96 251.252 67.156 251.373C67.351 251.494 67.634 252.083 67.785 252.682C68.034 253.676 68.374 254.508 70.279 258.8C84.398 290.595 114.009 319.852 144.639 332.271C145.277 332.53 146.895 333.195 148.234 333.748C165.184 340.757 180.591 343.572 202 343.572C219.4 343.572 224.603 342.933 240.77 338.815C267.213 332.08 295.169 313.714 313.961 290.73C326.645 275.217 338.012 252.644 341.775 235.495L342.018 234.389L328.988 234.495L315.957 234.6L313.832 240.2C288.445 307.1 210.735 336.625 146.675 303.71C119.9 289.953 97.562 264.093 88.617 236.5L87.936 234.4H74.823H61.71L62.221 236.1Z" fill="#E55E66"/>
<path fill-rule="evenodd" clip-rule="evenodd" d="M284.898 67.3016L235.197 117.004L243.901 125.701L252.604 134.397L302.4 84.5996L352.196 34.8026L343.601 26.2006C338.874 21.4706 334.915 17.5996 334.803 17.5996C334.691 17.5996 312.233 39.9656 284.898 67.3016ZM269.155 172.019C250.638 173.697 240.001 193.074 248.306 210C257.363 228.46 287.269 228.398 296.388 209.9C304.468 193.511 294.084 173.651 276.66 172.17C275.307 172.055 273.75 171.912 273.2 171.852C272.65 171.793 270.83 171.868 269.155 172.019ZM324.6 172.048C313.854 172.88 308.2 178.034 308.2 187C308.2 195.449 311.202 198.049 324.868 201.439C335.433 204.059 337.595 205.452 337.599 209.641C337.605 217.12 322.477 218.986 312.259 212.766C309.407 211.03 309.666 210.904 307.846 214.915L306.432 218.03L308.601 219.418C320.986 227.341 341.348 224.391 345.199 214.115C349.132 203.618 344.115 197.936 327.438 194.001C317.617 191.683 314.447 188.537 316.986 183.628C319.623 178.528 331.395 177.591 339.232 181.856C340.317 182.446 341.278 182.855 341.367 182.765C341.554 182.577 344.4 176.375 344.4 176.157C344.4 176.078 343.54 175.578 342.49 175.046C337.781 172.66 331.119 171.543 324.6 172.048ZM52.9748 173.078C53.1238 173.466 58.0498 184.9 63.9228 198.487L74.5998 223.189L78.8198 223.195L83.0398 223.2L93.7738 198.5C99.6778 184.915 104.595 173.485 104.701 173.1C104.875 172.466 104.501 172.4 100.724 172.4H96.5538L87.7898 192.637C80.6158 209.202 78.9578 212.724 78.6538 212.044C78.4498 211.587 74.5718 202.525 70.0348 191.907L61.7858 172.6L57.2448 172.486C53.0458 172.381 52.7238 172.426 52.9748 173.078ZM114 197.8V223.2H118.2H122.4V197.8V172.4H118.2H114V197.8ZM139.6 197.796V223.263L153.5 223.101C169.091 222.92 169.636 222.842 175.6 219.935C192.878 211.513 192.851 184.137 175.556 175.703C169.864 172.928 168.382 172.717 153.1 172.51L139.6 172.328V197.796ZM200.4 197.796V223.2H219H237.6V219.6V216H223.191H208.782L208.891 208.5L209 201L221.3 200.894L233.6 200.788V197.394V194H221.2H208.8V186.8V179.6H222.816H236.831L236.716 176.1L236.6 172.6L218.5 172.496L200.4 172.392V197.796ZM276.512 179.789C290.482 182.749 295.597 200.965 285.311 211.124C275.076 221.234 257.019 215.929 254.406 202.045C251.765 188.018 262.82 176.887 276.512 179.789ZM165.115 180.014C177.488 182.022 183.648 194.676 178.057 206.598C174.742 213.666 169.234 215.981 155.7 215.993L148 216V197.8V179.6L155.3 179.603C159.315 179.605 163.732 179.79 165.115 180.014Z" fill="#F0BCE6"/>
<path fill-rule="evenodd" clip-rule="evenodd" d="M305.194 46.6006C289.241 62.5496 276.282 75.5996 276.395 75.5996C276.509 75.5996 289.651 62.5496 305.6 46.5996C321.549 30.6496 334.508 17.5996 334.399 17.6006C334.29 17.6006 321.147 30.6506 305.194 46.6006ZM247.198 104.7L235 117L247.3 104.802C258.731 93.4666 259.78 92.3996 259.498 92.3996C259.441 92.3996 253.906 97.9346 247.198 104.7ZM243.6 125.8C248.326 130.53 252.283 134.4 252.393 134.4C252.503 134.4 248.726 130.53 244 125.8C239.274 121.07 235.317 117.2 235.207 117.2C235.097 117.2 238.874 121.07 243.6 125.8ZM269.905 171.883C270.402 171.979 271.122 171.975 271.505 171.875C271.887 171.775 271.48 171.696 270.6 171.701C269.72 171.705 269.407 171.787 269.905 171.883ZM273.505 171.883C274.002 171.979 274.722 171.975 275.105 171.875C275.487 171.775 275.08 171.696 274.2 171.701C273.32 171.705 273.007 171.787 273.505 171.883ZM325.1 171.882C325.595 171.978 326.405 171.978 326.9 171.882C327.395 171.787 326.99 171.709 326 171.709C325.01 171.709 324.605 171.787 325.1 171.882ZM328.7 171.882C329.195 171.978 330.005 171.978 330.5 171.882C330.995 171.787 330.59 171.709 329.6 171.709C328.61 171.709 328.205 171.787 328.7 171.882ZM122.588 197.8C122.588 211.88 122.639 217.582 122.7 210.471C122.761 203.36 122.761 191.84 122.7 184.871C122.638 177.902 122.588 183.72 122.588 197.8ZM271.3 179.487C271.905 179.578 272.895 179.578 273.5 179.487C274.105 179.395 273.61 179.32 272.4 179.32C271.19 179.32 270.695 179.395 271.3 179.487ZM148.096 197.9L148.192 216.2L148.3 198.109L148.408 180.017L156.104 179.899L163.8 179.782L155.9 179.691L148 179.6L148.096 197.9ZM208.8 186.8V194L221.3 193.906L233.8 193.812L221.5 193.7L209.2 193.588V186.799V180.011L222.9 179.9L236.6 179.789L222.7 179.695L208.8 179.6V186.8ZM307.724 187C307.726 188.32 307.801 188.812 307.89 188.093C307.979 187.374 307.977 186.294 307.886 185.693C307.795 185.092 307.722 185.68 307.724 187ZM245.331 197.8C245.333 199.34 245.405 199.921 245.492 199.091C245.579 198.261 245.577 197.001 245.489 196.291C245.4 195.581 245.329 196.26 245.331 197.8ZM188.524 197.8C188.526 199.12 188.601 199.612 188.69 198.893C188.779 198.174 188.777 197.094 188.686 196.493C188.595 195.892 188.522 196.48 188.524 197.8ZM290.524 197.8C290.526 199.12 290.601 199.612 290.69 198.893C290.779 198.174 290.777 197.094 290.686 196.493C290.595 195.892 290.522 196.48 290.524 197.8ZM342.8 200.2C343.546 200.97 344.247 201.6 344.357 201.6C344.467 201.6 343.946 200.97 343.2 200.2C342.454 199.43 341.753 198.8 341.643 198.8C341.533 198.8 342.054 199.43 342.8 200.2ZM208.978 201.313C208.869 201.596 208.835 205.061 208.9 209.013L209.02 216.2L209.11 208.706L209.2 201.212L221.5 201.1L233.8 200.988L221.487 200.894C211.766 200.82 209.133 200.908 208.978 201.313ZM162.1 215.876C162.485 215.976 163.115 215.976 163.5 215.876C163.885 215.775 163.57 215.693 162.8 215.693C162.03 215.693 161.715 215.775 162.1 215.876Z" fill="#818591"/>
</svg>
